<?xml version="1.0" encoding="utf-8" standalone="no"?>
<!DOCTYPE svg PUBLIC "-//W3C//DTD SVG 1.1//EN"
  "http://www.w3.org/Graphics/SVG/1.1/DTD/svg11.dtd">
<svg xmlns:xlink="http://www.w3.org/1999/xlink" width="1008pt" height="360pt" viewBox="0 0 1008 360" xmlns="http://www.w3.org/2000/svg" version="1.1">
 <metadata>
  <rdf:RDF xmlns:dc="http://purl.org/dc/elements/1.1/" xmlns:cc="http://creativecommons.org/ns#" xmlns:rdf="http://www.w3.org/1999/02/22-rdf-syntax-ns#">
   <cc:Work>
    <dc:type rdf:resource="http://purl.org/dc/dcmitype/StillImage"/>
    <dc:date>2022-08-24T23:49:58.321184</dc:date>
    <dc:format>image/svg+xml</dc:format>
    <dc:creator>
     <cc:Agent>
      <dc:title>Matplotlib v3.5.2, https://matplotlib.org/</dc:title>
     </cc:Agent>
    </dc:creator>
   </cc:Work>
  </rdf:RDF>
 </metadata>
 <defs>
  <style type="text/css">*{stroke-linejoin: round; stroke-linecap: butt}</style>
 </defs>
 <g id="figure_1">
  <g id="patch_1">
   <path d="M 0 360 
L 1008 360 
L 1008 0 
L 0 0 
L 0 360 
z
" style="fill: none"/>
  </g>
  <g id="axes_1">
   <g id="patch_2">
    <path d="M 126 315 
L 481.090909 315 
L 481.090909 43.2 
L 126 43.2 
z
" style="fill: #ffffff"/>
   </g>
   <g id="matplotlib.axis_1">
    <g id="xtick_1">
     <g id="line2d_1">
      <path d="M 194.14876 315 
L 194.14876 43.2 
" clip-path="url(#p8cb7ee8848)" style="fill: none; stroke: #b0b0b0; stroke-width: 0.8; stroke-linecap: square"/>
     </g>
     <g id="line2d_2">
      <defs>
       <path id="mb2295081b8" d="M 0 0 
L 0 3.5 
" style="stroke: #000000; stroke-width: 0.8"/>
      </defs>
      <g>
       <use xlink:href="#mb2295081b8" x="194.14876" y="315" style="stroke: #000000; stroke-width: 0.8"/>
      </g>
     </g>
     <g id="text_1">
      <!-- 0.2 -->
      <g transform="translate(181.42626 334.1575)scale(0.16 -0.16)">
       <defs>
        <path id="DejaVuSans-30" d="M 2034 4250 
Q 1547 4250 1301 3770 
Q 1056 3291 1056 2328 
Q 1056 1369 1301 889 
Q 1547 409 2034 409 
Q 2525 409 2770 889 
Q 3016 1369 3016 2328 
Q 3016 3291 2770 3770 
Q 2525 4250 2034 4250 
z
M 2034 4750 
Q 2819 4750 3233 4129 
Q 3647 3509 3647 2328 
Q 3647 1150 3233 529 
Q 2819 -91 2034 -91 
Q 1250 -91 836 529 
Q 422 1150 422 2328 
Q 422 3509 836 4129 
Q 1250 4750 2034 4750 
z
" transform="scale(0.015625)"/>
        <path id="DejaVuSans-2e" d="M 684 794 
L 1344 794 
L 1344 0 
L 684 0 
L 684 794 
z
" transform="scale(0.015625)"/>
        <path id="DejaVuSans-32" d="M 1228 531 
L 3431 531 
L 3431 0 
L 469 0 
L 469 531 
Q 828 903 1448 1529 
Q 2069 2156 2228 2338 
Q 2531 2678 2651 2914 
Q 2772 3150 2772 3378 
Q 2772 3750 2511 3984 
Q 2250 4219 1831 4219 
Q 1534 4219 1204 4116 
Q 875 4013 500 3803 
L 500 4441 
Q 881 4594 1212 4672 
Q 1544 4750 1819 4750 
Q 2544 4750 2975 4387 
Q 3406 4025 3406 3419 
Q 3406 3131 3298 2873 
Q 3191 2616 2906 2266 
Q 2828 2175 2409 1742 
Q 1991 1309 1228 531 
z
" transform="scale(0.015625)"/>
       </defs>
       <use xlink:href="#DejaVuSans-30"/>
       <use xlink:href="#DejaVuSans-2e" x="63.623047"/>
       <use xlink:href="#DejaVuSans-32" x="95.410156"/>
      </g>
     </g>
    </g>
    <g id="xtick_2">
     <g id="line2d_3">
      <path d="M 265.884298 315 
L 265.884298 43.2 
" clip-path="url(#p8cb7ee8848)" style="fill: none; stroke: #b0b0b0; stroke-width: 0.8; stroke-linecap: square"/>
     </g>
     <g id="line2d_4">
      <g>
       <use xlink:href="#mb2295081b8" x="265.884298" y="315" style="stroke: #000000; stroke-width: 0.8"/>
      </g>
     </g>
     <g id="text_2">
      <!-- 0.4 -->
      <g transform="translate(253.161798 334.1575)scale(0.16 -0.16)">
       <defs>
        <path id="DejaVuSans-34" d="M 2419 4116 
L 825 1625 
L 2419 1625 
L 2419 4116 
z
M 2253 4666 
L 3047 4666 
L 3047 1625 
L 3713 1625 
L 3713 1100 
L 3047 1100 
L 3047 0 
L 2419 0 
L 2419 1100 
L 313 1100 
L 313 1709 
L 2253 4666 
z
" transform="scale(0.015625)"/>
       </defs>
       <use xlink:href="#DejaVuSans-30"/>
       <use xlink:href="#DejaVuSans-2e" x="63.623047"/>
       <use xlink:href="#DejaVuSans-34" x="95.410156"/>
      </g>
     </g>
    </g>
    <g id="xtick_3">
     <g id="line2d_5">
      <path d="M 337.619835 315 
L 337.619835 43.2 
" clip-path="url(#p8cb7ee8848)" style="fill: none; stroke: #b0b0b0; stroke-width: 0.8; stroke-linecap: square"/>
     </g>
     <g id="line2d_6">
      <g>
       <use xlink:href="#mb2295081b8" x="337.619835" y="315" style="stroke: #000000; stroke-width: 0.8"/>
      </g>
     </g>
     <g id="text_3">
      <!-- 0.6 -->
      <g transform="translate(324.897335 334.1575)scale(0.16 -0.16)">
       <defs>
        <path id="DejaVuSans-36" d="M 2113 2584 
Q 1688 2584 1439 2293 
Q 1191 2003 1191 1497 
Q 1191 994 1439 701 
Q 1688 409 2113 409 
Q 2538 409 2786 701 
Q 3034 994 3034 1497 
Q 3034 2003 2786 2293 
Q 2538 2584 2113 2584 
z
M 3366 4563 
L 3366 3988 
Q 3128 4100 2886 4159 
Q 2644 4219 2406 4219 
Q 1781 4219 1451 3797 
Q 1122 3375 1075 2522 
Q 1259 2794 1537 2939 
Q 1816 3084 2150 3084 
Q 2853 3084 3261 2657 
Q 3669 2231 3669 1497 
Q 3669 778 3244 343 
Q 2819 -91 2113 -91 
Q 1303 -91 875 529 
Q 447 1150 447 2328 
Q 447 3434 972 4092 
Q 1497 4750 2381 4750 
Q 2619 4750 2861 4703 
Q 3103 4656 3366 4563 
z
" transform="scale(0.015625)"/>
       </defs>
       <use xlink:href="#DejaVuSans-30"/>
       <use xlink:href="#DejaVuSans-2e" x="63.623047"/>
       <use xlink:href="#DejaVuSans-36" x="95.410156"/>
      </g>
     </g>
    </g>
    <g id="xtick_4">
     <g id="line2d_7">
      <path d="M 409.355372 315 
L 409.355372 43.2 
" clip-path="url(#p8cb7ee8848)" style="fill: none; stroke: #b0b0b0; stroke-width: 0.8; stroke-linecap: square"/>
     </g>
     <g id="line2d_8">
      <g>
       <use xlink:href="#mb2295081b8" x="409.355372" y="315" style="stroke: #000000; stroke-width: 0.8"/>
      </g>
     </g>
     <g id="text_4">
      <!-- 0.8 -->
      <g transform="translate(396.632872 334.1575)scale(0.16 -0.16)">
       <defs>
        <path id="DejaVuSans-38" d="M 2034 2216 
Q 1584 2216 1326 1975 
Q 1069 1734 1069 1313 
Q 1069 891 1326 650 
Q 1584 409 2034 409 
Q 2484 409 2743 651 
Q 3003 894 3003 1313 
Q 3003 1734 2745 1975 
Q 2488 2216 2034 2216 
z
M 1403 2484 
Q 997 2584 770 2862 
Q 544 3141 544 3541 
Q 544 4100 942 4425 
Q 1341 4750 2034 4750 
Q 2731 4750 3128 4425 
Q 3525 4100 3525 3541 
Q 3525 3141 3298 2862 
Q 3072 2584 2669 2484 
Q 3125 2378 3379 2068 
Q 3634 1759 3634 1313 
Q 3634 634 3220 271 
Q 2806 -91 2034 -91 
Q 1263 -91 848 271 
Q 434 634 434 1313 
Q 434 1759 690 2068 
Q 947 2378 1403 2484 
z
M 1172 3481 
Q 1172 3119 1398 2916 
Q 1625 2713 2034 2713 
Q 2441 2713 2670 2916 
Q 2900 3119 2900 3481 
Q 2900 3844 2670 4047 
Q 2441 4250 2034 4250 
Q 1625 4250 1398 4047 
Q 1172 3844 1172 3481 
z
" transform="scale(0.015625)"/>
       </defs>
       <use xlink:href="#DejaVuSans-30"/>
       <use xlink:href="#DejaVuSans-2e" x="63.623047"/>
       <use xlink:href="#DejaVuSans-38" x="95.410156"/>
      </g>
     </g>
    </g>
    <g id="xtick_5">
     <g id="line2d_9">
      <path d="M 481.090909 315 
L 481.090909 43.2 
" clip-path="url(#p8cb7ee8848)" style="fill: none; stroke: #b0b0b0; stroke-width: 0.8; stroke-linecap: square"/>
     </g>
     <g id="line2d_10">
      <g>
       <use xlink:href="#mb2295081b8" x="481.090909" y="315" style="stroke: #000000; stroke-width: 0.8"/>
      </g>
     </g>
     <g id="text_5">
      <!-- 1.0 -->
      <g transform="translate(468.368409 334.1575)scale(0.16 -0.16)">
       <defs>
        <path id="DejaVuSans-31" d="M 794 531 
L 1825 531 
L 1825 4091 
L 703 3866 
L 703 4441 
L 1819 4666 
L 2450 4666 
L 2450 531 
L 3481 531 
L 3481 0 
L 794 0 
L 794 531 
z
" transform="scale(0.015625)"/>
       </defs>
       <use xlink:href="#DejaVuSans-31"/>
       <use xlink:href="#DejaVuSans-2e" x="63.623047"/>
       <use xlink:href="#DejaVuSans-30" x="95.410156"/>
      </g>
     </g>
    </g>
    <g id="text_6">
     <!-- Longitud de onda, $\lambda$ ($\mu$m) -->
     <g transform="translate(201.945455 353.645)scale(0.16 -0.16)">
      <defs>
       <path id="DejaVuSans-4c" d="M 628 4666 
L 1259 4666 
L 1259 531 
L 3531 531 
L 3531 0 
L 628 0 
L 628 4666 
z
" transform="scale(0.015625)"/>
       <path id="DejaVuSans-6f" d="M 1959 3097 
Q 1497 3097 1228 2736 
Q 959 2375 959 1747 
Q 959 1119 1226 758 
Q 1494 397 1959 397 
Q 2419 397 2687 759 
Q 2956 1122 2956 1747 
Q 2956 2369 2687 2733 
Q 2419 3097 1959 3097 
z
M 1959 3584 
Q 2709 3584 3137 3096 
Q 3566 2609 3566 1747 
Q 3566 888 3137 398 
Q 2709 -91 1959 -91 
Q 1206 -91 779 398 
Q 353 888 353 1747 
Q 353 2609 779 3096 
Q 1206 3584 1959 3584 
z
" transform="scale(0.015625)"/>
       <path id="DejaVuSans-6e" d="M 3513 2113 
L 3513 0 
L 2938 0 
L 2938 2094 
Q 2938 2591 2744 2837 
Q 2550 3084 2163 3084 
Q 1697 3084 1428 2787 
Q 1159 2491 1159 1978 
L 1159 0 
L 581 0 
L 581 3500 
L 1159 3500 
L 1159 2956 
Q 1366 3272 1645 3428 
Q 1925 3584 2291 3584 
Q 2894 3584 3203 3211 
Q 3513 2838 3513 2113 
z
" transform="scale(0.015625)"/>
       <path id="DejaVuSans-67" d="M 2906 1791 
Q 2906 2416 2648 2759 
Q 2391 3103 1925 3103 
Q 1463 3103 1205 2759 
Q 947 2416 947 1791 
Q 947 1169 1205 825 
Q 1463 481 1925 481 
Q 2391 481 2648 825 
Q 2906 1169 2906 1791 
z
M 3481 434 
Q 3481 -459 3084 -895 
Q 2688 -1331 1869 -1331 
Q 1566 -1331 1297 -1286 
Q 1028 -1241 775 -1147 
L 775 -588 
Q 1028 -725 1275 -790 
Q 1522 -856 1778 -856 
Q 2344 -856 2625 -561 
Q 2906 -266 2906 331 
L 2906 616 
Q 2728 306 2450 153 
Q 2172 0 1784 0 
Q 1141 0 747 490 
Q 353 981 353 1791 
Q 353 2603 747 3093 
Q 1141 3584 1784 3584 
Q 2172 3584 2450 3431 
Q 2728 3278 2906 2969 
L 2906 3500 
L 3481 3500 
L 3481 434 
z
" transform="scale(0.015625)"/>
       <path id="DejaVuSans-69" d="M 603 3500 
L 1178 3500 
L 1178 0 
L 603 0 
L 603 3500 
z
M 603 4863 
L 1178 4863 
L 1178 4134 
L 603 4134 
L 603 4863 
z
" transform="scale(0.015625)"/>
       <path id="DejaVuSans-74" d="M 1172 4494 
L 1172 3500 
L 2356 3500 
L 2356 3053 
L 1172 3053 
L 1172 1153 
Q 1172 725 1289 603 
Q 1406 481 1766 481 
L 2356 481 
L 2356 0 
L 1766 0 
Q 1100 0 847 248 
Q 594 497 594 1153 
L 594 3053 
L 172 3053 
L 172 3500 
L 594 3500 
L 594 4494 
L 1172 4494 
z
" transform="scale(0.015625)"/>
       <path id="DejaVuSans-75" d="M 544 1381 
L 544 3500 
L 1119 3500 
L 1119 1403 
Q 1119 906 1312 657 
Q 1506 409 1894 409 
Q 2359 409 2629 706 
Q 2900 1003 2900 1516 
L 2900 3500 
L 3475 3500 
L 3475 0 
L 2900 0 
L 2900 538 
Q 2691 219 2414 64 
Q 2138 -91 1772 -91 
Q 1169 -91 856 284 
Q 544 659 544 1381 
z
M 1991 3584 
L 1991 3584 
z
" transform="scale(0.015625)"/>
       <path id="DejaVuSans-64" d="M 2906 2969 
L 2906 4863 
L 3481 4863 
L 3481 0 
L 2906 0 
L 2906 525 
Q 2725 213 2448 61 
Q 2172 -91 1784 -91 
Q 1150 -91 751 415 
Q 353 922 353 1747 
Q 353 2572 751 3078 
Q 1150 3584 1784 3584 
Q 2172 3584 2448 3432 
Q 2725 3281 2906 2969 
z
M 947 1747 
Q 947 1113 1208 752 
Q 1469 391 1925 391 
Q 2381 391 2643 752 
Q 2906 1113 2906 1747 
Q 2906 2381 2643 2742 
Q 2381 3103 1925 3103 
Q 1469 3103 1208 2742 
Q 947 2381 947 1747 
z
" transform="scale(0.015625)"/>
       <path id="DejaVuSans-20" transform="scale(0.015625)"/>
       <path id="DejaVuSans-65" d="M 3597 1894 
L 3597 1613 
L 953 1613 
Q 991 1019 1311 708 
Q 1631 397 2203 397 
Q 2534 397 2845 478 
Q 3156 559 3463 722 
L 3463 178 
Q 3153 47 2828 -22 
Q 2503 -91 2169 -91 
Q 1331 -91 842 396 
Q 353 884 353 1716 
Q 353 2575 817 3079 
Q 1281 3584 2069 3584 
Q 2775 3584 3186 3129 
Q 3597 2675 3597 1894 
z
M 3022 2063 
Q 3016 2534 2758 2815 
Q 2500 3097 2075 3097 
Q 1594 3097 1305 2825 
Q 1016 2553 972 2059 
L 3022 2063 
z
" transform="scale(0.015625)"/>
       <path id="DejaVuSans-61" d="M 2194 1759 
Q 1497 1759 1228 1600 
Q 959 1441 959 1056 
Q 959 750 1161 570 
Q 1363 391 1709 391 
Q 2188 391 2477 730 
Q 2766 1069 2766 1631 
L 2766 1759 
L 2194 1759 
z
M 3341 1997 
L 3341 0 
L 2766 0 
L 2766 531 
Q 2569 213 2275 61 
Q 1981 -91 1556 -91 
Q 1019 -91 701 211 
Q 384 513 384 1019 
Q 384 1609 779 1909 
Q 1175 2209 1959 2209 
L 2766 2209 
L 2766 2266 
Q 2766 2663 2505 2880 
Q 2244 3097 1772 3097 
Q 1472 3097 1187 3025 
Q 903 2953 641 2809 
L 641 3341 
Q 956 3463 1253 3523 
Q 1550 3584 1831 3584 
Q 2591 3584 2966 3190 
Q 3341 2797 3341 1997 
z
" transform="scale(0.015625)"/>
       <path id="DejaVuSans-2c" d="M 750 794 
L 1409 794 
L 1409 256 
L 897 -744 
L 494 -744 
L 750 256 
L 750 794 
z
" transform="scale(0.015625)"/>
       <path id="DejaVuSans-Oblique-3bb" d="M 2350 4316 
L 3125 0 
L 2516 0 
L 2038 2588 
L 328 0 
L -281 0 
L 1903 3356 
L 1794 3975 
Q 1725 4369 1391 4369 
L 1091 4369 
L 1184 4863 
L 1550 4856 
Q 2253 4847 2350 4316 
z
" transform="scale(0.015625)"/>
       <path id="DejaVuSans-28" d="M 1984 4856 
Q 1566 4138 1362 3434 
Q 1159 2731 1159 2009 
Q 1159 1288 1364 580 
Q 1569 -128 1984 -844 
L 1484 -844 
Q 1016 -109 783 600 
Q 550 1309 550 2009 
Q 550 2706 781 3412 
Q 1013 4119 1484 4856 
L 1984 4856 
z
" transform="scale(0.015625)"/>
       <path id="DejaVuSans-Oblique-3bc" d="M -84 -1331 
L 856 3500 
L 1434 3500 
L 1009 1322 
Q 997 1256 987 1175 
Q 978 1094 978 1013 
Q 978 722 1161 565 
Q 1344 409 1684 409 
Q 2147 409 2431 671 
Q 2716 934 2816 1459 
L 3213 3500 
L 3788 3500 
L 3266 809 
Q 3253 750 3248 706 
Q 3244 663 3244 628 
Q 3244 531 3283 486 
Q 3322 441 3406 441 
Q 3438 441 3492 456 
Q 3547 472 3647 513 
L 3559 50 
Q 3422 -19 3297 -55 
Q 3172 -91 3053 -91 
Q 2847 -91 2730 40 
Q 2613 172 2613 403 
Q 2438 153 2195 31 
Q 1953 -91 1625 -91 
Q 1334 -91 1117 43 
Q 900 178 831 397 
L 494 -1331 
L -84 -1331 
z
" transform="scale(0.015625)"/>
       <path id="DejaVuSans-6d" d="M 3328 2828 
Q 3544 3216 3844 3400 
Q 4144 3584 4550 3584 
Q 5097 3584 5394 3201 
Q 5691 2819 5691 2113 
L 5691 0 
L 5113 0 
L 5113 2094 
Q 5113 2597 4934 2840 
Q 4756 3084 4391 3084 
Q 3944 3084 3684 2787 
Q 3425 2491 3425 1978 
L 3425 0 
L 2847 0 
L 2847 2094 
Q 2847 2600 2669 2842 
Q 2491 3084 2119 3084 
Q 1678 3084 1418 2786 
Q 1159 2488 1159 1978 
L 1159 0 
L 581 0 
L 581 3500 
L 1159 3500 
L 1159 2956 
Q 1356 3278 1631 3431 
Q 1906 3584 2284 3584 
Q 2666 3584 2933 3390 
Q 3200 3197 3328 2828 
z
" transform="scale(0.015625)"/>
       <path id="DejaVuSans-29" d="M 513 4856 
L 1013 4856 
Q 1481 4119 1714 3412 
Q 1947 2706 1947 2009 
Q 1947 1309 1714 600 
Q 1481 -109 1013 -844 
L 513 -844 
Q 928 -128 1133 580 
Q 1338 1288 1338 2009 
Q 1338 2731 1133 3434 
Q 928 4138 513 4856 
z
" transform="scale(0.015625)"/>
      </defs>
      <use xlink:href="#DejaVuSans-4c" transform="translate(0 0.015625)"/>
      <use xlink:href="#DejaVuSans-6f" transform="translate(55.712891 0.015625)"/>
      <use xlink:href="#DejaVuSans-6e" transform="translate(116.894531 0.015625)"/>
      <use xlink:href="#DejaVuSans-67" transform="translate(180.273438 0.015625)"/>
      <use xlink:href="#DejaVuSans-69" transform="translate(243.75 0.015625)"/>
      <use xlink:href="#DejaVuSans-74" transform="translate(271.533203 0.015625)"/>
      <use xlink:href="#DejaVuSans-75" transform="translate(310.742188 0.015625)"/>
      <use xlink:href="#DejaVuSans-64" transform="translate(374.121094 0.015625)"/>
      <use xlink:href="#DejaVuSans-20" transform="translate(437.597656 0.015625)"/>
      <use xlink:href="#DejaVuSans-64" transform="translate(469.384766 0.015625)"/>
      <use xlink:href="#DejaVuSans-65" transform="translate(532.861328 0.015625)"/>
      <use xlink:href="#DejaVuSans-20" transform="translate(594.384766 0.015625)"/>
      <use xlink:href="#DejaVuSans-6f" transform="translate(626.171875 0.015625)"/>
      <use xlink:href="#DejaVuSans-6e" transform="translate(687.353516 0.015625)"/>
      <use xlink:href="#DejaVuSans-64" transform="translate(750.732422 0.015625)"/>
      <use xlink:href="#DejaVuSans-61" transform="translate(814.208984 0.015625)"/>
      <use xlink:href="#DejaVuSans-2c" transform="translate(875.488281 0.015625)"/>
      <use xlink:href="#DejaVuSans-20" transform="translate(907.275391 0.015625)"/>
      <use xlink:href="#DejaVuSans-Oblique-3bb" transform="translate(939.0625 0.015625)"/>
      <use xlink:href="#DejaVuSans-20" transform="translate(998.242188 0.015625)"/>
      <use xlink:href="#DejaVuSans-28" transform="translate(1030.029297 0.015625)"/>
      <use xlink:href="#DejaVuSans-Oblique-3bc" transform="translate(1069.042969 0.015625)"/>
      <use xlink:href="#DejaVuSans-6d" transform="translate(1132.666016 0.015625)"/>
      <use xlink:href="#DejaVuSans-29" transform="translate(1230.078125 0.015625)"/>
     </g>
    </g>
   </g>
   <g id="matplotlib.axis_2">
    <g id="ytick_1">
     <g id="line2d_11">
      <path d="M 126 287.76695 
L 481.090909 287.76695 
" clip-path="url(#p8cb7ee8848)" style="fill: none; stroke: #b0b0b0; stroke-width: 0.8; stroke-linecap: square"/>
     </g>
     <g id="line2d_12">
      <defs>
       <path id="mf670a756fc" d="M 0 0 
L -3.5 0 
" style="stroke: #000000; stroke-width: 0.8"/>
      </defs>
      <g>
       <use xlink:href="#mf670a756fc" x="126" y="287.76695" style="stroke: #000000; stroke-width: 0.8"/>
      </g>
     </g>
     <g id="text_7">
      <!-- −80 -->
      <g transform="translate(85.2325 293.8457)scale(0.16 -0.16)">
       <defs>
        <path id="DejaVuSans-2212" d="M 678 2272 
L 4684 2272 
L 4684 1741 
L 678 1741 
L 678 2272 
z
" transform="scale(0.015625)"/>
       </defs>
       <use xlink:href="#DejaVuSans-2212"/>
       <use xlink:href="#DejaVuSans-38" x="83.789062"/>
       <use xlink:href="#DejaVuSans-30" x="147.412109"/>
      </g>
     </g>
    </g>
    <g id="ytick_2">
     <g id="line2d_13">
      <path d="M 126 251.029387 
L 481.090909 251.029387 
" clip-path="url(#p8cb7ee8848)" style="fill: none; stroke: #b0b0b0; stroke-width: 0.8; stroke-linecap: square"/>
     </g>
     <g id="line2d_14">
      <g>
       <use xlink:href="#mf670a756fc" x="126" y="251.029387" style="stroke: #000000; stroke-width: 0.8"/>
      </g>
     </g>
     <g id="text_8">
      <!-- −60 -->
      <g transform="translate(85.2325 257.108137)scale(0.16 -0.16)">
       <use xlink:href="#DejaVuSans-2212"/>
       <use xlink:href="#DejaVuSans-36" x="83.789062"/>
       <use xlink:href="#DejaVuSans-30" x="147.412109"/>
      </g>
     </g>
    </g>
    <g id="ytick_3">
     <g id="line2d_15">
      <path d="M 126 214.291824 
L 481.090909 214.291824 
" clip-path="url(#p8cb7ee8848)" style="fill: none; stroke: #b0b0b0; stroke-width: 0.8; stroke-linecap: square"/>
     </g>
     <g id="line2d_16">
      <g>
       <use xlink:href="#mf670a756fc" x="126" y="214.291824" style="stroke: #000000; stroke-width: 0.8"/>
      </g>
     </g>
     <g id="text_9">
      <!-- −40 -->
      <g transform="translate(85.2325 220.370574)scale(0.16 -0.16)">
       <use xlink:href="#DejaVuSans-2212"/>
       <use xlink:href="#DejaVuSans-34" x="83.789062"/>
       <use xlink:href="#DejaVuSans-30" x="147.412109"/>
      </g>
     </g>
    </g>
    <g id="ytick_4">
     <g id="line2d_17">
      <path d="M 126 177.55426 
L 481.090909 177.55426 
" clip-path="url(#p8cb7ee8848)" style="fill: none; stroke: #b0b0b0; stroke-width: 0.8; stroke-linecap: square"/>
     </g>
     <g id="line2d_18">
      <g>
       <use xlink:href="#mf670a756fc" x="126" y="177.55426" style="stroke: #000000; stroke-width: 0.8"/>
      </g>
     </g>
     <g id="text_10">
      <!-- −20 -->
      <g transform="translate(85.2325 183.63301)scale(0.16 -0.16)">
       <use xlink:href="#DejaVuSans-2212"/>
       <use xlink:href="#DejaVuSans-32" x="83.789062"/>
       <use xlink:href="#DejaVuSans-30" x="147.412109"/>
      </g>
     </g>
    </g>
    <g id="ytick_5">
     <g id="line2d_19">
      <path d="M 126 140.816697 
L 481.090909 140.816697 
" clip-path="url(#p8cb7ee8848)" style="fill: none; stroke: #b0b0b0; stroke-width: 0.8; stroke-linecap: square"/>
     </g>
     <g id="line2d_20">
      <g>
       <use xlink:href="#mf670a756fc" x="126" y="140.816697" style="stroke: #000000; stroke-width: 0.8"/>
      </g>
     </g>
     <g id="text_11">
      <!-- 0 -->
      <g transform="translate(108.82 146.895447)scale(0.16 -0.16)">
       <use xlink:href="#DejaVuSans-30"/>
      </g>
     </g>
    </g>
    <g id="ytick_6">
     <g id="line2d_21">
      <path d="M 126 104.079133 
L 481.090909 104.079133 
" clip-path="url(#p8cb7ee8848)" style="fill: none; stroke: #b0b0b0; stroke-width: 0.8; stroke-linecap: square"/>
     </g>
     <g id="line2d_22">
      <g>
       <use xlink:href="#mf670a756fc" x="126" y="104.079133" style="stroke: #000000; stroke-width: 0.8"/>
      </g>
     </g>
     <g id="text_12">
      <!-- 20 -->
      <g transform="translate(98.64 110.157883)scale(0.16 -0.16)">
       <use xlink:href="#DejaVuSans-32"/>
       <use xlink:href="#DejaVuSans-30" x="63.623047"/>
      </g>
     </g>
    </g>
    <g id="ytick_7">
     <g id="line2d_23">
      <path d="M 126 67.34157 
L 481.090909 67.34157 
" clip-path="url(#p8cb7ee8848)" style="fill: none; stroke: #b0b0b0; stroke-width: 0.8; stroke-linecap: square"/>
     </g>
     <g id="line2d_24">
      <g>
       <use xlink:href="#mf670a756fc" x="126" y="67.34157" style="stroke: #000000; stroke-width: 0.8"/>
      </g>
     </g>
     <g id="text_13">
      <!-- 40 -->
      <g transform="translate(98.64 73.42032)scale(0.16 -0.16)">
       <use xlink:href="#DejaVuSans-34"/>
       <use xlink:href="#DejaVuSans-30" x="63.623047"/>
      </g>
     </g>
    </g>
    <g id="text_14">
     <!-- Constante dielectrica, $\varepsilon = \varepsilon'+ \varepsilon''$ -->
     <g transform="translate(77.905 307.82)rotate(-90)scale(0.16 -0.16)">
      <defs>
       <path id="DejaVuSans-43" d="M 4122 4306 
L 4122 3641 
Q 3803 3938 3442 4084 
Q 3081 4231 2675 4231 
Q 1875 4231 1450 3742 
Q 1025 3253 1025 2328 
Q 1025 1406 1450 917 
Q 1875 428 2675 428 
Q 3081 428 3442 575 
Q 3803 722 4122 1019 
L 4122 359 
Q 3791 134 3420 21 
Q 3050 -91 2638 -91 
Q 1578 -91 968 557 
Q 359 1206 359 2328 
Q 359 3453 968 4101 
Q 1578 4750 2638 4750 
Q 3056 4750 3426 4639 
Q 3797 4528 4122 4306 
z
" transform="scale(0.015625)"/>
       <path id="DejaVuSans-73" d="M 2834 3397 
L 2834 2853 
Q 2591 2978 2328 3040 
Q 2066 3103 1784 3103 
Q 1356 3103 1142 2972 
Q 928 2841 928 2578 
Q 928 2378 1081 2264 
Q 1234 2150 1697 2047 
L 1894 2003 
Q 2506 1872 2764 1633 
Q 3022 1394 3022 966 
Q 3022 478 2636 193 
Q 2250 -91 1575 -91 
Q 1294 -91 989 -36 
Q 684 19 347 128 
L 347 722 
Q 666 556 975 473 
Q 1284 391 1588 391 
Q 1994 391 2212 530 
Q 2431 669 2431 922 
Q 2431 1156 2273 1281 
Q 2116 1406 1581 1522 
L 1381 1569 
Q 847 1681 609 1914 
Q 372 2147 372 2553 
Q 372 3047 722 3315 
Q 1072 3584 1716 3584 
Q 2034 3584 2315 3537 
Q 2597 3491 2834 3397 
z
" transform="scale(0.015625)"/>
       <path id="DejaVuSans-6c" d="M 603 4863 
L 1178 4863 
L 1178 0 
L 603 0 
L 603 4863 
z
" transform="scale(0.015625)"/>
       <path id="DejaVuSans-63" d="M 3122 3366 
L 3122 2828 
Q 2878 2963 2633 3030 
Q 2388 3097 2138 3097 
Q 1578 3097 1268 2742 
Q 959 2388 959 1747 
Q 959 1106 1268 751 
Q 1578 397 2138 397 
Q 2388 397 2633 464 
Q 2878 531 3122 666 
L 3122 134 
Q 2881 22 2623 -34 
Q 2366 -91 2075 -91 
Q 1284 -91 818 406 
Q 353 903 353 1747 
Q 353 2603 823 3093 
Q 1294 3584 2113 3584 
Q 2378 3584 2631 3529 
Q 2884 3475 3122 3366 
z
" transform="scale(0.015625)"/>
       <path id="DejaVuSans-72" d="M 2631 2963 
Q 2534 3019 2420 3045 
Q 2306 3072 2169 3072 
Q 1681 3072 1420 2755 
Q 1159 2438 1159 1844 
L 1159 0 
L 581 0 
L 581 3500 
L 1159 3500 
L 1159 2956 
Q 1341 3275 1631 3429 
Q 1922 3584 2338 3584 
Q 2397 3584 2469 3576 
Q 2541 3569 2628 3553 
L 2631 2963 
z
" transform="scale(0.015625)"/>
       <path id="DejaVuSans-Oblique-3b5" d="M 1263 1888 
Q 925 1963 778 2166 
Q 669 2309 669 2503 
Q 669 3034 1175 3344 
Q 1575 3588 2188 3588 
Q 2425 3588 2684 3550 
Q 2944 3513 3234 3438 
L 3134 2916 
Q 2847 3006 2606 3047 
Q 2359 3088 2138 3088 
Q 1766 3088 1522 2944 
Q 1228 2772 1228 2522 
Q 1228 2356 1381 2241 
Q 1563 2103 1925 2103 
L 2409 2103 
L 2319 1628 
L 1856 1628 
Q 1425 1628 1172 1469 
Q 828 1253 828 916 
Q 828 703 1013 563 
Q 1244 388 1716 388 
Q 2006 388 2284 444 
Q 2563 503 2806 619 
L 2700 84 
Q 2403 -3 2131 -47 
Q 1859 -91 1609 -91 
Q 866 -91 516 194 
Q 250 413 250 781 
Q 250 1278 600 1584 
Q 859 1813 1263 1888 
z
" transform="scale(0.015625)"/>
       <path id="DejaVuSans-3d" d="M 678 2906 
L 4684 2906 
L 4684 2381 
L 678 2381 
L 678 2906 
z
M 678 1631 
L 4684 1631 
L 4684 1100 
L 678 1100 
L 678 1631 
z
" transform="scale(0.015625)"/>
       <path id="Cmsy10-30" d="M 225 347 
Q 184 359 184 409 
L 966 3316 
Q 1003 3434 1093 3506 
Q 1184 3578 1300 3578 
Q 1450 3578 1564 3479 
Q 1678 3381 1678 3231 
Q 1678 3166 1644 3084 
L 488 319 
Q 466 275 428 275 
Q 394 275 320 306 
Q 247 338 225 347 
z
" transform="scale(0.015625)"/>
       <path id="DejaVuSans-2b" d="M 2944 4013 
L 2944 2272 
L 4684 2272 
L 4684 1741 
L 2944 1741 
L 2944 0 
L 2419 0 
L 2419 1741 
L 678 1741 
L 678 2272 
L 2419 2272 
L 2419 4013 
L 2944 4013 
z
" transform="scale(0.015625)"/>
      </defs>
      <use xlink:href="#DejaVuSans-43" transform="translate(0 0.584375)"/>
      <use xlink:href="#DejaVuSans-6f" transform="translate(69.824219 0.584375)"/>
      <use xlink:href="#DejaVuSans-6e" transform="translate(131.005859 0.584375)"/>
      <use xlink:href="#DejaVuSans-73" transform="translate(194.384766 0.584375)"/>
      <use xlink:href="#DejaVuSans-74" transform="translate(246.484375 0.584375)"/>
      <use xlink:href="#DejaVuSans-61" transform="translate(285.693359 0.584375)"/>
      <use xlink:href="#DejaVuSans-6e" transform="translate(346.972656 0.584375)"/>
      <use xlink:href="#DejaVuSans-74" transform="translate(410.351562 0.584375)"/>
      <use xlink:href="#DejaVuSans-65" transform="translate(449.560547 0.584375)"/>
      <use xlink:href="#DejaVuSans-20" transform="translate(511.083984 0.584375)"/>
      <use xlink:href="#DejaVuSans-64" transform="translate(542.871094 0.584375)"/>
      <use xlink:href="#DejaVuSans-69" transform="translate(606.347656 0.584375)"/>
      <use xlink:href="#DejaVuSans-65" transform="translate(634.130859 0.584375)"/>
      <use xlink:href="#DejaVuSans-6c" transform="translate(695.654297 0.584375)"/>
      <use xlink:href="#DejaVuSans-65" transform="translate(723.4375 0.584375)"/>
      <use xlink:href="#DejaVuSans-63" transform="translate(784.960938 0.584375)"/>
      <use xlink:href="#DejaVuSans-74" transform="translate(839.941406 0.584375)"/>
      <use xlink:href="#DejaVuSans-72" transform="translate(879.150391 0.584375)"/>
      <use xlink:href="#DejaVuSans-69" transform="translate(920.263672 0.584375)"/>
      <use xlink:href="#DejaVuSans-63" transform="translate(948.046875 0.584375)"/>
      <use xlink:href="#DejaVuSans-61" transform="translate(1003.027344 0.584375)"/>
      <use xlink:href="#DejaVuSans-2c" transform="translate(1064.306641 0.584375)"/>
      <use xlink:href="#DejaVuSans-20" transform="translate(1096.09375 0.584375)"/>
      <use xlink:href="#DejaVuSans-Oblique-3b5" transform="translate(1127.880859 0.584375)"/>
      <use xlink:href="#DejaVuSans-3d" transform="translate(1201.416016 0.584375)"/>
      <use xlink:href="#DejaVuSans-Oblique-3b5" transform="translate(1304.6875 0.584375)"/>
      <use xlink:href="#Cmsy10-30" transform="translate(1363.39888 38.865625)scale(0.7)"/>
      <use xlink:href="#DejaVuSans-2b" transform="translate(1404.858841 0.584375)"/>
      <use xlink:href="#DejaVuSans-Oblique-3b5" transform="translate(1508.130326 0.584375)"/>
      <use xlink:href="#Cmsy10-30" transform="translate(1566.841706 38.865625)scale(0.7)"/>
      <use xlink:href="#Cmsy10-30" transform="translate(1586.08487 38.865625)scale(0.7)"/>
     </g>
    </g>
   </g>
   <g id="line2d_25">
    <path d="M 126 139.018122 
L 129.554464 139.009588 
L 140.573301 139.630545 
L 151.236691 140.693273 
L 159.056511 141.83465 
L 169.364455 143.760113 
L 176.828829 145.436576 
L 185.359541 147.634366 
L 194.2457 150.2476 
L 203.131859 153.189308 
L 209.88534 155.666549 
L 218.416052 159.059983 
L 225.52498 162.142629 
L 232.633907 165.465106 
L 243.652744 170.927783 
L 251.117117 174.869504 
L 259.292383 179.441865 
L 267.112203 184.074517 
L 275.287469 189.179291 
L 287.017199 196.82684 
L 299.102375 204.972414 
L 307.988534 211.178164 
L 317.230139 217.795259 
L 343.53317 237.177272 
L 346.37674 239.223064 
L 358.461916 247.429154 
L 370.547093 254.481548 
L 384.054054 260.514627 
L 393.295659 260.703083 
L 400.404586 260.665747 
L 408.579853 255.363997 
L 414.977887 252.001612 
L 423.153153 250.653076 
L 433.461097 251.656088 
L 440.214578 252.318575 
L 450.167076 261.227134 
L 459.408681 271.549682 
L 467.583948 284.165819 
L 470.427518 288.481746 
L 478.602785 299.292748 
L 481.090909 302.645455 
L 481.090909 302.645455 
" clip-path="url(#p8cb7ee8848)" style="fill: none; stroke: #0000ff; stroke-width: 1.5; stroke-linecap: square"/>
   </g>
   <g id="line2d_26">
    <path d="M 126 140.731073 
L 128.488124 140.725092 
L 129.199017 140.802257 
L 168.653563 140.588976 
L 184.293202 140.194889 
L 198.15561 139.638271 
L 212.373464 138.809051 
L 226.235872 137.688444 
L 236.18837 136.691524 
L 247.562654 135.196656 
L 256.448812 133.835157 
L 267.823096 131.783898 
L 274.22113 130.45154 
L 282.396396 128.516085 
L 291.993448 125.800787 
L 299.813268 123.38612 
L 308.34398 120.549343 
L 317.585586 116.950947 
L 325.049959 113.839811 
L 333.580672 109.58978 
L 342.46683 104.909204 
L 346.021294 102.865841 
L 354.552007 97.338961 
L 359.172809 94.145467 
L 368.058968 87.681303 
L 371.257985 85.174229 
L 380.49959 77.480466 
L 385.475839 73.131924 
L 398.982801 60.527251 
L 400.404586 59.203017 
L 407.513514 55.554545 
L 415.333333 57.013366 
L 423.153153 59.96701 
L 444.835381 76.749044 
L 450.877969 81.619564 
L 457.276003 86.271616 
L 459.408681 87.836416 
L 465.806716 89.885985 
L 470.072072 91.289561 
L 481.090909 90.731965 
L 481.090909 90.731965 
" clip-path="url(#p8cb7ee8848)" style="fill: none; stroke: #ff0000; stroke-width: 1.5; stroke-linecap: square"/>
   </g>
   <g id="patch_3">
    <path d="M 126 315 
L 126 43.2 
" style="fill: none; stroke: #000000; stroke-width: 0.8; stroke-linejoin: miter; stroke-linecap: square"/>
   </g>
   <g id="patch_4">
    <path d="M 481.090909 315 
L 481.090909 43.2 
" style="fill: none; stroke: #000000; stroke-width: 0.8; stroke-linejoin: miter; stroke-linecap: square"/>
   </g>
   <g id="patch_5">
    <path d="M 126 315 
L 481.090909 315 
" style="fill: none; stroke: #000000; stroke-width: 0.8; stroke-linejoin: miter; stroke-linecap: square"/>
   </g>
   <g id="patch_6">
    <path d="M 126 43.2 
L 481.090909 43.2 
" style="fill: none; stroke: #000000; stroke-width: 0.8; stroke-linejoin: miter; stroke-linecap: square"/>
   </g>
   <g id="legend_1">
    <g id="line2d_27">
     <path d="M 140.4 64.1575 
L 156.4 64.1575 
L 172.4 64.1575 
" style="fill: none; stroke: #0000ff; stroke-width: 1.5; stroke-linecap: square"/>
    </g>
    <g id="text_15">
     <!-- $\varepsilon'$ -->
     <g transform="translate(185.2 69.7575)scale(0.16 -0.16)">
      <use xlink:href="#DejaVuSans-Oblique-3b5" transform="translate(0 0.584375)"/>
      <use xlink:href="#Cmsy10-30" transform="translate(58.71138 38.865625)scale(0.7)"/>
     </g>
    </g>
    <g id="line2d_28">
     <path d="M 140.4 87.6425 
L 156.4 87.6425 
L 172.4 87.6425 
" style="fill: none; stroke: #ff0000; stroke-width: 1.5; stroke-linecap: square"/>
    </g>
    <g id="text_16">
     <!-- $\varepsilon''$ -->
     <g transform="translate(185.2 93.2425)scale(0.16 -0.16)">
      <use xlink:href="#DejaVuSans-Oblique-3b5" transform="translate(0 0.584375)"/>
      <use xlink:href="#Cmsy10-30" transform="translate(58.71138 38.865625)scale(0.7)"/>
      <use xlink:href="#Cmsy10-30" transform="translate(77.954544 38.865625)scale(0.7)"/>
     </g>
    </g>
   </g>
  </g>
  <g id="axes_2">
   <g id="patch_7">
    <path d="M 552.109091 315 
L 907.2 315 
L 907.2 43.2 
L 552.109091 43.2 
z
" style="fill: #ffffff"/>
   </g>
   <g id="matplotlib.axis_3">
    <g id="xtick_6">
     <g id="line2d_29">
      <path d="M 620.257851 315 
L 620.257851 43.2 
" clip-path="url(#pee598e7341)" style="fill: none; stroke: #b0b0b0; stroke-width: 0.8; stroke-linecap: square"/>
     </g>
     <g id="line2d_30">
      <g>
       <use xlink:href="#mb2295081b8" x="620.257851" y="315" style="stroke: #000000; stroke-width: 0.8"/>
      </g>
     </g>
     <g id="text_17">
      <!-- 0.2 -->
      <g transform="translate(607.535351 334.1575)scale(0.16 -0.16)">
       <use xlink:href="#DejaVuSans-30"/>
       <use xlink:href="#DejaVuSans-2e" x="63.623047"/>
       <use xlink:href="#DejaVuSans-32" x="95.410156"/>
      </g>
     </g>
    </g>
    <g id="xtick_7">
     <g id="line2d_31">
      <path d="M 691.993388 315 
L 691.993388 43.2 
" clip-path="url(#pee598e7341)" style="fill: none; stroke: #b0b0b0; stroke-width: 0.8; stroke-linecap: square"/>
     </g>
     <g id="line2d_32">
      <g>
       <use xlink:href="#mb2295081b8" x="691.993388" y="315" style="stroke: #000000; stroke-width: 0.8"/>
      </g>
     </g>
     <g id="text_18">
      <!-- 0.4 -->
      <g transform="translate(679.270888 334.1575)scale(0.16 -0.16)">
       <use xlink:href="#DejaVuSans-30"/>
       <use xlink:href="#DejaVuSans-2e" x="63.623047"/>
       <use xlink:href="#DejaVuSans-34" x="95.410156"/>
      </g>
     </g>
    </g>
    <g id="xtick_8">
     <g id="line2d_33">
      <path d="M 763.728926 315 
L 763.728926 43.2 
" clip-path="url(#pee598e7341)" style="fill: none; stroke: #b0b0b0; stroke-width: 0.8; stroke-linecap: square"/>
     </g>
     <g id="line2d_34">
      <g>
       <use xlink:href="#mb2295081b8" x="763.728926" y="315" style="stroke: #000000; stroke-width: 0.8"/>
      </g>
     </g>
     <g id="text_19">
      <!-- 0.6 -->
      <g transform="translate(751.006426 334.1575)scale(0.16 -0.16)">
       <use xlink:href="#DejaVuSans-30"/>
       <use xlink:href="#DejaVuSans-2e" x="63.623047"/>
       <use xlink:href="#DejaVuSans-36" x="95.410156"/>
      </g>
     </g>
    </g>
    <g id="xtick_9">
     <g id="line2d_35">
      <path d="M 835.464463 315 
L 835.464463 43.2 
" clip-path="url(#pee598e7341)" style="fill: none; stroke: #b0b0b0; stroke-width: 0.8; stroke-linecap: square"/>
     </g>
     <g id="line2d_36">
      <g>
       <use xlink:href="#mb2295081b8" x="835.464463" y="315" style="stroke: #000000; stroke-width: 0.8"/>
      </g>
     </g>
     <g id="text_20">
      <!-- 0.8 -->
      <g transform="translate(822.741963 334.1575)scale(0.16 -0.16)">
       <use xlink:href="#DejaVuSans-30"/>
       <use xlink:href="#DejaVuSans-2e" x="63.623047"/>
       <use xlink:href="#DejaVuSans-38" x="95.410156"/>
      </g>
     </g>
    </g>
    <g id="xtick_10">
     <g id="line2d_37">
      <path d="M 907.2 315 
L 907.2 43.2 
" clip-path="url(#pee598e7341)" style="fill: none; stroke: #b0b0b0; stroke-width: 0.8; stroke-linecap: square"/>
     </g>
     <g id="line2d_38">
      <g>
       <use xlink:href="#mb2295081b8" x="907.2" y="315" style="stroke: #000000; stroke-width: 0.8"/>
      </g>
     </g>
     <g id="text_21">
      <!-- 1.0 -->
      <g transform="translate(894.4775 334.1575)scale(0.16 -0.16)">
       <use xlink:href="#DejaVuSans-31"/>
       <use xlink:href="#DejaVuSans-2e" x="63.623047"/>
       <use xlink:href="#DejaVuSans-30" x="95.410156"/>
      </g>
     </g>
    </g>
    <g id="text_22">
     <!-- Longitud de onda, $\lambda$ ($\mu$m) -->
     <g transform="translate(628.054545 353.645)scale(0.16 -0.16)">
      <use xlink:href="#DejaVuSans-4c" transform="translate(0 0.015625)"/>
      <use xlink:href="#DejaVuSans-6f" transform="translate(55.712891 0.015625)"/>
      <use xlink:href="#DejaVuSans-6e" transform="translate(116.894531 0.015625)"/>
      <use xlink:href="#DejaVuSans-67" transform="translate(180.273438 0.015625)"/>
      <use xlink:href="#DejaVuSans-69" transform="translate(243.75 0.015625)"/>
      <use xlink:href="#DejaVuSans-74" transform="translate(271.533203 0.015625)"/>
      <use xlink:href="#DejaVuSans-75" transform="translate(310.742188 0.015625)"/>
      <use xlink:href="#DejaVuSans-64" transform="translate(374.121094 0.015625)"/>
      <use xlink:href="#DejaVuSans-20" transform="translate(437.597656 0.015625)"/>
      <use xlink:href="#DejaVuSans-64" transform="translate(469.384766 0.015625)"/>
      <use xlink:href="#DejaVuSans-65" transform="translate(532.861328 0.015625)"/>
      <use xlink:href="#DejaVuSans-20" transform="translate(594.384766 0.015625)"/>
      <use xlink:href="#DejaVuSans-6f" transform="translate(626.171875 0.015625)"/>
      <use xlink:href="#DejaVuSans-6e" transform="translate(687.353516 0.015625)"/>
      <use xlink:href="#DejaVuSans-64" transform="translate(750.732422 0.015625)"/>
      <use xlink:href="#DejaVuSans-61" transform="translate(814.208984 0.015625)"/>
      <use xlink:href="#DejaVuSans-2c" transform="translate(875.488281 0.015625)"/>
      <use xlink:href="#DejaVuSans-20" transform="translate(907.275391 0.015625)"/>
      <use xlink:href="#DejaVuSans-Oblique-3bb" transform="translate(939.0625 0.015625)"/>
      <use xlink:href="#DejaVuSans-20" transform="translate(998.242188 0.015625)"/>
      <use xlink:href="#DejaVuSans-28" transform="translate(1030.029297 0.015625)"/>
      <use xlink:href="#DejaVuSans-Oblique-3bc" transform="translate(1069.042969 0.015625)"/>
      <use xlink:href="#DejaVuSans-6d" transform="translate(1132.666016 0.015625)"/>
      <use xlink:href="#DejaVuSans-29" transform="translate(1230.078125 0.015625)"/>
     </g>
    </g>
   </g>
   <g id="matplotlib.axis_4">
    <g id="ytick_8">
     <g id="line2d_39">
      <path d="M 552.109091 302.739082 
L 907.2 302.739082 
" clip-path="url(#pee598e7341)" style="fill: none; stroke: #b0b0b0; stroke-width: 0.8; stroke-linecap: square"/>
     </g>
     <g id="line2d_40">
      <g>
       <use xlink:href="#mf670a756fc" x="552.109091" y="302.739082" style="stroke: #000000; stroke-width: 0.8"/>
      </g>
     </g>
     <g id="text_23">
      <!-- 0 -->
      <g transform="translate(534.929091 308.817832)scale(0.16 -0.16)">
       <use xlink:href="#DejaVuSans-30"/>
      </g>
     </g>
    </g>
    <g id="ytick_9">
     <g id="line2d_41">
      <path d="M 552.109091 250.674647 
L 907.2 250.674647 
" clip-path="url(#pee598e7341)" style="fill: none; stroke: #b0b0b0; stroke-width: 0.8; stroke-linecap: square"/>
     </g>
     <g id="line2d_42">
      <g>
       <use xlink:href="#mf670a756fc" x="552.109091" y="250.674647" style="stroke: #000000; stroke-width: 0.8"/>
      </g>
     </g>
     <g id="text_24">
      <!-- 2 -->
      <g transform="translate(534.929091 256.753397)scale(0.16 -0.16)">
       <use xlink:href="#DejaVuSans-32"/>
      </g>
     </g>
    </g>
    <g id="ytick_10">
     <g id="line2d_43">
      <path d="M 552.109091 198.610212 
L 907.2 198.610212 
" clip-path="url(#pee598e7341)" style="fill: none; stroke: #b0b0b0; stroke-width: 0.8; stroke-linecap: square"/>
     </g>
     <g id="line2d_44">
      <g>
       <use xlink:href="#mf670a756fc" x="552.109091" y="198.610212" style="stroke: #000000; stroke-width: 0.8"/>
      </g>
     </g>
     <g id="text_25">
      <!-- 4 -->
      <g transform="translate(534.929091 204.688962)scale(0.16 -0.16)">
       <use xlink:href="#DejaVuSans-34"/>
      </g>
     </g>
    </g>
    <g id="ytick_11">
     <g id="line2d_45">
      <path d="M 552.109091 146.545777 
L 907.2 146.545777 
" clip-path="url(#pee598e7341)" style="fill: none; stroke: #b0b0b0; stroke-width: 0.8; stroke-linecap: square"/>
     </g>
     <g id="line2d_46">
      <g>
       <use xlink:href="#mf670a756fc" x="552.109091" y="146.545777" style="stroke: #000000; stroke-width: 0.8"/>
      </g>
     </g>
     <g id="text_26">
      <!-- 6 -->
      <g transform="translate(534.929091 152.624527)scale(0.16 -0.16)">
       <use xlink:href="#DejaVuSans-36"/>
      </g>
     </g>
    </g>
    <g id="ytick_12">
     <g id="line2d_47">
      <path d="M 552.109091 94.481342 
L 907.2 94.481342 
" clip-path="url(#pee598e7341)" style="fill: none; stroke: #b0b0b0; stroke-width: 0.8; stroke-linecap: square"/>
     </g>
     <g id="line2d_48">
      <g>
       <use xlink:href="#mf670a756fc" x="552.109091" y="94.481342" style="stroke: #000000; stroke-width: 0.8"/>
      </g>
     </g>
     <g id="text_27">
      <!-- 8 -->
      <g transform="translate(534.929091 100.560092)scale(0.16 -0.16)">
       <use xlink:href="#DejaVuSans-38"/>
      </g>
     </g>
    </g>
    <g id="text_28">
     <!-- Indice de refracción, $N = n + i\kappa$ -->
     <g transform="translate(527.601591 301.18)rotate(-90)scale(0.16 -0.16)">
      <defs>
       <path id="DejaVuSans-49" d="M 628 4666 
L 1259 4666 
L 1259 0 
L 628 0 
L 628 4666 
z
" transform="scale(0.015625)"/>
       <path id="DejaVuSans-66" d="M 2375 4863 
L 2375 4384 
L 1825 4384 
Q 1516 4384 1395 4259 
Q 1275 4134 1275 3809 
L 1275 3500 
L 2222 3500 
L 2222 3053 
L 1275 3053 
L 1275 0 
L 697 0 
L 697 3053 
L 147 3053 
L 147 3500 
L 697 3500 
L 697 3744 
Q 697 4328 969 4595 
Q 1241 4863 1831 4863 
L 2375 4863 
z
" transform="scale(0.015625)"/>
       <path id="DejaVuSans-f3" d="M 1959 3097 
Q 1497 3097 1228 2736 
Q 959 2375 959 1747 
Q 959 1119 1226 758 
Q 1494 397 1959 397 
Q 2419 397 2687 759 
Q 2956 1122 2956 1747 
Q 2956 2369 2687 2733 
Q 2419 3097 1959 3097 
z
M 1959 3584 
Q 2709 3584 3137 3096 
Q 3566 2609 3566 1747 
Q 3566 888 3137 398 
Q 2709 -91 1959 -91 
Q 1206 -91 779 398 
Q 353 888 353 1747 
Q 353 2609 779 3096 
Q 1206 3584 1959 3584 
z
M 2394 5119 
L 3016 5119 
L 1997 3944 
L 1519 3944 
L 2394 5119 
z
" transform="scale(0.015625)"/>
       <path id="DejaVuSans-Oblique-4e" d="M 1081 4666 
L 1931 4666 
L 3219 666 
L 4000 4666 
L 4616 4666 
L 3706 0 
L 2853 0 
L 1569 4025 
L 788 0 
L 172 0 
L 1081 4666 
z
" transform="scale(0.015625)"/>
       <path id="DejaVuSans-Oblique-6e" d="M 3566 2113 
L 3156 0 
L 2578 0 
L 2988 2091 
Q 3016 2238 3031 2350 
Q 3047 2463 3047 2528 
Q 3047 2791 2881 2937 
Q 2716 3084 2419 3084 
Q 1956 3084 1622 2776 
Q 1288 2469 1184 1941 
L 800 0 
L 225 0 
L 903 3500 
L 1478 3500 
L 1363 2950 
Q 1603 3253 1940 3418 
Q 2278 3584 2650 3584 
Q 3113 3584 3367 3334 
Q 3622 3084 3622 2631 
Q 3622 2519 3608 2391 
Q 3594 2263 3566 2113 
z
" transform="scale(0.015625)"/>
       <path id="DejaVuSans-Oblique-69" d="M 1172 4863 
L 1747 4863 
L 1606 4134 
L 1031 4134 
L 1172 4863 
z
M 909 3500 
L 1484 3500 
L 800 0 
L 225 0 
L 909 3500 
z
" transform="scale(0.015625)"/>
       <path id="DejaVuSans-Oblique-3ba" d="M 938 3500 
L 1531 3500 
L 1247 2047 
L 3041 3500 
L 3741 3500 
L 2106 2181 
L 3275 0 
L 2572 0 
L 1628 1806 
L 1122 1403 
L 850 0 
L 256 0 
L 938 3500 
z
" transform="scale(0.015625)"/>
      </defs>
      <use xlink:href="#DejaVuSans-49" transform="translate(0 0.015625)"/>
      <use xlink:href="#DejaVuSans-6e" transform="translate(29.492188 0.015625)"/>
      <use xlink:href="#DejaVuSans-64" transform="translate(92.871094 0.015625)"/>
      <use xlink:href="#DejaVuSans-69" transform="translate(156.347656 0.015625)"/>
      <use xlink:href="#DejaVuSans-63" transform="translate(184.130859 0.015625)"/>
      <use xlink:href="#DejaVuSans-65" transform="translate(239.111328 0.015625)"/>
      <use xlink:href="#DejaVuSans-20" transform="translate(300.634766 0.015625)"/>
      <use xlink:href="#DejaVuSans-64" transform="translate(332.421875 0.015625)"/>
      <use xlink:href="#DejaVuSans-65" transform="translate(395.898438 0.015625)"/>
      <use xlink:href="#DejaVuSans-20" transform="translate(457.421875 0.015625)"/>
      <use xlink:href="#DejaVuSans-72" transform="translate(489.208984 0.015625)"/>
      <use xlink:href="#DejaVuSans-65" transform="translate(530.322266 0.015625)"/>
      <use xlink:href="#DejaVuSans-66" transform="translate(591.845703 0.015625)"/>
      <use xlink:href="#DejaVuSans-72" transform="translate(627.050781 0.015625)"/>
      <use xlink:href="#DejaVuSans-61" transform="translate(668.164062 0.015625)"/>
      <use xlink:href="#DejaVuSans-63" transform="translate(729.443359 0.015625)"/>
      <use xlink:href="#DejaVuSans-63" transform="translate(784.423828 0.015625)"/>
      <use xlink:href="#DejaVuSans-69" transform="translate(839.404297 0.015625)"/>
      <use xlink:href="#DejaVuSans-f3" transform="translate(867.1875 0.015625)"/>
      <use xlink:href="#DejaVuSans-6e" transform="translate(928.369141 0.015625)"/>
      <use xlink:href="#DejaVuSans-2c" transform="translate(991.748047 0.015625)"/>
      <use xlink:href="#DejaVuSans-20" transform="translate(1023.535156 0.015625)"/>
      <use xlink:href="#DejaVuSans-Oblique-4e" transform="translate(1055.322266 0.015625)"/>
      <use xlink:href="#DejaVuSans-3d" transform="translate(1149.609375 0.015625)"/>
      <use xlink:href="#DejaVuSans-Oblique-6e" transform="translate(1252.880859 0.015625)"/>
      <use xlink:href="#DejaVuSans-2b" transform="translate(1335.742188 0.015625)"/>
      <use xlink:href="#DejaVuSans-Oblique-69" transform="translate(1439.013672 0.015625)"/>
      <use xlink:href="#DejaVuSans-Oblique-3ba" transform="translate(1466.796875 0.015625)"/>
     </g>
    </g>
   </g>
   <g id="line2d_49">
    <path d="M 552.109091 276.972416 
L 554.241769 276.493083 
L 554.597215 276.037443 
L 554.952662 276.579663 
L 555.663554 276.918439 
L 561.706143 279.063644 
L 564.194267 280.311691 
L 566.682391 281.815698 
L 571.303194 285.626758 
L 572.72498 287.231703 
L 573.791319 288.654318 
L 574.857658 290.284068 
L 576.634889 293.801402 
L 577.345782 295.812445 
L 578.767568 300.621773 
L 579.123014 301.099793 
L 579.833907 301.446269 
L 580.544799 301.610512 
L 584.099263 301.799096 
L 589.075512 301.731289 
L 603.293366 300.90442 
L 615.733989 299.991337 
L 629.596396 298.771938 
L 643.103358 297.366162 
L 662.297461 295.048029 
L 680.780672 292.090518 
L 700.330221 288.406749 
L 709.927273 286.254481 
L 730.187715 280.967385 
L 736.230303 279.258418 
L 752.225389 274.221539 
L 772.130385 266.598307 
L 784.926454 260.549262 
L 797.01163 254.251642 
L 810.874038 245.942947 
L 827.22457 234.23256 
L 833.622604 230.694994 
L 841.442424 230.796508 
L 849.262244 232.759396 
L 866.679115 243.814159 
L 877.342506 252.773599 
L 885.873219 259.260937 
L 896.181163 264.06446 
L 907.2 265.362805 
L 907.2 265.362805 
" clip-path="url(#pee598e7341)" style="fill: none; stroke: #0000ff; stroke-width: 1.5; stroke-linecap: square"/>
   </g>
   <g id="line2d_50">
    <path d="M 552.109091 302.126097 
L 552.819984 302.061317 
L 553.17543 301.808107 
L 553.886323 302.059999 
L 554.597215 302.106244 
L 554.952662 302.645455 
L 571.303194 302.128035 
L 574.857658 301.862312 
L 576.990336 301.364426 
L 577.345782 301.175805 
L 577.701229 300.780998 
L 578.056675 300.10682 
L 578.767568 297.567397 
L 579.47846 294.900072 
L 580.544799 292.008392 
L 583.032924 286.858372 
L 586.231941 281.720187 
L 590.141851 276.306806 
L 594.407207 271.006139 
L 600.094349 264.52023 
L 606.84783 257.305117 
L 616.089435 247.911831 
L 627.108272 237.109914 
L 646.302375 218.837567 
L 666.918264 199.54551 
L 708.860934 161.682723 
L 724.85602 147.840351 
L 749.026372 127.509465 
L 754.358067 123.182185 
L 773.196724 108.2455 
L 783.860115 100.473308 
L 796.656183 92.346957 
L 810.163145 85.190114 
L 826.513677 81.707652 
L 835.04439 85.069043 
L 841.442424 87.86339 
L 849.973137 89.702155 
L 866.323669 91.447375 
L 875.920721 86.209784 
L 885.517772 78.8281 
L 896.892056 65.804995 
L 907.2 55.554545 
L 907.2 55.554545 
" clip-path="url(#pee598e7341)" style="fill: none; stroke: #ff0000; stroke-width: 1.5; stroke-linecap: square"/>
   </g>
   <g id="patch_8">
    <path d="M 552.109091 315 
L 552.109091 43.2 
" style="fill: none; stroke: #000000; stroke-width: 0.8; stroke-linejoin: miter; stroke-linecap: square"/>
   </g>
   <g id="patch_9">
    <path d="M 907.2 315 
L 907.2 43.2 
" style="fill: none; stroke: #000000; stroke-width: 0.8; stroke-linejoin: miter; stroke-linecap: square"/>
   </g>
   <g id="patch_10">
    <path d="M 552.109091 315 
L 907.2 315 
" style="fill: none; stroke: #000000; stroke-width: 0.8; stroke-linejoin: miter; stroke-linecap: square"/>
   </g>
   <g id="patch_11">
    <path d="M 552.109091 43.2 
L 907.2 43.2 
" style="fill: none; stroke: #000000; stroke-width: 0.8; stroke-linejoin: miter; stroke-linecap: square"/>
   </g>
   <g id="legend_2">
    <g id="line2d_51">
     <path d="M 566.509091 64.1575 
L 582.509091 64.1575 
L 598.509091 64.1575 
" style="fill: none; stroke: #0000ff; stroke-width: 1.5; stroke-linecap: square"/>
    </g>
    <g id="text_29">
     <!-- $n$ -->
     <g transform="translate(611.309091 69.7575)scale(0.16 -0.16)">
      <use xlink:href="#DejaVuSans-Oblique-6e"/>
     </g>
    </g>
    <g id="line2d_52">
     <path d="M 566.509091 87.6425 
L 582.509091 87.6425 
L 598.509091 87.6425 
" style="fill: none; stroke: #ff0000; stroke-width: 1.5; stroke-linecap: square"/>
    </g>
    <g id="text_30">
     <!-- $\kappa$ -->
     <g transform="translate(611.309091 93.2425)scale(0.16 -0.16)">
      <use xlink:href="#DejaVuSans-Oblique-3ba" transform="translate(0 0.3125)"/>
     </g>
    </g>
   </g>
  </g>
 </g>
 <defs>
  <clipPath id="p8cb7ee8848">
   <rect x="126" y="43.2" width="355.090909" height="271.8"/>
  </clipPath>
  <clipPath id="pee598e7341">
   <rect x="552.109091" y="43.2" width="355.090909" height="271.8"/>
  </clipPath>
 </defs>
</svg>
