<?xml version="1.0" encoding="utf-8" standalone="no"?>
<!DOCTYPE svg PUBLIC "-//W3C//DTD SVG 1.1//EN"
  "http://www.w3.org/Graphics/SVG/1.1/DTD/svg11.dtd">
<svg xmlns:xlink="http://www.w3.org/1999/xlink" width="1008pt" height="360pt" viewBox="0 0 1008 360" xmlns="http://www.w3.org/2000/svg" version="1.1">
 <metadata>
  <rdf:RDF xmlns:dc="http://purl.org/dc/elements/1.1/" xmlns:cc="http://creativecommons.org/ns#" xmlns:rdf="http://www.w3.org/1999/02/22-rdf-syntax-ns#">
   <cc:Work>
    <dc:type rdf:resource="http://purl.org/dc/dcmitype/StillImage"/>
    <dc:date>2022-08-24T23:01:51.316271</dc:date>
    <dc:format>image/svg+xml</dc:format>
    <dc:creator>
     <cc:Agent>
      <dc:title>Matplotlib v3.5.2, https://matplotlib.org/</dc:title>
     </cc:Agent>
    </dc:creator>
   </cc:Work>
  </rdf:RDF>
 </metadata>
 <defs>
  <style type="text/css">*{stroke-linejoin: round; stroke-linecap: butt}</style>
 </defs>
 <g id="figure_1">
  <g id="patch_1">
   <path d="M 0 360 
L 1008 360 
L 1008 0 
L 0 0 
L 0 360 
z
" style="fill: none"/>
  </g>
  <g id="axes_1">
   <g id="patch_2">
    <path d="M 126 315 
L 481.090909 315 
L 481.090909 43.2 
L 126 43.2 
z
" style="fill: #ffffff"/>
   </g>
   <g id="matplotlib.axis_1">
    <g id="xtick_1">
     <g id="line2d_1">
      <path d="M 126 315 
L 126 43.2 
" clip-path="url(#p5a0229574a)" style="fill: none; stroke: #b0b0b0; stroke-width: 0.8; stroke-linecap: square"/>
     </g>
     <g id="line2d_2">
      <defs>
       <path id="m8371880074" d="M 0 0 
L 0 3.5 
" style="stroke: #000000; stroke-width: 0.8"/>
      </defs>
      <g>
       <use xlink:href="#m8371880074" x="126" y="315" style="stroke: #000000; stroke-width: 0.8"/>
      </g>
     </g>
     <g id="text_1">
      <!-- 0.0 -->
      <g transform="translate(113.2775 334.1575)scale(0.16 -0.16)">
       <defs>
        <path id="DejaVuSans-30" d="M 2034 4250 
Q 1547 4250 1301 3770 
Q 1056 3291 1056 2328 
Q 1056 1369 1301 889 
Q 1547 409 2034 409 
Q 2525 409 2770 889 
Q 3016 1369 3016 2328 
Q 3016 3291 2770 3770 
Q 2525 4250 2034 4250 
z
M 2034 4750 
Q 2819 4750 3233 4129 
Q 3647 3509 3647 2328 
Q 3647 1150 3233 529 
Q 2819 -91 2034 -91 
Q 1250 -91 836 529 
Q 422 1150 422 2328 
Q 422 3509 836 4129 
Q 1250 4750 2034 4750 
z
" transform="scale(0.015625)"/>
        <path id="DejaVuSans-2e" d="M 684 794 
L 1344 794 
L 1344 0 
L 684 0 
L 684 794 
z
" transform="scale(0.015625)"/>
       </defs>
       <use xlink:href="#DejaVuSans-30"/>
       <use xlink:href="#DejaVuSans-2e" x="63.623047"/>
       <use xlink:href="#DejaVuSans-30" x="95.410156"/>
      </g>
     </g>
    </g>
    <g id="xtick_2">
     <g id="line2d_3">
      <path d="M 214.772727 315 
L 214.772727 43.2 
" clip-path="url(#p5a0229574a)" style="fill: none; stroke: #b0b0b0; stroke-width: 0.8; stroke-linecap: square"/>
     </g>
     <g id="line2d_4">
      <g>
       <use xlink:href="#m8371880074" x="214.772727" y="315" style="stroke: #000000; stroke-width: 0.8"/>
      </g>
     </g>
     <g id="text_2">
      <!-- 0.5 -->
      <g transform="translate(202.050227 334.1575)scale(0.16 -0.16)">
       <defs>
        <path id="DejaVuSans-35" d="M 691 4666 
L 3169 4666 
L 3169 4134 
L 1269 4134 
L 1269 2991 
Q 1406 3038 1543 3061 
Q 1681 3084 1819 3084 
Q 2600 3084 3056 2656 
Q 3513 2228 3513 1497 
Q 3513 744 3044 326 
Q 2575 -91 1722 -91 
Q 1428 -91 1123 -41 
Q 819 9 494 109 
L 494 744 
Q 775 591 1075 516 
Q 1375 441 1709 441 
Q 2250 441 2565 725 
Q 2881 1009 2881 1497 
Q 2881 1984 2565 2268 
Q 2250 2553 1709 2553 
Q 1456 2553 1204 2497 
Q 953 2441 691 2322 
L 691 4666 
z
" transform="scale(0.015625)"/>
       </defs>
       <use xlink:href="#DejaVuSans-30"/>
       <use xlink:href="#DejaVuSans-2e" x="63.623047"/>
       <use xlink:href="#DejaVuSans-35" x="95.410156"/>
      </g>
     </g>
    </g>
    <g id="xtick_3">
     <g id="line2d_5">
      <path d="M 303.545455 315 
L 303.545455 43.2 
" clip-path="url(#p5a0229574a)" style="fill: none; stroke: #b0b0b0; stroke-width: 0.8; stroke-linecap: square"/>
     </g>
     <g id="line2d_6">
      <g>
       <use xlink:href="#m8371880074" x="303.545455" y="315" style="stroke: #000000; stroke-width: 0.8"/>
      </g>
     </g>
     <g id="text_3">
      <!-- 1.0 -->
      <g transform="translate(290.822955 334.1575)scale(0.16 -0.16)">
       <defs>
        <path id="DejaVuSans-31" d="M 794 531 
L 1825 531 
L 1825 4091 
L 703 3866 
L 703 4441 
L 1819 4666 
L 2450 4666 
L 2450 531 
L 3481 531 
L 3481 0 
L 794 0 
L 794 531 
z
" transform="scale(0.015625)"/>
       </defs>
       <use xlink:href="#DejaVuSans-31"/>
       <use xlink:href="#DejaVuSans-2e" x="63.623047"/>
       <use xlink:href="#DejaVuSans-30" x="95.410156"/>
      </g>
     </g>
    </g>
    <g id="xtick_4">
     <g id="line2d_7">
      <path d="M 392.318182 315 
L 392.318182 43.2 
" clip-path="url(#p5a0229574a)" style="fill: none; stroke: #b0b0b0; stroke-width: 0.8; stroke-linecap: square"/>
     </g>
     <g id="line2d_8">
      <g>
       <use xlink:href="#m8371880074" x="392.318182" y="315" style="stroke: #000000; stroke-width: 0.8"/>
      </g>
     </g>
     <g id="text_4">
      <!-- 1.5 -->
      <g transform="translate(379.595682 334.1575)scale(0.16 -0.16)">
       <use xlink:href="#DejaVuSans-31"/>
       <use xlink:href="#DejaVuSans-2e" x="63.623047"/>
       <use xlink:href="#DejaVuSans-35" x="95.410156"/>
      </g>
     </g>
    </g>
    <g id="xtick_5">
     <g id="line2d_9">
      <path d="M 481.090909 315 
L 481.090909 43.2 
" clip-path="url(#p5a0229574a)" style="fill: none; stroke: #b0b0b0; stroke-width: 0.8; stroke-linecap: square"/>
     </g>
     <g id="line2d_10">
      <g>
       <use xlink:href="#m8371880074" x="481.090909" y="315" style="stroke: #000000; stroke-width: 0.8"/>
      </g>
     </g>
     <g id="text_5">
      <!-- 2.0 -->
      <g transform="translate(468.368409 334.1575)scale(0.16 -0.16)">
       <defs>
        <path id="DejaVuSans-32" d="M 1228 531 
L 3431 531 
L 3431 0 
L 469 0 
L 469 531 
Q 828 903 1448 1529 
Q 2069 2156 2228 2338 
Q 2531 2678 2651 2914 
Q 2772 3150 2772 3378 
Q 2772 3750 2511 3984 
Q 2250 4219 1831 4219 
Q 1534 4219 1204 4116 
Q 875 4013 500 3803 
L 500 4441 
Q 881 4594 1212 4672 
Q 1544 4750 1819 4750 
Q 2544 4750 2975 4387 
Q 3406 4025 3406 3419 
Q 3406 3131 3298 2873 
Q 3191 2616 2906 2266 
Q 2828 2175 2409 1742 
Q 1991 1309 1228 531 
z
" transform="scale(0.015625)"/>
       </defs>
       <use xlink:href="#DejaVuSans-32"/>
       <use xlink:href="#DejaVuSans-2e" x="63.623047"/>
       <use xlink:href="#DejaVuSans-30" x="95.410156"/>
      </g>
     </g>
    </g>
    <g id="text_6">
     <!-- $\omega_n/\omega$  -->
     <g transform="translate(281.065455 353.6425)scale(0.16 -0.16)">
      <defs>
       <path id="DejaVuSans-Oblique-3c9" d="M 1369 -91 
Q 72 -91 434 1766 
Q 575 2500 1256 3500 
L 1875 3500 
Q 1231 2500 1088 1750 
Q 819 397 1519 397 
Q 2166 397 2478 2078 
L 3009 2078 
Q 2669 388 3316 397 
Q 4013 403 4275 1750 
Q 4419 2500 4169 3500 
L 4788 3500 
Q 5075 2500 4934 1766 
Q 4578 -94 3278 -91 
Q 2428 -88 2503 844 
Q 2194 -91 1369 -91 
z
" transform="scale(0.015625)"/>
       <path id="DejaVuSans-Oblique-6e" d="M 3566 2113 
L 3156 0 
L 2578 0 
L 2988 2091 
Q 3016 2238 3031 2350 
Q 3047 2463 3047 2528 
Q 3047 2791 2881 2937 
Q 2716 3084 2419 3084 
Q 1956 3084 1622 2776 
Q 1288 2469 1184 1941 
L 800 0 
L 225 0 
L 903 3500 
L 1478 3500 
L 1363 2950 
Q 1603 3253 1940 3418 
Q 2278 3584 2650 3584 
Q 3113 3584 3367 3334 
Q 3622 3084 3622 2631 
Q 3622 2519 3608 2391 
Q 3594 2263 3566 2113 
z
" transform="scale(0.015625)"/>
       <path id="DejaVuSans-2f" d="M 1625 4666 
L 2156 4666 
L 531 -594 
L 0 -594 
L 1625 4666 
z
" transform="scale(0.015625)"/>
       <path id="DejaVuSans-20" transform="scale(0.015625)"/>
      </defs>
      <use xlink:href="#DejaVuSans-Oblique-3c9" transform="translate(0 0.09375)"/>
      <use xlink:href="#DejaVuSans-Oblique-6e" transform="translate(83.740234 -16.3125)scale(0.7)"/>
      <use xlink:href="#DejaVuSans-2f" transform="translate(130.839844 0.09375)"/>
      <use xlink:href="#DejaVuSans-Oblique-3c9" transform="translate(164.53125 0.09375)"/>
      <use xlink:href="#DejaVuSans-20" transform="translate(248.271484 0.09375)"/>
     </g>
    </g>
   </g>
   <g id="matplotlib.axis_2">
    <g id="ytick_1">
     <g id="line2d_11">
      <path d="M 126 287.961121 
L 481.090909 287.961121 
" clip-path="url(#p5a0229574a)" style="fill: none; stroke: #b0b0b0; stroke-width: 0.8; stroke-linecap: square"/>
     </g>
     <g id="line2d_12">
      <defs>
       <path id="m2383e11c36" d="M 0 0 
L -3.5 0 
" style="stroke: #000000; stroke-width: 0.8"/>
      </defs>
      <g>
       <use xlink:href="#m2383e11c36" x="126" y="287.961121" style="stroke: #000000; stroke-width: 0.8"/>
      </g>
     </g>
     <g id="text_7">
      <!-- −2 -->
      <g transform="translate(95.4125 294.039871)scale(0.16 -0.16)">
       <defs>
        <path id="DejaVuSans-2212" d="M 678 2272 
L 4684 2272 
L 4684 1741 
L 678 1741 
L 678 2272 
z
" transform="scale(0.015625)"/>
       </defs>
       <use xlink:href="#DejaVuSans-2212"/>
       <use xlink:href="#DejaVuSans-32" x="83.789062"/>
      </g>
     </g>
    </g>
    <g id="ytick_2">
     <g id="line2d_13">
      <path d="M 126 249.242996 
L 481.090909 249.242996 
" clip-path="url(#p5a0229574a)" style="fill: none; stroke: #b0b0b0; stroke-width: 0.8; stroke-linecap: square"/>
     </g>
     <g id="line2d_14">
      <g>
       <use xlink:href="#m2383e11c36" x="126" y="249.242996" style="stroke: #000000; stroke-width: 0.8"/>
      </g>
     </g>
     <g id="text_8">
      <!-- 0 -->
      <g transform="translate(108.82 255.321746)scale(0.16 -0.16)">
       <use xlink:href="#DejaVuSans-30"/>
      </g>
     </g>
    </g>
    <g id="ytick_3">
     <g id="line2d_15">
      <path d="M 126 210.524871 
L 481.090909 210.524871 
" clip-path="url(#p5a0229574a)" style="fill: none; stroke: #b0b0b0; stroke-width: 0.8; stroke-linecap: square"/>
     </g>
     <g id="line2d_16">
      <g>
       <use xlink:href="#m2383e11c36" x="126" y="210.524871" style="stroke: #000000; stroke-width: 0.8"/>
      </g>
     </g>
     <g id="text_9">
      <!-- 2 -->
      <g transform="translate(108.82 216.603621)scale(0.16 -0.16)">
       <use xlink:href="#DejaVuSans-32"/>
      </g>
     </g>
    </g>
    <g id="ytick_4">
     <g id="line2d_17">
      <path d="M 126 171.806746 
L 481.090909 171.806746 
" clip-path="url(#p5a0229574a)" style="fill: none; stroke: #b0b0b0; stroke-width: 0.8; stroke-linecap: square"/>
     </g>
     <g id="line2d_18">
      <g>
       <use xlink:href="#m2383e11c36" x="126" y="171.806746" style="stroke: #000000; stroke-width: 0.8"/>
      </g>
     </g>
     <g id="text_10">
      <!-- 4 -->
      <g transform="translate(108.82 177.885496)scale(0.16 -0.16)">
       <defs>
        <path id="DejaVuSans-34" d="M 2419 4116 
L 825 1625 
L 2419 1625 
L 2419 4116 
z
M 2253 4666 
L 3047 4666 
L 3047 1625 
L 3713 1625 
L 3713 1100 
L 3047 1100 
L 3047 0 
L 2419 0 
L 2419 1100 
L 313 1100 
L 313 1709 
L 2253 4666 
z
" transform="scale(0.015625)"/>
       </defs>
       <use xlink:href="#DejaVuSans-34"/>
      </g>
     </g>
    </g>
    <g id="ytick_5">
     <g id="line2d_19">
      <path d="M 126 133.088621 
L 481.090909 133.088621 
" clip-path="url(#p5a0229574a)" style="fill: none; stroke: #b0b0b0; stroke-width: 0.8; stroke-linecap: square"/>
     </g>
     <g id="line2d_20">
      <g>
       <use xlink:href="#m2383e11c36" x="126" y="133.088621" style="stroke: #000000; stroke-width: 0.8"/>
      </g>
     </g>
     <g id="text_11">
      <!-- 6 -->
      <g transform="translate(108.82 139.167371)scale(0.16 -0.16)">
       <defs>
        <path id="DejaVuSans-36" d="M 2113 2584 
Q 1688 2584 1439 2293 
Q 1191 2003 1191 1497 
Q 1191 994 1439 701 
Q 1688 409 2113 409 
Q 2538 409 2786 701 
Q 3034 994 3034 1497 
Q 3034 2003 2786 2293 
Q 2538 2584 2113 2584 
z
M 3366 4563 
L 3366 3988 
Q 3128 4100 2886 4159 
Q 2644 4219 2406 4219 
Q 1781 4219 1451 3797 
Q 1122 3375 1075 2522 
Q 1259 2794 1537 2939 
Q 1816 3084 2150 3084 
Q 2853 3084 3261 2657 
Q 3669 2231 3669 1497 
Q 3669 778 3244 343 
Q 2819 -91 2113 -91 
Q 1303 -91 875 529 
Q 447 1150 447 2328 
Q 447 3434 972 4092 
Q 1497 4750 2381 4750 
Q 2619 4750 2861 4703 
Q 3103 4656 3366 4563 
z
" transform="scale(0.015625)"/>
       </defs>
       <use xlink:href="#DejaVuSans-36"/>
      </g>
     </g>
    </g>
    <g id="ytick_6">
     <g id="line2d_21">
      <path d="M 126 94.370496 
L 481.090909 94.370496 
" clip-path="url(#p5a0229574a)" style="fill: none; stroke: #b0b0b0; stroke-width: 0.8; stroke-linecap: square"/>
     </g>
     <g id="line2d_22">
      <g>
       <use xlink:href="#m2383e11c36" x="126" y="94.370496" style="stroke: #000000; stroke-width: 0.8"/>
      </g>
     </g>
     <g id="text_12">
      <!-- 8 -->
      <g transform="translate(108.82 100.449246)scale(0.16 -0.16)">
       <defs>
        <path id="DejaVuSans-38" d="M 2034 2216 
Q 1584 2216 1326 1975 
Q 1069 1734 1069 1313 
Q 1069 891 1326 650 
Q 1584 409 2034 409 
Q 2484 409 2743 651 
Q 3003 894 3003 1313 
Q 3003 1734 2745 1975 
Q 2488 2216 2034 2216 
z
M 1403 2484 
Q 997 2584 770 2862 
Q 544 3141 544 3541 
Q 544 4100 942 4425 
Q 1341 4750 2034 4750 
Q 2731 4750 3128 4425 
Q 3525 4100 3525 3541 
Q 3525 3141 3298 2862 
Q 3072 2584 2669 2484 
Q 3125 2378 3379 2068 
Q 3634 1759 3634 1313 
Q 3634 634 3220 271 
Q 2806 -91 2034 -91 
Q 1263 -91 848 271 
Q 434 634 434 1313 
Q 434 1759 690 2068 
Q 947 2378 1403 2484 
z
M 1172 3481 
Q 1172 3119 1398 2916 
Q 1625 2713 2034 2713 
Q 2441 2713 2670 2916 
Q 2900 3119 2900 3481 
Q 2900 3844 2670 4047 
Q 2441 4250 2034 4250 
Q 1625 4250 1398 4047 
Q 1172 3844 1172 3481 
z
" transform="scale(0.015625)"/>
       </defs>
       <use xlink:href="#DejaVuSans-38"/>
      </g>
     </g>
    </g>
    <g id="ytick_7">
     <g id="line2d_23">
      <path d="M 126 55.652371 
L 481.090909 55.652371 
" clip-path="url(#p5a0229574a)" style="fill: none; stroke: #b0b0b0; stroke-width: 0.8; stroke-linecap: square"/>
     </g>
     <g id="line2d_24">
      <g>
       <use xlink:href="#m2383e11c36" x="126" y="55.652371" style="stroke: #000000; stroke-width: 0.8"/>
      </g>
     </g>
     <g id="text_13">
      <!-- 10 -->
      <g transform="translate(98.64 61.731121)scale(0.16 -0.16)">
       <use xlink:href="#DejaVuSans-31"/>
       <use xlink:href="#DejaVuSans-30" x="63.623047"/>
      </g>
     </g>
    </g>
    <g id="text_14">
     <!-- Constante dielectrica, $\varepsilon = \varepsilon'+ \varepsilon''$ -->
     <g transform="translate(88.085 307.82)rotate(-90)scale(0.16 -0.16)">
      <defs>
       <path id="DejaVuSans-43" d="M 4122 4306 
L 4122 3641 
Q 3803 3938 3442 4084 
Q 3081 4231 2675 4231 
Q 1875 4231 1450 3742 
Q 1025 3253 1025 2328 
Q 1025 1406 1450 917 
Q 1875 428 2675 428 
Q 3081 428 3442 575 
Q 3803 722 4122 1019 
L 4122 359 
Q 3791 134 3420 21 
Q 3050 -91 2638 -91 
Q 1578 -91 968 557 
Q 359 1206 359 2328 
Q 359 3453 968 4101 
Q 1578 4750 2638 4750 
Q 3056 4750 3426 4639 
Q 3797 4528 4122 4306 
z
" transform="scale(0.015625)"/>
       <path id="DejaVuSans-6f" d="M 1959 3097 
Q 1497 3097 1228 2736 
Q 959 2375 959 1747 
Q 959 1119 1226 758 
Q 1494 397 1959 397 
Q 2419 397 2687 759 
Q 2956 1122 2956 1747 
Q 2956 2369 2687 2733 
Q 2419 3097 1959 3097 
z
M 1959 3584 
Q 2709 3584 3137 3096 
Q 3566 2609 3566 1747 
Q 3566 888 3137 398 
Q 2709 -91 1959 -91 
Q 1206 -91 779 398 
Q 353 888 353 1747 
Q 353 2609 779 3096 
Q 1206 3584 1959 3584 
z
" transform="scale(0.015625)"/>
       <path id="DejaVuSans-6e" d="M 3513 2113 
L 3513 0 
L 2938 0 
L 2938 2094 
Q 2938 2591 2744 2837 
Q 2550 3084 2163 3084 
Q 1697 3084 1428 2787 
Q 1159 2491 1159 1978 
L 1159 0 
L 581 0 
L 581 3500 
L 1159 3500 
L 1159 2956 
Q 1366 3272 1645 3428 
Q 1925 3584 2291 3584 
Q 2894 3584 3203 3211 
Q 3513 2838 3513 2113 
z
" transform="scale(0.015625)"/>
       <path id="DejaVuSans-73" d="M 2834 3397 
L 2834 2853 
Q 2591 2978 2328 3040 
Q 2066 3103 1784 3103 
Q 1356 3103 1142 2972 
Q 928 2841 928 2578 
Q 928 2378 1081 2264 
Q 1234 2150 1697 2047 
L 1894 2003 
Q 2506 1872 2764 1633 
Q 3022 1394 3022 966 
Q 3022 478 2636 193 
Q 2250 -91 1575 -91 
Q 1294 -91 989 -36 
Q 684 19 347 128 
L 347 722 
Q 666 556 975 473 
Q 1284 391 1588 391 
Q 1994 391 2212 530 
Q 2431 669 2431 922 
Q 2431 1156 2273 1281 
Q 2116 1406 1581 1522 
L 1381 1569 
Q 847 1681 609 1914 
Q 372 2147 372 2553 
Q 372 3047 722 3315 
Q 1072 3584 1716 3584 
Q 2034 3584 2315 3537 
Q 2597 3491 2834 3397 
z
" transform="scale(0.015625)"/>
       <path id="DejaVuSans-74" d="M 1172 4494 
L 1172 3500 
L 2356 3500 
L 2356 3053 
L 1172 3053 
L 1172 1153 
Q 1172 725 1289 603 
Q 1406 481 1766 481 
L 2356 481 
L 2356 0 
L 1766 0 
Q 1100 0 847 248 
Q 594 497 594 1153 
L 594 3053 
L 172 3053 
L 172 3500 
L 594 3500 
L 594 4494 
L 1172 4494 
z
" transform="scale(0.015625)"/>
       <path id="DejaVuSans-61" d="M 2194 1759 
Q 1497 1759 1228 1600 
Q 959 1441 959 1056 
Q 959 750 1161 570 
Q 1363 391 1709 391 
Q 2188 391 2477 730 
Q 2766 1069 2766 1631 
L 2766 1759 
L 2194 1759 
z
M 3341 1997 
L 3341 0 
L 2766 0 
L 2766 531 
Q 2569 213 2275 61 
Q 1981 -91 1556 -91 
Q 1019 -91 701 211 
Q 384 513 384 1019 
Q 384 1609 779 1909 
Q 1175 2209 1959 2209 
L 2766 2209 
L 2766 2266 
Q 2766 2663 2505 2880 
Q 2244 3097 1772 3097 
Q 1472 3097 1187 3025 
Q 903 2953 641 2809 
L 641 3341 
Q 956 3463 1253 3523 
Q 1550 3584 1831 3584 
Q 2591 3584 2966 3190 
Q 3341 2797 3341 1997 
z
" transform="scale(0.015625)"/>
       <path id="DejaVuSans-65" d="M 3597 1894 
L 3597 1613 
L 953 1613 
Q 991 1019 1311 708 
Q 1631 397 2203 397 
Q 2534 397 2845 478 
Q 3156 559 3463 722 
L 3463 178 
Q 3153 47 2828 -22 
Q 2503 -91 2169 -91 
Q 1331 -91 842 396 
Q 353 884 353 1716 
Q 353 2575 817 3079 
Q 1281 3584 2069 3584 
Q 2775 3584 3186 3129 
Q 3597 2675 3597 1894 
z
M 3022 2063 
Q 3016 2534 2758 2815 
Q 2500 3097 2075 3097 
Q 1594 3097 1305 2825 
Q 1016 2553 972 2059 
L 3022 2063 
z
" transform="scale(0.015625)"/>
       <path id="DejaVuSans-64" d="M 2906 2969 
L 2906 4863 
L 3481 4863 
L 3481 0 
L 2906 0 
L 2906 525 
Q 2725 213 2448 61 
Q 2172 -91 1784 -91 
Q 1150 -91 751 415 
Q 353 922 353 1747 
Q 353 2572 751 3078 
Q 1150 3584 1784 3584 
Q 2172 3584 2448 3432 
Q 2725 3281 2906 2969 
z
M 947 1747 
Q 947 1113 1208 752 
Q 1469 391 1925 391 
Q 2381 391 2643 752 
Q 2906 1113 2906 1747 
Q 2906 2381 2643 2742 
Q 2381 3103 1925 3103 
Q 1469 3103 1208 2742 
Q 947 2381 947 1747 
z
" transform="scale(0.015625)"/>
       <path id="DejaVuSans-69" d="M 603 3500 
L 1178 3500 
L 1178 0 
L 603 0 
L 603 3500 
z
M 603 4863 
L 1178 4863 
L 1178 4134 
L 603 4134 
L 603 4863 
z
" transform="scale(0.015625)"/>
       <path id="DejaVuSans-6c" d="M 603 4863 
L 1178 4863 
L 1178 0 
L 603 0 
L 603 4863 
z
" transform="scale(0.015625)"/>
       <path id="DejaVuSans-63" d="M 3122 3366 
L 3122 2828 
Q 2878 2963 2633 3030 
Q 2388 3097 2138 3097 
Q 1578 3097 1268 2742 
Q 959 2388 959 1747 
Q 959 1106 1268 751 
Q 1578 397 2138 397 
Q 2388 397 2633 464 
Q 2878 531 3122 666 
L 3122 134 
Q 2881 22 2623 -34 
Q 2366 -91 2075 -91 
Q 1284 -91 818 406 
Q 353 903 353 1747 
Q 353 2603 823 3093 
Q 1294 3584 2113 3584 
Q 2378 3584 2631 3529 
Q 2884 3475 3122 3366 
z
" transform="scale(0.015625)"/>
       <path id="DejaVuSans-72" d="M 2631 2963 
Q 2534 3019 2420 3045 
Q 2306 3072 2169 3072 
Q 1681 3072 1420 2755 
Q 1159 2438 1159 1844 
L 1159 0 
L 581 0 
L 581 3500 
L 1159 3500 
L 1159 2956 
Q 1341 3275 1631 3429 
Q 1922 3584 2338 3584 
Q 2397 3584 2469 3576 
Q 2541 3569 2628 3553 
L 2631 2963 
z
" transform="scale(0.015625)"/>
       <path id="DejaVuSans-2c" d="M 750 794 
L 1409 794 
L 1409 256 
L 897 -744 
L 494 -744 
L 750 256 
L 750 794 
z
" transform="scale(0.015625)"/>
       <path id="DejaVuSans-Oblique-3b5" d="M 1263 1888 
Q 925 1963 778 2166 
Q 669 2309 669 2503 
Q 669 3034 1175 3344 
Q 1575 3588 2188 3588 
Q 2425 3588 2684 3550 
Q 2944 3513 3234 3438 
L 3134 2916 
Q 2847 3006 2606 3047 
Q 2359 3088 2138 3088 
Q 1766 3088 1522 2944 
Q 1228 2772 1228 2522 
Q 1228 2356 1381 2241 
Q 1563 2103 1925 2103 
L 2409 2103 
L 2319 1628 
L 1856 1628 
Q 1425 1628 1172 1469 
Q 828 1253 828 916 
Q 828 703 1013 563 
Q 1244 388 1716 388 
Q 2006 388 2284 444 
Q 2563 503 2806 619 
L 2700 84 
Q 2403 -3 2131 -47 
Q 1859 -91 1609 -91 
Q 866 -91 516 194 
Q 250 413 250 781 
Q 250 1278 600 1584 
Q 859 1813 1263 1888 
z
" transform="scale(0.015625)"/>
       <path id="DejaVuSans-3d" d="M 678 2906 
L 4684 2906 
L 4684 2381 
L 678 2381 
L 678 2906 
z
M 678 1631 
L 4684 1631 
L 4684 1100 
L 678 1100 
L 678 1631 
z
" transform="scale(0.015625)"/>
       <path id="Cmsy10-30" d="M 225 347 
Q 184 359 184 409 
L 966 3316 
Q 1003 3434 1093 3506 
Q 1184 3578 1300 3578 
Q 1450 3578 1564 3479 
Q 1678 3381 1678 3231 
Q 1678 3166 1644 3084 
L 488 319 
Q 466 275 428 275 
Q 394 275 320 306 
Q 247 338 225 347 
z
" transform="scale(0.015625)"/>
       <path id="DejaVuSans-2b" d="M 2944 4013 
L 2944 2272 
L 4684 2272 
L 4684 1741 
L 2944 1741 
L 2944 0 
L 2419 0 
L 2419 1741 
L 678 1741 
L 678 2272 
L 2419 2272 
L 2419 4013 
L 2944 4013 
z
" transform="scale(0.015625)"/>
      </defs>
      <use xlink:href="#DejaVuSans-43" transform="translate(0 0.584375)"/>
      <use xlink:href="#DejaVuSans-6f" transform="translate(69.824219 0.584375)"/>
      <use xlink:href="#DejaVuSans-6e" transform="translate(131.005859 0.584375)"/>
      <use xlink:href="#DejaVuSans-73" transform="translate(194.384766 0.584375)"/>
      <use xlink:href="#DejaVuSans-74" transform="translate(246.484375 0.584375)"/>
      <use xlink:href="#DejaVuSans-61" transform="translate(285.693359 0.584375)"/>
      <use xlink:href="#DejaVuSans-6e" transform="translate(346.972656 0.584375)"/>
      <use xlink:href="#DejaVuSans-74" transform="translate(410.351562 0.584375)"/>
      <use xlink:href="#DejaVuSans-65" transform="translate(449.560547 0.584375)"/>
      <use xlink:href="#DejaVuSans-20" transform="translate(511.083984 0.584375)"/>
      <use xlink:href="#DejaVuSans-64" transform="translate(542.871094 0.584375)"/>
      <use xlink:href="#DejaVuSans-69" transform="translate(606.347656 0.584375)"/>
      <use xlink:href="#DejaVuSans-65" transform="translate(634.130859 0.584375)"/>
      <use xlink:href="#DejaVuSans-6c" transform="translate(695.654297 0.584375)"/>
      <use xlink:href="#DejaVuSans-65" transform="translate(723.4375 0.584375)"/>
      <use xlink:href="#DejaVuSans-63" transform="translate(784.960938 0.584375)"/>
      <use xlink:href="#DejaVuSans-74" transform="translate(839.941406 0.584375)"/>
      <use xlink:href="#DejaVuSans-72" transform="translate(879.150391 0.584375)"/>
      <use xlink:href="#DejaVuSans-69" transform="translate(920.263672 0.584375)"/>
      <use xlink:href="#DejaVuSans-63" transform="translate(948.046875 0.584375)"/>
      <use xlink:href="#DejaVuSans-61" transform="translate(1003.027344 0.584375)"/>
      <use xlink:href="#DejaVuSans-2c" transform="translate(1064.306641 0.584375)"/>
      <use xlink:href="#DejaVuSans-20" transform="translate(1096.09375 0.584375)"/>
      <use xlink:href="#DejaVuSans-Oblique-3b5" transform="translate(1127.880859 0.584375)"/>
      <use xlink:href="#DejaVuSans-3d" transform="translate(1201.416016 0.584375)"/>
      <use xlink:href="#DejaVuSans-Oblique-3b5" transform="translate(1304.6875 0.584375)"/>
      <use xlink:href="#Cmsy10-30" transform="translate(1363.39888 38.865625)scale(0.7)"/>
      <use xlink:href="#DejaVuSans-2b" transform="translate(1404.858841 0.584375)"/>
      <use xlink:href="#DejaVuSans-Oblique-3b5" transform="translate(1508.130326 0.584375)"/>
      <use xlink:href="#Cmsy10-30" transform="translate(1566.841706 38.865625)scale(0.7)"/>
      <use xlink:href="#Cmsy10-30" transform="translate(1586.08487 38.865625)scale(0.7)"/>
     </g>
    </g>
   </g>
   <g id="line2d_25">
    <path d="M 126.177545 210.52489 
L 139.504118 210.637511 
L 152.83069 210.977204 
L 165.268825 211.520067 
L 176.818521 212.250748 
L 187.479779 213.158348 
L 196.364161 214.124154 
L 204.360104 215.19409 
L 211.467609 216.341257 
L 218.575115 217.716486 
L 224.794182 219.151359 
L 230.124811 220.593651 
L 235.45544 222.277056 
L 239.897631 223.904545 
L 244.339821 225.781443 
L 247.893574 227.499258 
L 251.447327 229.447943 
L 255.001079 231.672803 
L 257.666394 233.556686 
L 260.331708 235.657862 
L 262.997023 238.012589 
L 265.662337 240.664942 
L 268.327652 243.668676 
L 270.992966 247.08937 
L 273.658281 251.006653 
L 275.435157 253.940455 
L 277.212034 257.169042 
L 278.98891 260.726784 
L 280.765786 264.648561 
L 282.542663 268.965898 
L 284.319539 273.699261 
L 286.984853 281.55413 
L 292.315482 298.029423 
L 293.203921 300.174639 
L 294.092359 301.791832 
L 294.980797 302.645455 
L 295.869235 302.438781 
L 296.757673 300.813149 
L 297.646111 297.359814 
L 298.53455 291.65271 
L 299.422988 283.309972 
L 300.311426 272.085923 
L 301.199864 257.98071 
L 302.97674 222.856436 
L 305.642055 166.936453 
L 306.530493 151.450985 
L 307.418931 138.545822 
L 308.307369 128.325551 
L 309.195808 120.643418 
L 310.084246 115.201348 
L 310.972684 111.637355 
L 311.861122 109.586858 
L 312.74956 108.717998 
L 313.637998 108.747221 
L 314.526437 109.442322 
L 315.414875 110.618722 
L 316.303313 112.132845 
L 318.080189 115.761697 
L 324.299256 129.448873 
L 326.964571 134.621213 
L 329.629885 139.218025 
L 332.2952 143.274966 
L 334.960514 146.851825 
L 337.625829 150.011593 
L 340.291143 152.812484 
L 342.956458 155.305464 
L 345.621772 157.534059 
L 349.175525 160.156925 
L 352.729278 162.445839 
L 356.28303 164.457498 
L 359.836783 166.237127 
L 364.278974 168.190009 
L 368.721165 169.892693 
L 374.051794 171.666318 
L 379.382423 173.19994 
L 385.60149 174.744167 
L 392.708995 176.249823 
L 400.704939 177.682453 
L 409.58932 179.020512 
L 419.36214 180.252765 
L 430.023398 181.375609 
L 442.461532 182.46155 
L 456.676543 183.478457 
L 473.556868 184.454691 
L 493.102508 185.355303 
L 516.2019 186.191525 
L 543.743483 186.961387 
L 577.504133 187.674189 
L 619.260727 188.322326 
L 671.678579 188.902381 
L 739.19988 189.415459 
L 828.932134 189.861662 
L 952.425039 190.239361 
L 1009 190.35901 
L 1009 190.35901 
" clip-path="url(#p5a0229574a)" style="fill: none; stroke: #0000ff; stroke-width: 1.5; stroke-linecap: square"/>
   </g>
   <g id="line2d_26">
    <path d="M 126.177545 249.242996 
L 188.368217 249.133966 
L 211.467609 248.878551 
L 225.68262 248.517211 
L 235.45544 248.074307 
L 243.451383 247.495154 
L 249.67045 246.818717 
L 254.112641 246.147464 
L 258.554832 245.244038 
L 262.108585 244.283764 
L 264.773899 243.372762 
L 267.439214 242.244112 
L 270.104528 240.829018 
L 271.881405 239.680269 
L 273.658281 238.323902 
L 275.435157 236.710991 
L 277.212034 234.778265 
L 278.98891 232.443127 
L 280.765786 229.596754 
L 282.542663 226.094538 
L 284.319539 221.742954 
L 286.096415 216.281944 
L 287.873292 209.362577 
L 288.76173 205.216511 
L 289.650168 200.522311 
L 290.538606 195.201486 
L 291.427044 189.16786 
L 292.315482 182.329863 
L 293.203921 174.595244 
L 294.980797 156.119892 
L 296.757673 133.462357 
L 301.199864 70.832857 
L 302.088302 62.319313 
L 302.97674 57.063761 
L 303.865179 55.554545 
L 304.753617 57.856004 
L 305.642055 63.600769 
L 306.530493 72.097309 
L 308.307369 93.977316 
L 310.972684 128.627794 
L 312.74956 148.570364 
L 314.526437 165.07433 
L 316.303313 178.404598 
L 318.080189 189.08927 
L 319.857066 197.664387 
L 321.633942 204.587456 
L 323.410818 210.222818 
L 325.187695 214.852128 
L 326.964571 218.690698 
L 328.741447 221.902851 
L 330.518324 224.614433 
L 332.2952 226.922421 
L 334.072076 228.902121 
L 335.848952 230.612499 
L 337.625829 232.100117 
L 340.291143 233.99294 
L 342.956458 235.562329 
L 345.621772 236.878557 
L 349.175525 238.328161 
L 352.729278 239.509384 
L 357.171468 240.703503 
L 361.613659 241.662861 
L 366.944288 242.586194 
L 373.163355 243.43456 
L 381.159299 244.270953 
L 390.043681 244.970546 
L 401.593377 245.64198 
L 415.808387 246.232727 
L 434.465589 246.769545 
L 459.341857 247.244497 
L 493.990946 247.662467 
L 543.743483 248.020742 
L 620.149165 248.327505 
L 745.418947 248.584959 
L 970.193803 248.797507 
L 1009 248.820435 
L 1009 248.820435 
" clip-path="url(#p5a0229574a)" style="fill: none; stroke: #ff0000; stroke-width: 1.5; stroke-linecap: square"/>
   </g>
   <g id="patch_3">
    <path d="M 126 315 
L 126 43.2 
" style="fill: none; stroke: #000000; stroke-width: 0.8; stroke-linejoin: miter; stroke-linecap: square"/>
   </g>
   <g id="patch_4">
    <path d="M 481.090909 315 
L 481.090909 43.2 
" style="fill: none; stroke: #000000; stroke-width: 0.8; stroke-linejoin: miter; stroke-linecap: square"/>
   </g>
   <g id="patch_5">
    <path d="M 126 315 
L 481.090909 315 
" style="fill: none; stroke: #000000; stroke-width: 0.8; stroke-linejoin: miter; stroke-linecap: square"/>
   </g>
   <g id="patch_6">
    <path d="M 126 43.2 
L 481.090909 43.2 
" style="fill: none; stroke: #000000; stroke-width: 0.8; stroke-linejoin: miter; stroke-linecap: square"/>
   </g>
   <g id="legend_1">
    <g id="line2d_27">
     <path d="M 405.890909 64.1575 
L 421.890909 64.1575 
L 437.890909 64.1575 
" style="fill: none; stroke: #0000ff; stroke-width: 1.5; stroke-linecap: square"/>
    </g>
    <g id="text_15">
     <!-- $\varepsilon'$ -->
     <g transform="translate(450.690909 69.7575)scale(0.16 -0.16)">
      <use xlink:href="#DejaVuSans-Oblique-3b5" transform="translate(0 0.584375)"/>
      <use xlink:href="#Cmsy10-30" transform="translate(58.71138 38.865625)scale(0.7)"/>
     </g>
    </g>
    <g id="line2d_28">
     <path d="M 405.890909 87.6425 
L 421.890909 87.6425 
L 437.890909 87.6425 
" style="fill: none; stroke: #ff0000; stroke-width: 1.5; stroke-linecap: square"/>
    </g>
    <g id="text_16">
     <!-- $\varepsilon''$ -->
     <g transform="translate(450.690909 93.2425)scale(0.16 -0.16)">
      <use xlink:href="#DejaVuSans-Oblique-3b5" transform="translate(0 0.584375)"/>
      <use xlink:href="#Cmsy10-30" transform="translate(58.71138 38.865625)scale(0.7)"/>
      <use xlink:href="#Cmsy10-30" transform="translate(77.954544 38.865625)scale(0.7)"/>
     </g>
    </g>
   </g>
  </g>
  <g id="axes_2">
   <g id="patch_7">
    <path d="M 552.109091 315 
L 907.2 315 
L 907.2 43.2 
L 552.109091 43.2 
z
" style="fill: #ffffff"/>
   </g>
   <g id="matplotlib.axis_3">
    <g id="xtick_6">
     <g id="line2d_29">
      <path d="M 552.109091 315 
L 552.109091 43.2 
" clip-path="url(#p4839f71dde)" style="fill: none; stroke: #b0b0b0; stroke-width: 0.8; stroke-linecap: square"/>
     </g>
     <g id="line2d_30">
      <g>
       <use xlink:href="#m8371880074" x="552.109091" y="315" style="stroke: #000000; stroke-width: 0.8"/>
      </g>
     </g>
     <g id="text_17">
      <!-- 0.0 -->
      <g transform="translate(539.386591 334.1575)scale(0.16 -0.16)">
       <use xlink:href="#DejaVuSans-30"/>
       <use xlink:href="#DejaVuSans-2e" x="63.623047"/>
       <use xlink:href="#DejaVuSans-30" x="95.410156"/>
      </g>
     </g>
    </g>
    <g id="xtick_7">
     <g id="line2d_31">
      <path d="M 640.881818 315 
L 640.881818 43.2 
" clip-path="url(#p4839f71dde)" style="fill: none; stroke: #b0b0b0; stroke-width: 0.8; stroke-linecap: square"/>
     </g>
     <g id="line2d_32">
      <g>
       <use xlink:href="#m8371880074" x="640.881818" y="315" style="stroke: #000000; stroke-width: 0.8"/>
      </g>
     </g>
     <g id="text_18">
      <!-- 0.5 -->
      <g transform="translate(628.159318 334.1575)scale(0.16 -0.16)">
       <use xlink:href="#DejaVuSans-30"/>
       <use xlink:href="#DejaVuSans-2e" x="63.623047"/>
       <use xlink:href="#DejaVuSans-35" x="95.410156"/>
      </g>
     </g>
    </g>
    <g id="xtick_8">
     <g id="line2d_33">
      <path d="M 729.654545 315 
L 729.654545 43.2 
" clip-path="url(#p4839f71dde)" style="fill: none; stroke: #b0b0b0; stroke-width: 0.8; stroke-linecap: square"/>
     </g>
     <g id="line2d_34">
      <g>
       <use xlink:href="#m8371880074" x="729.654545" y="315" style="stroke: #000000; stroke-width: 0.8"/>
      </g>
     </g>
     <g id="text_19">
      <!-- 1.0 -->
      <g transform="translate(716.932045 334.1575)scale(0.16 -0.16)">
       <use xlink:href="#DejaVuSans-31"/>
       <use xlink:href="#DejaVuSans-2e" x="63.623047"/>
       <use xlink:href="#DejaVuSans-30" x="95.410156"/>
      </g>
     </g>
    </g>
    <g id="xtick_9">
     <g id="line2d_35">
      <path d="M 818.427273 315 
L 818.427273 43.2 
" clip-path="url(#p4839f71dde)" style="fill: none; stroke: #b0b0b0; stroke-width: 0.8; stroke-linecap: square"/>
     </g>
     <g id="line2d_36">
      <g>
       <use xlink:href="#m8371880074" x="818.427273" y="315" style="stroke: #000000; stroke-width: 0.8"/>
      </g>
     </g>
     <g id="text_20">
      <!-- 1.5 -->
      <g transform="translate(805.704773 334.1575)scale(0.16 -0.16)">
       <use xlink:href="#DejaVuSans-31"/>
       <use xlink:href="#DejaVuSans-2e" x="63.623047"/>
       <use xlink:href="#DejaVuSans-35" x="95.410156"/>
      </g>
     </g>
    </g>
    <g id="xtick_10">
     <g id="line2d_37">
      <path d="M 907.2 315 
L 907.2 43.2 
" clip-path="url(#p4839f71dde)" style="fill: none; stroke: #b0b0b0; stroke-width: 0.8; stroke-linecap: square"/>
     </g>
     <g id="line2d_38">
      <g>
       <use xlink:href="#m8371880074" x="907.2" y="315" style="stroke: #000000; stroke-width: 0.8"/>
      </g>
     </g>
     <g id="text_21">
      <!-- 2.0 -->
      <g transform="translate(894.4775 334.1575)scale(0.16 -0.16)">
       <use xlink:href="#DejaVuSans-32"/>
       <use xlink:href="#DejaVuSans-2e" x="63.623047"/>
       <use xlink:href="#DejaVuSans-30" x="95.410156"/>
      </g>
     </g>
    </g>
    <g id="text_22">
     <!-- $\omega_n/\omega$  -->
     <g transform="translate(707.174545 353.6425)scale(0.16 -0.16)">
      <use xlink:href="#DejaVuSans-Oblique-3c9" transform="translate(0 0.09375)"/>
      <use xlink:href="#DejaVuSans-Oblique-6e" transform="translate(83.740234 -16.3125)scale(0.7)"/>
      <use xlink:href="#DejaVuSans-2f" transform="translate(130.839844 0.09375)"/>
      <use xlink:href="#DejaVuSans-Oblique-3c9" transform="translate(164.53125 0.09375)"/>
      <use xlink:href="#DejaVuSans-20" transform="translate(248.271484 0.09375)"/>
     </g>
    </g>
   </g>
   <g id="matplotlib.axis_4">
    <g id="ytick_8">
     <g id="line2d_39">
      <path d="M 552.109091 302.645455 
L 907.2 302.645455 
" clip-path="url(#p4839f71dde)" style="fill: none; stroke: #b0b0b0; stroke-width: 0.8; stroke-linecap: square"/>
     </g>
     <g id="line2d_40">
      <g>
       <use xlink:href="#m2383e11c36" x="552.109091" y="302.645455" style="stroke: #000000; stroke-width: 0.8"/>
      </g>
     </g>
     <g id="text_23">
      <!-- 0.0 -->
      <g transform="translate(519.664091 308.724205)scale(0.16 -0.16)">
       <use xlink:href="#DejaVuSans-30"/>
       <use xlink:href="#DejaVuSans-2e" x="63.623047"/>
       <use xlink:href="#DejaVuSans-30" x="95.410156"/>
      </g>
     </g>
    </g>
    <g id="ytick_9">
     <g id="line2d_41">
      <path d="M 552.109091 259.804458 
L 907.2 259.804458 
" clip-path="url(#p4839f71dde)" style="fill: none; stroke: #b0b0b0; stroke-width: 0.8; stroke-linecap: square"/>
     </g>
     <g id="line2d_42">
      <g>
       <use xlink:href="#m2383e11c36" x="552.109091" y="259.804458" style="stroke: #000000; stroke-width: 0.8"/>
      </g>
     </g>
     <g id="text_24">
      <!-- 0.5 -->
      <g transform="translate(519.664091 265.883208)scale(0.16 -0.16)">
       <use xlink:href="#DejaVuSans-30"/>
       <use xlink:href="#DejaVuSans-2e" x="63.623047"/>
       <use xlink:href="#DejaVuSans-35" x="95.410156"/>
      </g>
     </g>
    </g>
    <g id="ytick_10">
     <g id="line2d_43">
      <path d="M 552.109091 216.963462 
L 907.2 216.963462 
" clip-path="url(#p4839f71dde)" style="fill: none; stroke: #b0b0b0; stroke-width: 0.8; stroke-linecap: square"/>
     </g>
     <g id="line2d_44">
      <g>
       <use xlink:href="#m2383e11c36" x="552.109091" y="216.963462" style="stroke: #000000; stroke-width: 0.8"/>
      </g>
     </g>
     <g id="text_25">
      <!-- 1.0 -->
      <g transform="translate(519.664091 223.042212)scale(0.16 -0.16)">
       <use xlink:href="#DejaVuSans-31"/>
       <use xlink:href="#DejaVuSans-2e" x="63.623047"/>
       <use xlink:href="#DejaVuSans-30" x="95.410156"/>
      </g>
     </g>
    </g>
    <g id="ytick_11">
     <g id="line2d_45">
      <path d="M 552.109091 174.122465 
L 907.2 174.122465 
" clip-path="url(#p4839f71dde)" style="fill: none; stroke: #b0b0b0; stroke-width: 0.8; stroke-linecap: square"/>
     </g>
     <g id="line2d_46">
      <g>
       <use xlink:href="#m2383e11c36" x="552.109091" y="174.122465" style="stroke: #000000; stroke-width: 0.8"/>
      </g>
     </g>
     <g id="text_26">
      <!-- 1.5 -->
      <g transform="translate(519.664091 180.201215)scale(0.16 -0.16)">
       <use xlink:href="#DejaVuSans-31"/>
       <use xlink:href="#DejaVuSans-2e" x="63.623047"/>
       <use xlink:href="#DejaVuSans-35" x="95.410156"/>
      </g>
     </g>
    </g>
    <g id="ytick_12">
     <g id="line2d_47">
      <path d="M 552.109091 131.281469 
L 907.2 131.281469 
" clip-path="url(#p4839f71dde)" style="fill: none; stroke: #b0b0b0; stroke-width: 0.8; stroke-linecap: square"/>
     </g>
     <g id="line2d_48">
      <g>
       <use xlink:href="#m2383e11c36" x="552.109091" y="131.281469" style="stroke: #000000; stroke-width: 0.8"/>
      </g>
     </g>
     <g id="text_27">
      <!-- 2.0 -->
      <g transform="translate(519.664091 137.360219)scale(0.16 -0.16)">
       <use xlink:href="#DejaVuSans-32"/>
       <use xlink:href="#DejaVuSans-2e" x="63.623047"/>
       <use xlink:href="#DejaVuSans-30" x="95.410156"/>
      </g>
     </g>
    </g>
    <g id="ytick_13">
     <g id="line2d_49">
      <path d="M 552.109091 88.440472 
L 907.2 88.440472 
" clip-path="url(#p4839f71dde)" style="fill: none; stroke: #b0b0b0; stroke-width: 0.8; stroke-linecap: square"/>
     </g>
     <g id="line2d_50">
      <g>
       <use xlink:href="#m2383e11c36" x="552.109091" y="88.440472" style="stroke: #000000; stroke-width: 0.8"/>
      </g>
     </g>
     <g id="text_28">
      <!-- 2.5 -->
      <g transform="translate(519.664091 94.519222)scale(0.16 -0.16)">
       <use xlink:href="#DejaVuSans-32"/>
       <use xlink:href="#DejaVuSans-2e" x="63.623047"/>
       <use xlink:href="#DejaVuSans-35" x="95.410156"/>
      </g>
     </g>
    </g>
    <g id="ytick_14">
     <g id="line2d_51">
      <path d="M 552.109091 45.599475 
L 907.2 45.599475 
" clip-path="url(#p4839f71dde)" style="fill: none; stroke: #b0b0b0; stroke-width: 0.8; stroke-linecap: square"/>
     </g>
     <g id="line2d_52">
      <g>
       <use xlink:href="#m2383e11c36" x="552.109091" y="45.599475" style="stroke: #000000; stroke-width: 0.8"/>
      </g>
     </g>
     <g id="text_29">
      <!-- 3.0 -->
      <g transform="translate(519.664091 51.678225)scale(0.16 -0.16)">
       <defs>
        <path id="DejaVuSans-33" d="M 2597 2516 
Q 3050 2419 3304 2112 
Q 3559 1806 3559 1356 
Q 3559 666 3084 287 
Q 2609 -91 1734 -91 
Q 1441 -91 1130 -33 
Q 819 25 488 141 
L 488 750 
Q 750 597 1062 519 
Q 1375 441 1716 441 
Q 2309 441 2620 675 
Q 2931 909 2931 1356 
Q 2931 1769 2642 2001 
Q 2353 2234 1838 2234 
L 1294 2234 
L 1294 2753 
L 1863 2753 
Q 2328 2753 2575 2939 
Q 2822 3125 2822 3475 
Q 2822 3834 2567 4026 
Q 2313 4219 1838 4219 
Q 1578 4219 1281 4162 
Q 984 4106 628 3988 
L 628 4550 
Q 988 4650 1302 4700 
Q 1616 4750 1894 4750 
Q 2613 4750 3031 4423 
Q 3450 4097 3450 3541 
Q 3450 3153 3228 2886 
Q 3006 2619 2597 2516 
z
" transform="scale(0.015625)"/>
       </defs>
       <use xlink:href="#DejaVuSans-33"/>
       <use xlink:href="#DejaVuSans-2e" x="63.623047"/>
       <use xlink:href="#DejaVuSans-30" x="95.410156"/>
      </g>
     </g>
    </g>
    <g id="text_30">
     <!-- Indice de refracción, $N = n + i\kappa$ -->
     <g transform="translate(512.336591 301.18)rotate(-90)scale(0.16 -0.16)">
      <defs>
       <path id="DejaVuSans-49" d="M 628 4666 
L 1259 4666 
L 1259 0 
L 628 0 
L 628 4666 
z
" transform="scale(0.015625)"/>
       <path id="DejaVuSans-66" d="M 2375 4863 
L 2375 4384 
L 1825 4384 
Q 1516 4384 1395 4259 
Q 1275 4134 1275 3809 
L 1275 3500 
L 2222 3500 
L 2222 3053 
L 1275 3053 
L 1275 0 
L 697 0 
L 697 3053 
L 147 3053 
L 147 3500 
L 697 3500 
L 697 3744 
Q 697 4328 969 4595 
Q 1241 4863 1831 4863 
L 2375 4863 
z
" transform="scale(0.015625)"/>
       <path id="DejaVuSans-f3" d="M 1959 3097 
Q 1497 3097 1228 2736 
Q 959 2375 959 1747 
Q 959 1119 1226 758 
Q 1494 397 1959 397 
Q 2419 397 2687 759 
Q 2956 1122 2956 1747 
Q 2956 2369 2687 2733 
Q 2419 3097 1959 3097 
z
M 1959 3584 
Q 2709 3584 3137 3096 
Q 3566 2609 3566 1747 
Q 3566 888 3137 398 
Q 2709 -91 1959 -91 
Q 1206 -91 779 398 
Q 353 888 353 1747 
Q 353 2609 779 3096 
Q 1206 3584 1959 3584 
z
M 2394 5119 
L 3016 5119 
L 1997 3944 
L 1519 3944 
L 2394 5119 
z
" transform="scale(0.015625)"/>
       <path id="DejaVuSans-Oblique-4e" d="M 1081 4666 
L 1931 4666 
L 3219 666 
L 4000 4666 
L 4616 4666 
L 3706 0 
L 2853 0 
L 1569 4025 
L 788 0 
L 172 0 
L 1081 4666 
z
" transform="scale(0.015625)"/>
       <path id="DejaVuSans-Oblique-69" d="M 1172 4863 
L 1747 4863 
L 1606 4134 
L 1031 4134 
L 1172 4863 
z
M 909 3500 
L 1484 3500 
L 800 0 
L 225 0 
L 909 3500 
z
" transform="scale(0.015625)"/>
       <path id="DejaVuSans-Oblique-3ba" d="M 938 3500 
L 1531 3500 
L 1247 2047 
L 3041 3500 
L 3741 3500 
L 2106 2181 
L 3275 0 
L 2572 0 
L 1628 1806 
L 1122 1403 
L 850 0 
L 256 0 
L 938 3500 
z
" transform="scale(0.015625)"/>
      </defs>
      <use xlink:href="#DejaVuSans-49" transform="translate(0 0.015625)"/>
      <use xlink:href="#DejaVuSans-6e" transform="translate(29.492188 0.015625)"/>
      <use xlink:href="#DejaVuSans-64" transform="translate(92.871094 0.015625)"/>
      <use xlink:href="#DejaVuSans-69" transform="translate(156.347656 0.015625)"/>
      <use xlink:href="#DejaVuSans-63" transform="translate(184.130859 0.015625)"/>
      <use xlink:href="#DejaVuSans-65" transform="translate(239.111328 0.015625)"/>
      <use xlink:href="#DejaVuSans-20" transform="translate(300.634766 0.015625)"/>
      <use xlink:href="#DejaVuSans-64" transform="translate(332.421875 0.015625)"/>
      <use xlink:href="#DejaVuSans-65" transform="translate(395.898438 0.015625)"/>
      <use xlink:href="#DejaVuSans-20" transform="translate(457.421875 0.015625)"/>
      <use xlink:href="#DejaVuSans-72" transform="translate(489.208984 0.015625)"/>
      <use xlink:href="#DejaVuSans-65" transform="translate(530.322266 0.015625)"/>
      <use xlink:href="#DejaVuSans-66" transform="translate(591.845703 0.015625)"/>
      <use xlink:href="#DejaVuSans-72" transform="translate(627.050781 0.015625)"/>
      <use xlink:href="#DejaVuSans-61" transform="translate(668.164062 0.015625)"/>
      <use xlink:href="#DejaVuSans-63" transform="translate(729.443359 0.015625)"/>
      <use xlink:href="#DejaVuSans-63" transform="translate(784.423828 0.015625)"/>
      <use xlink:href="#DejaVuSans-69" transform="translate(839.404297 0.015625)"/>
      <use xlink:href="#DejaVuSans-f3" transform="translate(867.1875 0.015625)"/>
      <use xlink:href="#DejaVuSans-6e" transform="translate(928.369141 0.015625)"/>
      <use xlink:href="#DejaVuSans-2c" transform="translate(991.748047 0.015625)"/>
      <use xlink:href="#DejaVuSans-20" transform="translate(1023.535156 0.015625)"/>
      <use xlink:href="#DejaVuSans-Oblique-4e" transform="translate(1055.322266 0.015625)"/>
      <use xlink:href="#DejaVuSans-3d" transform="translate(1149.609375 0.015625)"/>
      <use xlink:href="#DejaVuSans-Oblique-6e" transform="translate(1252.880859 0.015625)"/>
      <use xlink:href="#DejaVuSans-2b" transform="translate(1335.742188 0.015625)"/>
      <use xlink:href="#DejaVuSans-Oblique-69" transform="translate(1439.013672 0.015625)"/>
      <use xlink:href="#DejaVuSans-Oblique-3ba" transform="translate(1466.796875 0.015625)"/>
     </g>
    </g>
   </g>
   <g id="line2d_53">
    <path d="M 552.286636 181.472848 
L 562.947894 181.586188 
L 573.609152 181.924429 
L 583.381972 182.446356 
L 593.154792 183.194492 
L 602.039174 184.100402 
L 610.035117 185.131894 
L 617.142622 186.252799 
L 624.250128 187.603775 
L 630.469195 189.013089 
L 635.799824 190.424339 
L 641.130453 192.061099 
L 645.572644 193.630857 
L 650.014835 195.424608 
L 654.457025 197.487058 
L 658.010778 199.368907 
L 661.564531 201.497507 
L 665.118283 203.920956 
L 667.783598 205.968558 
L 670.448912 208.249095 
L 673.114227 210.802867 
L 675.779541 213.67998 
L 678.444856 216.943235 
L 681.11017 220.671643 
L 682.887047 223.463522 
L 684.663923 226.53993 
L 686.440799 229.938305 
L 688.217676 233.695314 
L 689.994552 237.836371 
L 692.659867 244.720971 
L 696.213619 254.157986 
L 697.990495 257.997888 
L 698.878934 259.488702 
L 699.767372 260.659625 
L 700.65581 261.512479 
L 701.544248 262.062601 
L 702.432686 262.331135 
L 703.321124 262.339437 
L 704.209563 262.105866 
L 705.098001 261.644333 
L 705.986439 260.963857 
L 706.874877 260.068603 
L 707.763315 258.958074 
L 708.651753 257.627306 
L 709.540192 256.066968 
L 710.42863 254.26336 
L 711.317068 252.198281 
L 713.093944 247.186829 
L 714.870821 240.785174 
L 716.647697 232.649287 
L 718.424573 222.325797 
L 720.20145 209.258376 
L 721.978326 192.854973 
L 723.755202 172.696406 
L 725.532079 148.98323 
L 729.085831 98.232953 
L 729.974269 87.247268 
L 730.862708 77.77022 
L 731.751146 70.028429 
L 732.639584 64.088081 
L 733.528022 59.872456 
L 734.41646 57.202912 
L 735.304898 55.846134 
L 736.193337 55.554545 
L 737.081775 56.094036 
L 737.970213 57.259116 
L 738.858651 58.878485 
L 740.635527 62.959934 
L 748.631471 83.21299 
L 751.296785 88.913222 
L 753.9621 93.957599 
L 756.627414 98.409602 
L 759.292729 102.344013 
L 761.958043 105.83233 
L 764.623358 108.937911 
L 767.288672 111.71507 
L 769.953987 114.20969 
L 772.619301 116.460315 
L 776.173054 119.136757 
L 779.726807 121.499222 
L 783.280559 123.59791 
L 786.834312 125.473214 
L 791.276503 127.552545 
L 795.718694 129.384849 
L 801.049323 131.313754 
L 806.379952 132.999144 
L 812.599019 134.713371 
L 818.818086 136.204815 
L 825.925591 137.686889 
L 833.921535 139.123901 
L 842.805916 140.4908 
L 852.578736 141.771722 
L 864.128432 143.048602 
L 876.566567 144.19949 
L 890.781577 145.294936 
L 907.661903 146.363377 
L 927.207542 147.364288 
L 949.418496 148.27493 
L 976.071641 149.137256 
L 1008.055415 149.937031 
L 1009 149.957592 
L 1009 149.957592 
" clip-path="url(#p4839f71dde)" style="fill: none; stroke: #0000ff; stroke-width: 1.5; stroke-linecap: square"/>
   </g>
   <g id="line2d_54">
    <path d="M 552.286636 302.645455 
L 606.481364 302.536783 
L 627.80388 302.274627 
L 641.130453 301.902147 
L 650.903273 301.411385 
L 658.010778 300.843444 
L 663.341407 300.224803 
L 667.783598 299.515356 
L 671.337351 298.762782 
L 674.891103 297.773994 
L 677.556418 296.815485 
L 680.221732 295.59705 
L 681.998609 294.591369 
L 683.775485 293.381664 
L 685.552361 291.90777 
L 687.329238 290.085319 
L 689.106114 287.794257 
L 690.88299 284.86357 
L 691.771428 283.087406 
L 692.659867 281.058157 
L 693.548305 278.738677 
L 694.436743 276.094068 
L 696.213619 269.742366 
L 697.990495 262.033978 
L 700.65581 248.75821 
L 705.098001 224.953693 
L 709.540192 200.046619 
L 713.093944 178.835971 
L 716.647697 156.253228 
L 720.20145 133.385655 
L 721.978326 123.126594 
L 722.866764 118.768132 
L 723.755202 115.205424 
L 724.64364 112.695224 
L 725.532079 111.514441 
L 726.420517 111.931214 
L 727.308955 114.162187 
L 728.197393 118.322341 
L 729.085831 124.381388 
L 729.974269 132.144629 
L 731.751146 151.324151 
L 735.304898 192.454837 
L 737.081775 209.885752 
L 738.858651 224.338314 
L 740.635527 236.060908 
L 742.412404 245.507118 
L 744.18928 253.134573 
L 745.966156 259.333789 
L 747.743033 264.415941 
L 749.519909 268.621815 
L 751.296785 272.135756 
L 753.073662 275.098753 
L 754.850538 277.619072 
L 756.627414 279.780418 
L 758.404291 281.648035 
L 760.181167 283.273221 
L 762.846482 285.34317 
L 765.511796 287.062264 
L 768.177111 288.506972 
L 770.842425 289.733992 
L 774.396178 291.103728 
L 777.94993 292.23601 
L 782.392121 293.397472 
L 787.72275 294.513016 
L 793.053379 295.405243 
L 800.160885 296.345019 
L 808.156828 297.160282 
L 817.929648 297.918626 
L 829.479344 298.588466 
L 844.582793 299.225841 
L 863.239994 299.781553 
L 888.116263 300.288423 
L 921.876913 300.738871 
L 969.852574 301.137535 
L 1009 301.352082 
L 1009 301.352082 
" clip-path="url(#p4839f71dde)" style="fill: none; stroke: #ff0000; stroke-width: 1.5; stroke-linecap: square"/>
   </g>
   <g id="patch_8">
    <path d="M 552.109091 315 
L 552.109091 43.2 
" style="fill: none; stroke: #000000; stroke-width: 0.8; stroke-linejoin: miter; stroke-linecap: square"/>
   </g>
   <g id="patch_9">
    <path d="M 907.2 315 
L 907.2 43.2 
" style="fill: none; stroke: #000000; stroke-width: 0.8; stroke-linejoin: miter; stroke-linecap: square"/>
   </g>
   <g id="patch_10">
    <path d="M 552.109091 315 
L 907.2 315 
" style="fill: none; stroke: #000000; stroke-width: 0.8; stroke-linejoin: miter; stroke-linecap: square"/>
   </g>
   <g id="patch_11">
    <path d="M 552.109091 43.2 
L 907.2 43.2 
" style="fill: none; stroke: #000000; stroke-width: 0.8; stroke-linejoin: miter; stroke-linecap: square"/>
   </g>
   <g id="legend_2">
    <g id="line2d_55">
     <path d="M 837.76 64.1575 
L 853.76 64.1575 
L 869.76 64.1575 
" style="fill: none; stroke: #0000ff; stroke-width: 1.5; stroke-linecap: square"/>
    </g>
    <g id="text_31">
     <!-- $n$ -->
     <g transform="translate(882.56 69.7575)scale(0.16 -0.16)">
      <use xlink:href="#DejaVuSans-Oblique-6e"/>
     </g>
    </g>
    <g id="line2d_56">
     <path d="M 837.76 87.6425 
L 853.76 87.6425 
L 869.76 87.6425 
" style="fill: none; stroke: #ff0000; stroke-width: 1.5; stroke-linecap: square"/>
    </g>
    <g id="text_32">
     <!-- $\kappa$ -->
     <g transform="translate(882.56 93.2425)scale(0.16 -0.16)">
      <use xlink:href="#DejaVuSans-Oblique-3ba" transform="translate(0 0.3125)"/>
     </g>
    </g>
   </g>
  </g>
 </g>
 <defs>
  <clipPath id="p5a0229574a">
   <rect x="126" y="43.2" width="355.090909" height="271.8"/>
  </clipPath>
  <clipPath id="p4839f71dde">
   <rect x="552.109091" y="43.2" width="355.090909" height="271.8"/>
  </clipPath>
 </defs>
</svg>
