<?xml version="1.0" encoding="utf-8" standalone="no"?>
<!DOCTYPE svg PUBLIC "-//W3C//DTD SVG 1.1//EN"
  "http://www.w3.org/Graphics/SVG/1.1/DTD/svg11.dtd">
<svg xmlns:xlink="http://www.w3.org/1999/xlink" width="1008pt" height="360pt" viewBox="0 0 1008 360" xmlns="http://www.w3.org/2000/svg" version="1.1">
 <metadata>
  <rdf:RDF xmlns:dc="http://purl.org/dc/elements/1.1/" xmlns:cc="http://creativecommons.org/ns#" xmlns:rdf="http://www.w3.org/1999/02/22-rdf-syntax-ns#">
   <cc:Work>
    <dc:type rdf:resource="http://purl.org/dc/dcmitype/StillImage"/>
    <dc:date>2022-08-24T22:01:17.502660</dc:date>
    <dc:format>image/svg+xml</dc:format>
    <dc:creator>
     <cc:Agent>
      <dc:title>Matplotlib v3.5.2, https://matplotlib.org/</dc:title>
     </cc:Agent>
    </dc:creator>
   </cc:Work>
  </rdf:RDF>
 </metadata>
 <defs>
  <style type="text/css">*{stroke-linejoin: round; stroke-linecap: butt}</style>
 </defs>
 <g id="figure_1">
  <g id="patch_1">
   <path d="M 0 360 
L 1008 360 
L 1008 0 
L 0 0 
L 0 360 
z
" style="fill: none"/>
  </g>
  <g id="axes_1">
   <g id="patch_2">
    <path d="M 126 315 
L 481.090909 315 
L 481.090909 43.2 
L 126 43.2 
z
" style="fill: #ffffff"/>
   </g>
   <g id="matplotlib.axis_1">
    <g id="xtick_1">
     <g id="line2d_1">
      <path d="M 126 315 
L 126 43.2 
" clip-path="url(#pebb52f584c)" style="fill: none; stroke: #b0b0b0; stroke-width: 0.8; stroke-linecap: square"/>
     </g>
     <g id="line2d_2">
      <defs>
       <path id="md0e95e1039" d="M 0 0 
L 0 3.5 
" style="stroke: #000000; stroke-width: 0.8"/>
      </defs>
      <g>
       <use xlink:href="#md0e95e1039" x="126" y="315" style="stroke: #000000; stroke-width: 0.8"/>
      </g>
     </g>
     <g id="text_1">
      <!-- 0 -->
      <g transform="translate(120.91 334.1575)scale(0.16 -0.16)">
       <defs>
        <path id="DejaVuSans-30" d="M 2034 4250 
Q 1547 4250 1301 3770 
Q 1056 3291 1056 2328 
Q 1056 1369 1301 889 
Q 1547 409 2034 409 
Q 2525 409 2770 889 
Q 3016 1369 3016 2328 
Q 3016 3291 2770 3770 
Q 2525 4250 2034 4250 
z
M 2034 4750 
Q 2819 4750 3233 4129 
Q 3647 3509 3647 2328 
Q 3647 1150 3233 529 
Q 2819 -91 2034 -91 
Q 1250 -91 836 529 
Q 422 1150 422 2328 
Q 422 3509 836 4129 
Q 1250 4750 2034 4750 
z
" transform="scale(0.015625)"/>
       </defs>
       <use xlink:href="#DejaVuSans-30"/>
      </g>
     </g>
    </g>
    <g id="xtick_2">
     <g id="line2d_3">
      <path d="M 185.181818 315 
L 185.181818 43.2 
" clip-path="url(#pebb52f584c)" style="fill: none; stroke: #b0b0b0; stroke-width: 0.8; stroke-linecap: square"/>
     </g>
     <g id="line2d_4">
      <g>
       <use xlink:href="#md0e95e1039" x="185.181818" y="315" style="stroke: #000000; stroke-width: 0.8"/>
      </g>
     </g>
     <g id="text_2">
      <!-- 5 -->
      <g transform="translate(180.091818 334.1575)scale(0.16 -0.16)">
       <defs>
        <path id="DejaVuSans-35" d="M 691 4666 
L 3169 4666 
L 3169 4134 
L 1269 4134 
L 1269 2991 
Q 1406 3038 1543 3061 
Q 1681 3084 1819 3084 
Q 2600 3084 3056 2656 
Q 3513 2228 3513 1497 
Q 3513 744 3044 326 
Q 2575 -91 1722 -91 
Q 1428 -91 1123 -41 
Q 819 9 494 109 
L 494 744 
Q 775 591 1075 516 
Q 1375 441 1709 441 
Q 2250 441 2565 725 
Q 2881 1009 2881 1497 
Q 2881 1984 2565 2268 
Q 2250 2553 1709 2553 
Q 1456 2553 1204 2497 
Q 953 2441 691 2322 
L 691 4666 
z
" transform="scale(0.015625)"/>
       </defs>
       <use xlink:href="#DejaVuSans-35"/>
      </g>
     </g>
    </g>
    <g id="xtick_3">
     <g id="line2d_5">
      <path d="M 244.363636 315 
L 244.363636 43.2 
" clip-path="url(#pebb52f584c)" style="fill: none; stroke: #b0b0b0; stroke-width: 0.8; stroke-linecap: square"/>
     </g>
     <g id="line2d_6">
      <g>
       <use xlink:href="#md0e95e1039" x="244.363636" y="315" style="stroke: #000000; stroke-width: 0.8"/>
      </g>
     </g>
     <g id="text_3">
      <!-- 10 -->
      <g transform="translate(234.183636 334.1575)scale(0.16 -0.16)">
       <defs>
        <path id="DejaVuSans-31" d="M 794 531 
L 1825 531 
L 1825 4091 
L 703 3866 
L 703 4441 
L 1819 4666 
L 2450 4666 
L 2450 531 
L 3481 531 
L 3481 0 
L 794 0 
L 794 531 
z
" transform="scale(0.015625)"/>
       </defs>
       <use xlink:href="#DejaVuSans-31"/>
       <use xlink:href="#DejaVuSans-30" x="63.623047"/>
      </g>
     </g>
    </g>
    <g id="xtick_4">
     <g id="line2d_7">
      <path d="M 303.545455 315 
L 303.545455 43.2 
" clip-path="url(#pebb52f584c)" style="fill: none; stroke: #b0b0b0; stroke-width: 0.8; stroke-linecap: square"/>
     </g>
     <g id="line2d_8">
      <g>
       <use xlink:href="#md0e95e1039" x="303.545455" y="315" style="stroke: #000000; stroke-width: 0.8"/>
      </g>
     </g>
     <g id="text_4">
      <!-- 15 -->
      <g transform="translate(293.365455 334.1575)scale(0.16 -0.16)">
       <use xlink:href="#DejaVuSans-31"/>
       <use xlink:href="#DejaVuSans-35" x="63.623047"/>
      </g>
     </g>
    </g>
    <g id="xtick_5">
     <g id="line2d_9">
      <path d="M 362.727273 315 
L 362.727273 43.2 
" clip-path="url(#pebb52f584c)" style="fill: none; stroke: #b0b0b0; stroke-width: 0.8; stroke-linecap: square"/>
     </g>
     <g id="line2d_10">
      <g>
       <use xlink:href="#md0e95e1039" x="362.727273" y="315" style="stroke: #000000; stroke-width: 0.8"/>
      </g>
     </g>
     <g id="text_5">
      <!-- 20 -->
      <g transform="translate(352.547273 334.1575)scale(0.16 -0.16)">
       <defs>
        <path id="DejaVuSans-32" d="M 1228 531 
L 3431 531 
L 3431 0 
L 469 0 
L 469 531 
Q 828 903 1448 1529 
Q 2069 2156 2228 2338 
Q 2531 2678 2651 2914 
Q 2772 3150 2772 3378 
Q 2772 3750 2511 3984 
Q 2250 4219 1831 4219 
Q 1534 4219 1204 4116 
Q 875 4013 500 3803 
L 500 4441 
Q 881 4594 1212 4672 
Q 1544 4750 1819 4750 
Q 2544 4750 2975 4387 
Q 3406 4025 3406 3419 
Q 3406 3131 3298 2873 
Q 3191 2616 2906 2266 
Q 2828 2175 2409 1742 
Q 1991 1309 1228 531 
z
" transform="scale(0.015625)"/>
       </defs>
       <use xlink:href="#DejaVuSans-32"/>
       <use xlink:href="#DejaVuSans-30" x="63.623047"/>
      </g>
     </g>
    </g>
    <g id="xtick_6">
     <g id="line2d_11">
      <path d="M 421.909091 315 
L 421.909091 43.2 
" clip-path="url(#pebb52f584c)" style="fill: none; stroke: #b0b0b0; stroke-width: 0.8; stroke-linecap: square"/>
     </g>
     <g id="line2d_12">
      <g>
       <use xlink:href="#md0e95e1039" x="421.909091" y="315" style="stroke: #000000; stroke-width: 0.8"/>
      </g>
     </g>
     <g id="text_6">
      <!-- 25 -->
      <g transform="translate(411.729091 334.1575)scale(0.16 -0.16)">
       <use xlink:href="#DejaVuSans-32"/>
       <use xlink:href="#DejaVuSans-35" x="63.623047"/>
      </g>
     </g>
    </g>
    <g id="xtick_7">
     <g id="line2d_13">
      <path d="M 481.090909 315 
L 481.090909 43.2 
" clip-path="url(#pebb52f584c)" style="fill: none; stroke: #b0b0b0; stroke-width: 0.8; stroke-linecap: square"/>
     </g>
     <g id="line2d_14">
      <g>
       <use xlink:href="#md0e95e1039" x="481.090909" y="315" style="stroke: #000000; stroke-width: 0.8"/>
      </g>
     </g>
     <g id="text_7">
      <!-- 30 -->
      <g transform="translate(470.910909 334.1575)scale(0.16 -0.16)">
       <defs>
        <path id="DejaVuSans-33" d="M 2597 2516 
Q 3050 2419 3304 2112 
Q 3559 1806 3559 1356 
Q 3559 666 3084 287 
Q 2609 -91 1734 -91 
Q 1441 -91 1130 -33 
Q 819 25 488 141 
L 488 750 
Q 750 597 1062 519 
Q 1375 441 1716 441 
Q 2309 441 2620 675 
Q 2931 909 2931 1356 
Q 2931 1769 2642 2001 
Q 2353 2234 1838 2234 
L 1294 2234 
L 1294 2753 
L 1863 2753 
Q 2328 2753 2575 2939 
Q 2822 3125 2822 3475 
Q 2822 3834 2567 4026 
Q 2313 4219 1838 4219 
Q 1578 4219 1281 4162 
Q 984 4106 628 3988 
L 628 4550 
Q 988 4650 1302 4700 
Q 1616 4750 1894 4750 
Q 2613 4750 3031 4423 
Q 3450 4097 3450 3541 
Q 3450 3153 3228 2886 
Q 3006 2619 2597 2516 
z
" transform="scale(0.015625)"/>
       </defs>
       <use xlink:href="#DejaVuSans-33"/>
       <use xlink:href="#DejaVuSans-30" x="63.623047"/>
      </g>
     </g>
    </g>
    <g id="text_8">
     <!-- Longitud de onda, $\lambda$ ($\mu$m) -->
     <g transform="translate(201.945455 353.645)scale(0.16 -0.16)">
      <defs>
       <path id="DejaVuSans-4c" d="M 628 4666 
L 1259 4666 
L 1259 531 
L 3531 531 
L 3531 0 
L 628 0 
L 628 4666 
z
" transform="scale(0.015625)"/>
       <path id="DejaVuSans-6f" d="M 1959 3097 
Q 1497 3097 1228 2736 
Q 959 2375 959 1747 
Q 959 1119 1226 758 
Q 1494 397 1959 397 
Q 2419 397 2687 759 
Q 2956 1122 2956 1747 
Q 2956 2369 2687 2733 
Q 2419 3097 1959 3097 
z
M 1959 3584 
Q 2709 3584 3137 3096 
Q 3566 2609 3566 1747 
Q 3566 888 3137 398 
Q 2709 -91 1959 -91 
Q 1206 -91 779 398 
Q 353 888 353 1747 
Q 353 2609 779 3096 
Q 1206 3584 1959 3584 
z
" transform="scale(0.015625)"/>
       <path id="DejaVuSans-6e" d="M 3513 2113 
L 3513 0 
L 2938 0 
L 2938 2094 
Q 2938 2591 2744 2837 
Q 2550 3084 2163 3084 
Q 1697 3084 1428 2787 
Q 1159 2491 1159 1978 
L 1159 0 
L 581 0 
L 581 3500 
L 1159 3500 
L 1159 2956 
Q 1366 3272 1645 3428 
Q 1925 3584 2291 3584 
Q 2894 3584 3203 3211 
Q 3513 2838 3513 2113 
z
" transform="scale(0.015625)"/>
       <path id="DejaVuSans-67" d="M 2906 1791 
Q 2906 2416 2648 2759 
Q 2391 3103 1925 3103 
Q 1463 3103 1205 2759 
Q 947 2416 947 1791 
Q 947 1169 1205 825 
Q 1463 481 1925 481 
Q 2391 481 2648 825 
Q 2906 1169 2906 1791 
z
M 3481 434 
Q 3481 -459 3084 -895 
Q 2688 -1331 1869 -1331 
Q 1566 -1331 1297 -1286 
Q 1028 -1241 775 -1147 
L 775 -588 
Q 1028 -725 1275 -790 
Q 1522 -856 1778 -856 
Q 2344 -856 2625 -561 
Q 2906 -266 2906 331 
L 2906 616 
Q 2728 306 2450 153 
Q 2172 0 1784 0 
Q 1141 0 747 490 
Q 353 981 353 1791 
Q 353 2603 747 3093 
Q 1141 3584 1784 3584 
Q 2172 3584 2450 3431 
Q 2728 3278 2906 2969 
L 2906 3500 
L 3481 3500 
L 3481 434 
z
" transform="scale(0.015625)"/>
       <path id="DejaVuSans-69" d="M 603 3500 
L 1178 3500 
L 1178 0 
L 603 0 
L 603 3500 
z
M 603 4863 
L 1178 4863 
L 1178 4134 
L 603 4134 
L 603 4863 
z
" transform="scale(0.015625)"/>
       <path id="DejaVuSans-74" d="M 1172 4494 
L 1172 3500 
L 2356 3500 
L 2356 3053 
L 1172 3053 
L 1172 1153 
Q 1172 725 1289 603 
Q 1406 481 1766 481 
L 2356 481 
L 2356 0 
L 1766 0 
Q 1100 0 847 248 
Q 594 497 594 1153 
L 594 3053 
L 172 3053 
L 172 3500 
L 594 3500 
L 594 4494 
L 1172 4494 
z
" transform="scale(0.015625)"/>
       <path id="DejaVuSans-75" d="M 544 1381 
L 544 3500 
L 1119 3500 
L 1119 1403 
Q 1119 906 1312 657 
Q 1506 409 1894 409 
Q 2359 409 2629 706 
Q 2900 1003 2900 1516 
L 2900 3500 
L 3475 3500 
L 3475 0 
L 2900 0 
L 2900 538 
Q 2691 219 2414 64 
Q 2138 -91 1772 -91 
Q 1169 -91 856 284 
Q 544 659 544 1381 
z
M 1991 3584 
L 1991 3584 
z
" transform="scale(0.015625)"/>
       <path id="DejaVuSans-64" d="M 2906 2969 
L 2906 4863 
L 3481 4863 
L 3481 0 
L 2906 0 
L 2906 525 
Q 2725 213 2448 61 
Q 2172 -91 1784 -91 
Q 1150 -91 751 415 
Q 353 922 353 1747 
Q 353 2572 751 3078 
Q 1150 3584 1784 3584 
Q 2172 3584 2448 3432 
Q 2725 3281 2906 2969 
z
M 947 1747 
Q 947 1113 1208 752 
Q 1469 391 1925 391 
Q 2381 391 2643 752 
Q 2906 1113 2906 1747 
Q 2906 2381 2643 2742 
Q 2381 3103 1925 3103 
Q 1469 3103 1208 2742 
Q 947 2381 947 1747 
z
" transform="scale(0.015625)"/>
       <path id="DejaVuSans-20" transform="scale(0.015625)"/>
       <path id="DejaVuSans-65" d="M 3597 1894 
L 3597 1613 
L 953 1613 
Q 991 1019 1311 708 
Q 1631 397 2203 397 
Q 2534 397 2845 478 
Q 3156 559 3463 722 
L 3463 178 
Q 3153 47 2828 -22 
Q 2503 -91 2169 -91 
Q 1331 -91 842 396 
Q 353 884 353 1716 
Q 353 2575 817 3079 
Q 1281 3584 2069 3584 
Q 2775 3584 3186 3129 
Q 3597 2675 3597 1894 
z
M 3022 2063 
Q 3016 2534 2758 2815 
Q 2500 3097 2075 3097 
Q 1594 3097 1305 2825 
Q 1016 2553 972 2059 
L 3022 2063 
z
" transform="scale(0.015625)"/>
       <path id="DejaVuSans-61" d="M 2194 1759 
Q 1497 1759 1228 1600 
Q 959 1441 959 1056 
Q 959 750 1161 570 
Q 1363 391 1709 391 
Q 2188 391 2477 730 
Q 2766 1069 2766 1631 
L 2766 1759 
L 2194 1759 
z
M 3341 1997 
L 3341 0 
L 2766 0 
L 2766 531 
Q 2569 213 2275 61 
Q 1981 -91 1556 -91 
Q 1019 -91 701 211 
Q 384 513 384 1019 
Q 384 1609 779 1909 
Q 1175 2209 1959 2209 
L 2766 2209 
L 2766 2266 
Q 2766 2663 2505 2880 
Q 2244 3097 1772 3097 
Q 1472 3097 1187 3025 
Q 903 2953 641 2809 
L 641 3341 
Q 956 3463 1253 3523 
Q 1550 3584 1831 3584 
Q 2591 3584 2966 3190 
Q 3341 2797 3341 1997 
z
" transform="scale(0.015625)"/>
       <path id="DejaVuSans-2c" d="M 750 794 
L 1409 794 
L 1409 256 
L 897 -744 
L 494 -744 
L 750 256 
L 750 794 
z
" transform="scale(0.015625)"/>
       <path id="DejaVuSans-Oblique-3bb" d="M 2350 4316 
L 3125 0 
L 2516 0 
L 2038 2588 
L 328 0 
L -281 0 
L 1903 3356 
L 1794 3975 
Q 1725 4369 1391 4369 
L 1091 4369 
L 1184 4863 
L 1550 4856 
Q 2253 4847 2350 4316 
z
" transform="scale(0.015625)"/>
       <path id="DejaVuSans-28" d="M 1984 4856 
Q 1566 4138 1362 3434 
Q 1159 2731 1159 2009 
Q 1159 1288 1364 580 
Q 1569 -128 1984 -844 
L 1484 -844 
Q 1016 -109 783 600 
Q 550 1309 550 2009 
Q 550 2706 781 3412 
Q 1013 4119 1484 4856 
L 1984 4856 
z
" transform="scale(0.015625)"/>
       <path id="DejaVuSans-Oblique-3bc" d="M -84 -1331 
L 856 3500 
L 1434 3500 
L 1009 1322 
Q 997 1256 987 1175 
Q 978 1094 978 1013 
Q 978 722 1161 565 
Q 1344 409 1684 409 
Q 2147 409 2431 671 
Q 2716 934 2816 1459 
L 3213 3500 
L 3788 3500 
L 3266 809 
Q 3253 750 3248 706 
Q 3244 663 3244 628 
Q 3244 531 3283 486 
Q 3322 441 3406 441 
Q 3438 441 3492 456 
Q 3547 472 3647 513 
L 3559 50 
Q 3422 -19 3297 -55 
Q 3172 -91 3053 -91 
Q 2847 -91 2730 40 
Q 2613 172 2613 403 
Q 2438 153 2195 31 
Q 1953 -91 1625 -91 
Q 1334 -91 1117 43 
Q 900 178 831 397 
L 494 -1331 
L -84 -1331 
z
" transform="scale(0.015625)"/>
       <path id="DejaVuSans-6d" d="M 3328 2828 
Q 3544 3216 3844 3400 
Q 4144 3584 4550 3584 
Q 5097 3584 5394 3201 
Q 5691 2819 5691 2113 
L 5691 0 
L 5113 0 
L 5113 2094 
Q 5113 2597 4934 2840 
Q 4756 3084 4391 3084 
Q 3944 3084 3684 2787 
Q 3425 2491 3425 1978 
L 3425 0 
L 2847 0 
L 2847 2094 
Q 2847 2600 2669 2842 
Q 2491 3084 2119 3084 
Q 1678 3084 1418 2786 
Q 1159 2488 1159 1978 
L 1159 0 
L 581 0 
L 581 3500 
L 1159 3500 
L 1159 2956 
Q 1356 3278 1631 3431 
Q 1906 3584 2284 3584 
Q 2666 3584 2933 3390 
Q 3200 3197 3328 2828 
z
" transform="scale(0.015625)"/>
       <path id="DejaVuSans-29" d="M 513 4856 
L 1013 4856 
Q 1481 4119 1714 3412 
Q 1947 2706 1947 2009 
Q 1947 1309 1714 600 
Q 1481 -109 1013 -844 
L 513 -844 
Q 928 -128 1133 580 
Q 1338 1288 1338 2009 
Q 1338 2731 1133 3434 
Q 928 4138 513 4856 
z
" transform="scale(0.015625)"/>
      </defs>
      <use xlink:href="#DejaVuSans-4c" transform="translate(0 0.015625)"/>
      <use xlink:href="#DejaVuSans-6f" transform="translate(55.712891 0.015625)"/>
      <use xlink:href="#DejaVuSans-6e" transform="translate(116.894531 0.015625)"/>
      <use xlink:href="#DejaVuSans-67" transform="translate(180.273438 0.015625)"/>
      <use xlink:href="#DejaVuSans-69" transform="translate(243.75 0.015625)"/>
      <use xlink:href="#DejaVuSans-74" transform="translate(271.533203 0.015625)"/>
      <use xlink:href="#DejaVuSans-75" transform="translate(310.742188 0.015625)"/>
      <use xlink:href="#DejaVuSans-64" transform="translate(374.121094 0.015625)"/>
      <use xlink:href="#DejaVuSans-20" transform="translate(437.597656 0.015625)"/>
      <use xlink:href="#DejaVuSans-64" transform="translate(469.384766 0.015625)"/>
      <use xlink:href="#DejaVuSans-65" transform="translate(532.861328 0.015625)"/>
      <use xlink:href="#DejaVuSans-20" transform="translate(594.384766 0.015625)"/>
      <use xlink:href="#DejaVuSans-6f" transform="translate(626.171875 0.015625)"/>
      <use xlink:href="#DejaVuSans-6e" transform="translate(687.353516 0.015625)"/>
      <use xlink:href="#DejaVuSans-64" transform="translate(750.732422 0.015625)"/>
      <use xlink:href="#DejaVuSans-61" transform="translate(814.208984 0.015625)"/>
      <use xlink:href="#DejaVuSans-2c" transform="translate(875.488281 0.015625)"/>
      <use xlink:href="#DejaVuSans-20" transform="translate(907.275391 0.015625)"/>
      <use xlink:href="#DejaVuSans-Oblique-3bb" transform="translate(939.0625 0.015625)"/>
      <use xlink:href="#DejaVuSans-20" transform="translate(998.242188 0.015625)"/>
      <use xlink:href="#DejaVuSans-28" transform="translate(1030.029297 0.015625)"/>
      <use xlink:href="#DejaVuSans-Oblique-3bc" transform="translate(1069.042969 0.015625)"/>
      <use xlink:href="#DejaVuSans-6d" transform="translate(1132.666016 0.015625)"/>
      <use xlink:href="#DejaVuSans-29" transform="translate(1230.078125 0.015625)"/>
     </g>
    </g>
   </g>
   <g id="matplotlib.axis_2">
    <g id="ytick_1">
     <g id="line2d_15">
      <path d="M 126 296.255005 
L 481.090909 296.255005 
" clip-path="url(#pebb52f584c)" style="fill: none; stroke: #b0b0b0; stroke-width: 0.8; stroke-linecap: square"/>
     </g>
     <g id="line2d_16">
      <defs>
       <path id="m90abe35223" d="M 0 0 
L -3.5 0 
" style="stroke: #000000; stroke-width: 0.8"/>
      </defs>
      <g>
       <use xlink:href="#m90abe35223" x="126" y="296.255005" style="stroke: #000000; stroke-width: 0.8"/>
      </g>
     </g>
     <g id="text_9">
      <!-- −5.0 -->
      <g transform="translate(80.1475 302.333755)scale(0.16 -0.16)">
       <defs>
        <path id="DejaVuSans-2212" d="M 678 2272 
L 4684 2272 
L 4684 1741 
L 678 1741 
L 678 2272 
z
" transform="scale(0.015625)"/>
        <path id="DejaVuSans-2e" d="M 684 794 
L 1344 794 
L 1344 0 
L 684 0 
L 684 794 
z
" transform="scale(0.015625)"/>
       </defs>
       <use xlink:href="#DejaVuSans-2212"/>
       <use xlink:href="#DejaVuSans-35" x="83.789062"/>
       <use xlink:href="#DejaVuSans-2e" x="147.412109"/>
       <use xlink:href="#DejaVuSans-30" x="179.199219"/>
      </g>
     </g>
    </g>
    <g id="ytick_2">
     <g id="line2d_17">
      <path d="M 126 257.602903 
L 481.090909 257.602903 
" clip-path="url(#pebb52f584c)" style="fill: none; stroke: #b0b0b0; stroke-width: 0.8; stroke-linecap: square"/>
     </g>
     <g id="line2d_18">
      <g>
       <use xlink:href="#m90abe35223" x="126" y="257.602903" style="stroke: #000000; stroke-width: 0.8"/>
      </g>
     </g>
     <g id="text_10">
      <!-- −2.5 -->
      <g transform="translate(80.1475 263.681653)scale(0.16 -0.16)">
       <use xlink:href="#DejaVuSans-2212"/>
       <use xlink:href="#DejaVuSans-32" x="83.789062"/>
       <use xlink:href="#DejaVuSans-2e" x="147.412109"/>
       <use xlink:href="#DejaVuSans-35" x="179.199219"/>
      </g>
     </g>
    </g>
    <g id="ytick_3">
     <g id="line2d_19">
      <path d="M 126 218.950802 
L 481.090909 218.950802 
" clip-path="url(#pebb52f584c)" style="fill: none; stroke: #b0b0b0; stroke-width: 0.8; stroke-linecap: square"/>
     </g>
     <g id="line2d_20">
      <g>
       <use xlink:href="#m90abe35223" x="126" y="218.950802" style="stroke: #000000; stroke-width: 0.8"/>
      </g>
     </g>
     <g id="text_11">
      <!-- 0.0 -->
      <g transform="translate(93.555 225.029552)scale(0.16 -0.16)">
       <use xlink:href="#DejaVuSans-30"/>
       <use xlink:href="#DejaVuSans-2e" x="63.623047"/>
       <use xlink:href="#DejaVuSans-30" x="95.410156"/>
      </g>
     </g>
    </g>
    <g id="ytick_4">
     <g id="line2d_21">
      <path d="M 126 180.2987 
L 481.090909 180.2987 
" clip-path="url(#pebb52f584c)" style="fill: none; stroke: #b0b0b0; stroke-width: 0.8; stroke-linecap: square"/>
     </g>
     <g id="line2d_22">
      <g>
       <use xlink:href="#m90abe35223" x="126" y="180.2987" style="stroke: #000000; stroke-width: 0.8"/>
      </g>
     </g>
     <g id="text_12">
      <!-- 2.5 -->
      <g transform="translate(93.555 186.37745)scale(0.16 -0.16)">
       <use xlink:href="#DejaVuSans-32"/>
       <use xlink:href="#DejaVuSans-2e" x="63.623047"/>
       <use xlink:href="#DejaVuSans-35" x="95.410156"/>
      </g>
     </g>
    </g>
    <g id="ytick_5">
     <g id="line2d_23">
      <path d="M 126 141.646598 
L 481.090909 141.646598 
" clip-path="url(#pebb52f584c)" style="fill: none; stroke: #b0b0b0; stroke-width: 0.8; stroke-linecap: square"/>
     </g>
     <g id="line2d_24">
      <g>
       <use xlink:href="#m90abe35223" x="126" y="141.646598" style="stroke: #000000; stroke-width: 0.8"/>
      </g>
     </g>
     <g id="text_13">
      <!-- 5.0 -->
      <g transform="translate(93.555 147.725348)scale(0.16 -0.16)">
       <use xlink:href="#DejaVuSans-35"/>
       <use xlink:href="#DejaVuSans-2e" x="63.623047"/>
       <use xlink:href="#DejaVuSans-30" x="95.410156"/>
      </g>
     </g>
    </g>
    <g id="ytick_6">
     <g id="line2d_25">
      <path d="M 126 102.994497 
L 481.090909 102.994497 
" clip-path="url(#pebb52f584c)" style="fill: none; stroke: #b0b0b0; stroke-width: 0.8; stroke-linecap: square"/>
     </g>
     <g id="line2d_26">
      <g>
       <use xlink:href="#m90abe35223" x="126" y="102.994497" style="stroke: #000000; stroke-width: 0.8"/>
      </g>
     </g>
     <g id="text_14">
      <!-- 7.5 -->
      <g transform="translate(93.555 109.073247)scale(0.16 -0.16)">
       <defs>
        <path id="DejaVuSans-37" d="M 525 4666 
L 3525 4666 
L 3525 4397 
L 1831 0 
L 1172 0 
L 2766 4134 
L 525 4134 
L 525 4666 
z
" transform="scale(0.015625)"/>
       </defs>
       <use xlink:href="#DejaVuSans-37"/>
       <use xlink:href="#DejaVuSans-2e" x="63.623047"/>
       <use xlink:href="#DejaVuSans-35" x="95.410156"/>
      </g>
     </g>
    </g>
    <g id="ytick_7">
     <g id="line2d_27">
      <path d="M 126 64.342395 
L 481.090909 64.342395 
" clip-path="url(#pebb52f584c)" style="fill: none; stroke: #b0b0b0; stroke-width: 0.8; stroke-linecap: square"/>
     </g>
     <g id="line2d_28">
      <g>
       <use xlink:href="#m90abe35223" x="126" y="64.342395" style="stroke: #000000; stroke-width: 0.8"/>
      </g>
     </g>
     <g id="text_15">
      <!-- 10.0 -->
      <g transform="translate(83.375 70.421145)scale(0.16 -0.16)">
       <use xlink:href="#DejaVuSans-31"/>
       <use xlink:href="#DejaVuSans-30" x="63.623047"/>
       <use xlink:href="#DejaVuSans-2e" x="127.246094"/>
       <use xlink:href="#DejaVuSans-30" x="159.033203"/>
      </g>
     </g>
    </g>
    <g id="text_16">
     <!-- Constante dielectrica, $\varepsilon = \varepsilon'+ \varepsilon''$ -->
     <g transform="translate(72.82 307.82)rotate(-90)scale(0.16 -0.16)">
      <defs>
       <path id="DejaVuSans-43" d="M 4122 4306 
L 4122 3641 
Q 3803 3938 3442 4084 
Q 3081 4231 2675 4231 
Q 1875 4231 1450 3742 
Q 1025 3253 1025 2328 
Q 1025 1406 1450 917 
Q 1875 428 2675 428 
Q 3081 428 3442 575 
Q 3803 722 4122 1019 
L 4122 359 
Q 3791 134 3420 21 
Q 3050 -91 2638 -91 
Q 1578 -91 968 557 
Q 359 1206 359 2328 
Q 359 3453 968 4101 
Q 1578 4750 2638 4750 
Q 3056 4750 3426 4639 
Q 3797 4528 4122 4306 
z
" transform="scale(0.015625)"/>
       <path id="DejaVuSans-73" d="M 2834 3397 
L 2834 2853 
Q 2591 2978 2328 3040 
Q 2066 3103 1784 3103 
Q 1356 3103 1142 2972 
Q 928 2841 928 2578 
Q 928 2378 1081 2264 
Q 1234 2150 1697 2047 
L 1894 2003 
Q 2506 1872 2764 1633 
Q 3022 1394 3022 966 
Q 3022 478 2636 193 
Q 2250 -91 1575 -91 
Q 1294 -91 989 -36 
Q 684 19 347 128 
L 347 722 
Q 666 556 975 473 
Q 1284 391 1588 391 
Q 1994 391 2212 530 
Q 2431 669 2431 922 
Q 2431 1156 2273 1281 
Q 2116 1406 1581 1522 
L 1381 1569 
Q 847 1681 609 1914 
Q 372 2147 372 2553 
Q 372 3047 722 3315 
Q 1072 3584 1716 3584 
Q 2034 3584 2315 3537 
Q 2597 3491 2834 3397 
z
" transform="scale(0.015625)"/>
       <path id="DejaVuSans-6c" d="M 603 4863 
L 1178 4863 
L 1178 0 
L 603 0 
L 603 4863 
z
" transform="scale(0.015625)"/>
       <path id="DejaVuSans-63" d="M 3122 3366 
L 3122 2828 
Q 2878 2963 2633 3030 
Q 2388 3097 2138 3097 
Q 1578 3097 1268 2742 
Q 959 2388 959 1747 
Q 959 1106 1268 751 
Q 1578 397 2138 397 
Q 2388 397 2633 464 
Q 2878 531 3122 666 
L 3122 134 
Q 2881 22 2623 -34 
Q 2366 -91 2075 -91 
Q 1284 -91 818 406 
Q 353 903 353 1747 
Q 353 2603 823 3093 
Q 1294 3584 2113 3584 
Q 2378 3584 2631 3529 
Q 2884 3475 3122 3366 
z
" transform="scale(0.015625)"/>
       <path id="DejaVuSans-72" d="M 2631 2963 
Q 2534 3019 2420 3045 
Q 2306 3072 2169 3072 
Q 1681 3072 1420 2755 
Q 1159 2438 1159 1844 
L 1159 0 
L 581 0 
L 581 3500 
L 1159 3500 
L 1159 2956 
Q 1341 3275 1631 3429 
Q 1922 3584 2338 3584 
Q 2397 3584 2469 3576 
Q 2541 3569 2628 3553 
L 2631 2963 
z
" transform="scale(0.015625)"/>
       <path id="DejaVuSans-Oblique-3b5" d="M 1263 1888 
Q 925 1963 778 2166 
Q 669 2309 669 2503 
Q 669 3034 1175 3344 
Q 1575 3588 2188 3588 
Q 2425 3588 2684 3550 
Q 2944 3513 3234 3438 
L 3134 2916 
Q 2847 3006 2606 3047 
Q 2359 3088 2138 3088 
Q 1766 3088 1522 2944 
Q 1228 2772 1228 2522 
Q 1228 2356 1381 2241 
Q 1563 2103 1925 2103 
L 2409 2103 
L 2319 1628 
L 1856 1628 
Q 1425 1628 1172 1469 
Q 828 1253 828 916 
Q 828 703 1013 563 
Q 1244 388 1716 388 
Q 2006 388 2284 444 
Q 2563 503 2806 619 
L 2700 84 
Q 2403 -3 2131 -47 
Q 1859 -91 1609 -91 
Q 866 -91 516 194 
Q 250 413 250 781 
Q 250 1278 600 1584 
Q 859 1813 1263 1888 
z
" transform="scale(0.015625)"/>
       <path id="DejaVuSans-3d" d="M 678 2906 
L 4684 2906 
L 4684 2381 
L 678 2381 
L 678 2906 
z
M 678 1631 
L 4684 1631 
L 4684 1100 
L 678 1100 
L 678 1631 
z
" transform="scale(0.015625)"/>
       <path id="Cmsy10-30" d="M 225 347 
Q 184 359 184 409 
L 966 3316 
Q 1003 3434 1093 3506 
Q 1184 3578 1300 3578 
Q 1450 3578 1564 3479 
Q 1678 3381 1678 3231 
Q 1678 3166 1644 3084 
L 488 319 
Q 466 275 428 275 
Q 394 275 320 306 
Q 247 338 225 347 
z
" transform="scale(0.015625)"/>
       <path id="DejaVuSans-2b" d="M 2944 4013 
L 2944 2272 
L 4684 2272 
L 4684 1741 
L 2944 1741 
L 2944 0 
L 2419 0 
L 2419 1741 
L 678 1741 
L 678 2272 
L 2419 2272 
L 2419 4013 
L 2944 4013 
z
" transform="scale(0.015625)"/>
      </defs>
      <use xlink:href="#DejaVuSans-43" transform="translate(0 0.584375)"/>
      <use xlink:href="#DejaVuSans-6f" transform="translate(69.824219 0.584375)"/>
      <use xlink:href="#DejaVuSans-6e" transform="translate(131.005859 0.584375)"/>
      <use xlink:href="#DejaVuSans-73" transform="translate(194.384766 0.584375)"/>
      <use xlink:href="#DejaVuSans-74" transform="translate(246.484375 0.584375)"/>
      <use xlink:href="#DejaVuSans-61" transform="translate(285.693359 0.584375)"/>
      <use xlink:href="#DejaVuSans-6e" transform="translate(346.972656 0.584375)"/>
      <use xlink:href="#DejaVuSans-74" transform="translate(410.351562 0.584375)"/>
      <use xlink:href="#DejaVuSans-65" transform="translate(449.560547 0.584375)"/>
      <use xlink:href="#DejaVuSans-20" transform="translate(511.083984 0.584375)"/>
      <use xlink:href="#DejaVuSans-64" transform="translate(542.871094 0.584375)"/>
      <use xlink:href="#DejaVuSans-69" transform="translate(606.347656 0.584375)"/>
      <use xlink:href="#DejaVuSans-65" transform="translate(634.130859 0.584375)"/>
      <use xlink:href="#DejaVuSans-6c" transform="translate(695.654297 0.584375)"/>
      <use xlink:href="#DejaVuSans-65" transform="translate(723.4375 0.584375)"/>
      <use xlink:href="#DejaVuSans-63" transform="translate(784.960938 0.584375)"/>
      <use xlink:href="#DejaVuSans-74" transform="translate(839.941406 0.584375)"/>
      <use xlink:href="#DejaVuSans-72" transform="translate(879.150391 0.584375)"/>
      <use xlink:href="#DejaVuSans-69" transform="translate(920.263672 0.584375)"/>
      <use xlink:href="#DejaVuSans-63" transform="translate(948.046875 0.584375)"/>
      <use xlink:href="#DejaVuSans-61" transform="translate(1003.027344 0.584375)"/>
      <use xlink:href="#DejaVuSans-2c" transform="translate(1064.306641 0.584375)"/>
      <use xlink:href="#DejaVuSans-20" transform="translate(1096.09375 0.584375)"/>
      <use xlink:href="#DejaVuSans-Oblique-3b5" transform="translate(1127.880859 0.584375)"/>
      <use xlink:href="#DejaVuSans-3d" transform="translate(1201.416016 0.584375)"/>
      <use xlink:href="#DejaVuSans-Oblique-3b5" transform="translate(1304.6875 0.584375)"/>
      <use xlink:href="#Cmsy10-30" transform="translate(1363.39888 38.865625)scale(0.7)"/>
      <use xlink:href="#DejaVuSans-2b" transform="translate(1404.858841 0.584375)"/>
      <use xlink:href="#DejaVuSans-Oblique-3b5" transform="translate(1508.130326 0.584375)"/>
      <use xlink:href="#Cmsy10-30" transform="translate(1566.841706 38.865625)scale(0.7)"/>
      <use xlink:href="#Cmsy10-30" transform="translate(1586.08487 38.865625)scale(0.7)"/>
     </g>
    </g>
   </g>
   <g id="line2d_29">
    <path d="M 128.367273 181.709199 
L 128.790583 183.403512 
L 129.037515 183.786258 
L 143.782837 185.734479 
L 156.164675 185.925842 
L 164.87782 188.121311 
L 172.532689 189.00531 
L 179.164556 190.038658 
L 187.172183 191.436387 
L 192.498843 192.736097 
L 194.509569 193.291398 
L 196.661398 194.168523 
L 198.284089 194.810326 
L 200.647574 195.488712 
L 203.540197 196.85332 
L 206.468096 198.545015 
L 209.854581 201.182827 
L 211.547824 202.776604 
L 213.911309 205.282974 
L 216.945036 209.484939 
L 217.756381 211.157213 
L 218.391347 212.697164 
L 220.049314 216.359395 
L 222.695006 221.734251 
L 224.63518 224.762276 
L 226.61063 228.704335 
L 227.739458 232.122423 
L 228.480252 234.979367 
L 229.18577 238.532845 
L 230.067667 244.922158 
L 230.914289 254.745719 
L 231.831462 272.037257 
L 233.066118 297.194637 
L 233.665808 302.645455 
L 234.194946 295.121684 
L 234.724085 284.505037 
L 236.840638 199.72831 
L 238.921916 141.292497 
L 240.227124 123.391345 
L 241.426504 109.808185 
L 241.638159 108.624092 
L 242.202574 108.624087 
L 242.766988 108.841523 
L 243.366678 109.3108 
L 244.03692 110.125773 
L 244.460231 110.905018 
L 249.575235 137.472801 
L 251.092098 144.235797 
L 254.090549 154.94011 
L 257.265379 164.088826 
L 257.865069 165.435178 
L 264.179454 175.564496 
L 266.119628 177.994872 
L 267.283732 179.147573 
L 268.800596 179.642101 
L 272.187081 176.104585 
L 272.645668 175.438943 
L 274.726945 172.445299 
L 276.384912 170.613501 
L 278.042879 169.378624 
L 279.912501 169.162859 
L 282.664021 171.051828 
L 290.036682 175.084168 
L 295.927756 177.86521 
L 303.476797 180.55625 
L 311.484424 183.261151 
L 319.068741 185.876999 
L 329.157646 189.313419 
L 331.909165 190.386115 
L 338.364653 193.186085 
L 351.028698 200.708988 
L 358.577739 211.836067 
L 361.787845 219.75564 
L 363.728019 225.011821 
L 365.35071 230.207917 
L 367.079229 236.51937 
L 369.019403 244.492447 
L 370.67737 252.333143 
L 372.441164 261.800185 
L 374.698821 275.315565 
L 375.369063 279.621154 
L 375.439615 279.537059 
L 376.074581 278.53613 
L 376.815375 276.913094 
L 377.62672 274.572908 
L 378.085307 272.70105 
L 379.743274 258.006435 
L 381.507068 240.29495 
L 383.37669 219.18082 
L 384.117484 211.624725 
L 388.10366 173.67354 
L 391.984008 138.81537 
L 395.22939 111.374597 
L 397.910358 107.434864 
L 400.485498 104.037765 
L 402.990086 101.097615 
L 405.388847 98.6181 
L 407.717055 96.526275 
L 408.10509 96.308171 
L 412.444025 98.837069 
L 416.853511 101.66598 
L 421.333549 104.807429 
L 434.244526 114.389479 
L 442.428532 120.323719 
L 457.738269 127.832174 
L 464.934551 131.186234 
L 481.090909 135.812667 
L 481.090909 135.812667 
" clip-path="url(#pebb52f584c)" style="fill: none; stroke: #0000ff; stroke-width: 1.5; stroke-linecap: square"/>
   </g>
   <g id="line2d_30">
    <path d="M 128.367273 218.950394 
L 184.561767 218.825958 
L 187.912977 218.728485 
L 214.15824 218.440712 
L 216.945036 218.074015 
L 217.862209 217.903547 
L 219.096865 216.854547 
L 219.731831 216.109016 
L 220.543176 215.077586 
L 221.142867 214.172493 
L 222.306971 212.057679 
L 223.823834 209.220483 
L 224.741008 207.91138 
L 226.257871 205.842037 
L 227.492527 204.549298 
L 228.4097 203.672353 
L 229.679632 203.038902 
L 230.067667 202.806187 
L 230.879013 201.8233 
L 231.725634 197.759514 
L 232.501704 182.837323 
L 232.819187 174.146813 
L 233.912739 125.164359 
L 234.93574 82.408472 
L 235.782362 67.090248 
L 236.170396 61.720559 
L 236.205672 61.813991 
L 236.699535 63.487408 
L 237.263949 66.235004 
L 237.934191 70.654763 
L 238.71026 77.34171 
L 238.88664 80.037992 
L 242.308401 146.053616 
L 244.495507 177.127144 
L 246.576784 194.597922 
L 247.599785 201.935057 
L 249.751614 209.130766 
L 250.809891 212.128276 
L 253.349755 215.269437 
L 254.161101 216.050204 
L 257.865069 215.897149 
L 262.133452 213.78243 
L 264.03835 212.582269 
L 265.907973 210.361226 
L 267.495388 207.929496 
L 270.599666 202.245791 
L 272.680944 200.863803 
L 274.162531 200.42789 
L 276.173257 201.829799 
L 278.219259 204.05629 
L 280.44164 206.909198 
L 282.064331 208.48982 
L 284.463091 209.478455 
L 289.754475 210.72508 
L 296.315791 210.914727 
L 309.085663 210.121639 
L 317.728257 209.234437 
L 328.840163 207.689203 
L 339.669861 206.41048 
L 351.063974 205.410649 
L 354.521011 205.25634 
L 356.567013 204.800714 
L 358.471911 204.391292 
L 359.741843 203.360321 
L 360.941224 202.669987 
L 362.070052 202.271712 
L 363.022501 201.950641 
L 364.997951 199.217134 
L 366.867573 196.995378 
L 367.820022 195.792336 
L 369.619093 189.19603 
L 371.523991 181.343862 
L 372.829199 175.211344 
L 374.381338 160.543725 
L 375.510167 148.129706 
L 377.62672 115.708416 
L 378.332238 106.110015 
L 382.000931 69.746274 
L 383.517794 55.554545 
L 383.55307 55.635924 
L 384.964106 59.180224 
L 386.480969 63.619626 
L 388.10366 69.0906 
L 389.832178 75.739138 
L 391.666525 83.720751 
L 393.606699 93.200474 
L 395.970184 104.864954 
L 408.069814 152.592384 
L 413.749233 166.246363 
L 419.322824 179.070795 
L 422.285998 185.47336 
L 429.270625 192.12064 
L 436.1847 198.395988 
L 441.93467 203.354192 
L 455.515888 207.047365 
L 464.899275 209.407161 
L 481.090909 211.368536 
L 481.090909 211.368536 
" clip-path="url(#pebb52f584c)" style="fill: none; stroke: #ff0000; stroke-width: 1.5; stroke-linecap: square"/>
   </g>
   <g id="patch_3">
    <path d="M 126 315 
L 126 43.2 
" style="fill: none; stroke: #000000; stroke-width: 0.8; stroke-linejoin: miter; stroke-linecap: square"/>
   </g>
   <g id="patch_4">
    <path d="M 481.090909 315 
L 481.090909 43.2 
" style="fill: none; stroke: #000000; stroke-width: 0.8; stroke-linejoin: miter; stroke-linecap: square"/>
   </g>
   <g id="patch_5">
    <path d="M 126 315 
L 481.090909 315 
" style="fill: none; stroke: #000000; stroke-width: 0.8; stroke-linejoin: miter; stroke-linecap: square"/>
   </g>
   <g id="patch_6">
    <path d="M 126 43.2 
L 481.090909 43.2 
" style="fill: none; stroke: #000000; stroke-width: 0.8; stroke-linejoin: miter; stroke-linecap: square"/>
   </g>
   <g id="legend_1">
    <g id="line2d_31">
     <path d="M 140.4 64.1575 
L 156.4 64.1575 
L 172.4 64.1575 
" style="fill: none; stroke: #0000ff; stroke-width: 1.5; stroke-linecap: square"/>
    </g>
    <g id="text_17">
     <!-- $\varepsilon'$ -->
     <g transform="translate(185.2 69.7575)scale(0.16 -0.16)">
      <use xlink:href="#DejaVuSans-Oblique-3b5" transform="translate(0 0.584375)"/>
      <use xlink:href="#Cmsy10-30" transform="translate(58.71138 38.865625)scale(0.7)"/>
     </g>
    </g>
    <g id="line2d_32">
     <path d="M 140.4 87.6425 
L 156.4 87.6425 
L 172.4 87.6425 
" style="fill: none; stroke: #ff0000; stroke-width: 1.5; stroke-linecap: square"/>
    </g>
    <g id="text_18">
     <!-- $\varepsilon''$ -->
     <g transform="translate(185.2 93.2425)scale(0.16 -0.16)">
      <use xlink:href="#DejaVuSans-Oblique-3b5" transform="translate(0 0.584375)"/>
      <use xlink:href="#Cmsy10-30" transform="translate(58.71138 38.865625)scale(0.7)"/>
      <use xlink:href="#Cmsy10-30" transform="translate(77.954544 38.865625)scale(0.7)"/>
     </g>
    </g>
   </g>
  </g>
  <g id="axes_2">
   <g id="patch_7">
    <path d="M 552.109091 315 
L 907.2 315 
L 907.2 43.2 
L 552.109091 43.2 
z
" style="fill: #ffffff"/>
   </g>
   <g id="matplotlib.axis_3">
    <g id="xtick_8">
     <g id="line2d_33">
      <path d="M 552.109091 315 
L 552.109091 43.2 
" clip-path="url(#p8c1b77dc80)" style="fill: none; stroke: #b0b0b0; stroke-width: 0.8; stroke-linecap: square"/>
     </g>
     <g id="line2d_34">
      <g>
       <use xlink:href="#md0e95e1039" x="552.109091" y="315" style="stroke: #000000; stroke-width: 0.8"/>
      </g>
     </g>
     <g id="text_19">
      <!-- 0 -->
      <g transform="translate(547.019091 334.1575)scale(0.16 -0.16)">
       <use xlink:href="#DejaVuSans-30"/>
      </g>
     </g>
    </g>
    <g id="xtick_9">
     <g id="line2d_35">
      <path d="M 611.290909 315 
L 611.290909 43.2 
" clip-path="url(#p8c1b77dc80)" style="fill: none; stroke: #b0b0b0; stroke-width: 0.8; stroke-linecap: square"/>
     </g>
     <g id="line2d_36">
      <g>
       <use xlink:href="#md0e95e1039" x="611.290909" y="315" style="stroke: #000000; stroke-width: 0.8"/>
      </g>
     </g>
     <g id="text_20">
      <!-- 5 -->
      <g transform="translate(606.200909 334.1575)scale(0.16 -0.16)">
       <use xlink:href="#DejaVuSans-35"/>
      </g>
     </g>
    </g>
    <g id="xtick_10">
     <g id="line2d_37">
      <path d="M 670.472727 315 
L 670.472727 43.2 
" clip-path="url(#p8c1b77dc80)" style="fill: none; stroke: #b0b0b0; stroke-width: 0.8; stroke-linecap: square"/>
     </g>
     <g id="line2d_38">
      <g>
       <use xlink:href="#md0e95e1039" x="670.472727" y="315" style="stroke: #000000; stroke-width: 0.8"/>
      </g>
     </g>
     <g id="text_21">
      <!-- 10 -->
      <g transform="translate(660.292727 334.1575)scale(0.16 -0.16)">
       <use xlink:href="#DejaVuSans-31"/>
       <use xlink:href="#DejaVuSans-30" x="63.623047"/>
      </g>
     </g>
    </g>
    <g id="xtick_11">
     <g id="line2d_39">
      <path d="M 729.654545 315 
L 729.654545 43.2 
" clip-path="url(#p8c1b77dc80)" style="fill: none; stroke: #b0b0b0; stroke-width: 0.8; stroke-linecap: square"/>
     </g>
     <g id="line2d_40">
      <g>
       <use xlink:href="#md0e95e1039" x="729.654545" y="315" style="stroke: #000000; stroke-width: 0.8"/>
      </g>
     </g>
     <g id="text_22">
      <!-- 15 -->
      <g transform="translate(719.474545 334.1575)scale(0.16 -0.16)">
       <use xlink:href="#DejaVuSans-31"/>
       <use xlink:href="#DejaVuSans-35" x="63.623047"/>
      </g>
     </g>
    </g>
    <g id="xtick_12">
     <g id="line2d_41">
      <path d="M 788.836364 315 
L 788.836364 43.2 
" clip-path="url(#p8c1b77dc80)" style="fill: none; stroke: #b0b0b0; stroke-width: 0.8; stroke-linecap: square"/>
     </g>
     <g id="line2d_42">
      <g>
       <use xlink:href="#md0e95e1039" x="788.836364" y="315" style="stroke: #000000; stroke-width: 0.8"/>
      </g>
     </g>
     <g id="text_23">
      <!-- 20 -->
      <g transform="translate(778.656364 334.1575)scale(0.16 -0.16)">
       <use xlink:href="#DejaVuSans-32"/>
       <use xlink:href="#DejaVuSans-30" x="63.623047"/>
      </g>
     </g>
    </g>
    <g id="xtick_13">
     <g id="line2d_43">
      <path d="M 848.018182 315 
L 848.018182 43.2 
" clip-path="url(#p8c1b77dc80)" style="fill: none; stroke: #b0b0b0; stroke-width: 0.8; stroke-linecap: square"/>
     </g>
     <g id="line2d_44">
      <g>
       <use xlink:href="#md0e95e1039" x="848.018182" y="315" style="stroke: #000000; stroke-width: 0.8"/>
      </g>
     </g>
     <g id="text_24">
      <!-- 25 -->
      <g transform="translate(837.838182 334.1575)scale(0.16 -0.16)">
       <use xlink:href="#DejaVuSans-32"/>
       <use xlink:href="#DejaVuSans-35" x="63.623047"/>
      </g>
     </g>
    </g>
    <g id="xtick_14">
     <g id="line2d_45">
      <path d="M 907.2 315 
L 907.2 43.2 
" clip-path="url(#p8c1b77dc80)" style="fill: none; stroke: #b0b0b0; stroke-width: 0.8; stroke-linecap: square"/>
     </g>
     <g id="line2d_46">
      <g>
       <use xlink:href="#md0e95e1039" x="907.2" y="315" style="stroke: #000000; stroke-width: 0.8"/>
      </g>
     </g>
     <g id="text_25">
      <!-- 30 -->
      <g transform="translate(897.02 334.1575)scale(0.16 -0.16)">
       <use xlink:href="#DejaVuSans-33"/>
       <use xlink:href="#DejaVuSans-30" x="63.623047"/>
      </g>
     </g>
    </g>
    <g id="text_26">
     <!-- Longitud de onda, $\lambda$ ($\mu$m) -->
     <g transform="translate(628.054545 353.645)scale(0.16 -0.16)">
      <use xlink:href="#DejaVuSans-4c" transform="translate(0 0.015625)"/>
      <use xlink:href="#DejaVuSans-6f" transform="translate(55.712891 0.015625)"/>
      <use xlink:href="#DejaVuSans-6e" transform="translate(116.894531 0.015625)"/>
      <use xlink:href="#DejaVuSans-67" transform="translate(180.273438 0.015625)"/>
      <use xlink:href="#DejaVuSans-69" transform="translate(243.75 0.015625)"/>
      <use xlink:href="#DejaVuSans-74" transform="translate(271.533203 0.015625)"/>
      <use xlink:href="#DejaVuSans-75" transform="translate(310.742188 0.015625)"/>
      <use xlink:href="#DejaVuSans-64" transform="translate(374.121094 0.015625)"/>
      <use xlink:href="#DejaVuSans-20" transform="translate(437.597656 0.015625)"/>
      <use xlink:href="#DejaVuSans-64" transform="translate(469.384766 0.015625)"/>
      <use xlink:href="#DejaVuSans-65" transform="translate(532.861328 0.015625)"/>
      <use xlink:href="#DejaVuSans-20" transform="translate(594.384766 0.015625)"/>
      <use xlink:href="#DejaVuSans-6f" transform="translate(626.171875 0.015625)"/>
      <use xlink:href="#DejaVuSans-6e" transform="translate(687.353516 0.015625)"/>
      <use xlink:href="#DejaVuSans-64" transform="translate(750.732422 0.015625)"/>
      <use xlink:href="#DejaVuSans-61" transform="translate(814.208984 0.015625)"/>
      <use xlink:href="#DejaVuSans-2c" transform="translate(875.488281 0.015625)"/>
      <use xlink:href="#DejaVuSans-20" transform="translate(907.275391 0.015625)"/>
      <use xlink:href="#DejaVuSans-Oblique-3bb" transform="translate(939.0625 0.015625)"/>
      <use xlink:href="#DejaVuSans-20" transform="translate(998.242188 0.015625)"/>
      <use xlink:href="#DejaVuSans-28" transform="translate(1030.029297 0.015625)"/>
      <use xlink:href="#DejaVuSans-Oblique-3bc" transform="translate(1069.042969 0.015625)"/>
      <use xlink:href="#DejaVuSans-6d" transform="translate(1132.666016 0.015625)"/>
      <use xlink:href="#DejaVuSans-29" transform="translate(1230.078125 0.015625)"/>
     </g>
    </g>
   </g>
   <g id="matplotlib.axis_4">
    <g id="ytick_8">
     <g id="line2d_47">
      <path d="M 552.109091 302.645455 
L 907.2 302.645455 
" clip-path="url(#p8c1b77dc80)" style="fill: none; stroke: #b0b0b0; stroke-width: 0.8; stroke-linecap: square"/>
     </g>
     <g id="line2d_48">
      <g>
       <use xlink:href="#m90abe35223" x="552.109091" y="302.645455" style="stroke: #000000; stroke-width: 0.8"/>
      </g>
     </g>
     <g id="text_27">
      <!-- 0.0 -->
      <g transform="translate(519.664091 308.724205)scale(0.16 -0.16)">
       <use xlink:href="#DejaVuSans-30"/>
       <use xlink:href="#DejaVuSans-2e" x="63.623047"/>
       <use xlink:href="#DejaVuSans-30" x="95.410156"/>
      </g>
     </g>
    </g>
    <g id="ytick_9">
     <g id="line2d_49">
      <path d="M 552.109091 260.565408 
L 907.2 260.565408 
" clip-path="url(#p8c1b77dc80)" style="fill: none; stroke: #b0b0b0; stroke-width: 0.8; stroke-linecap: square"/>
     </g>
     <g id="line2d_50">
      <g>
       <use xlink:href="#m90abe35223" x="552.109091" y="260.565408" style="stroke: #000000; stroke-width: 0.8"/>
      </g>
     </g>
     <g id="text_28">
      <!-- 0.5 -->
      <g transform="translate(519.664091 266.644158)scale(0.16 -0.16)">
       <use xlink:href="#DejaVuSans-30"/>
       <use xlink:href="#DejaVuSans-2e" x="63.623047"/>
       <use xlink:href="#DejaVuSans-35" x="95.410156"/>
      </g>
     </g>
    </g>
    <g id="ytick_10">
     <g id="line2d_51">
      <path d="M 552.109091 218.485362 
L 907.2 218.485362 
" clip-path="url(#p8c1b77dc80)" style="fill: none; stroke: #b0b0b0; stroke-width: 0.8; stroke-linecap: square"/>
     </g>
     <g id="line2d_52">
      <g>
       <use xlink:href="#m90abe35223" x="552.109091" y="218.485362" style="stroke: #000000; stroke-width: 0.8"/>
      </g>
     </g>
     <g id="text_29">
      <!-- 1.0 -->
      <g transform="translate(519.664091 224.564112)scale(0.16 -0.16)">
       <use xlink:href="#DejaVuSans-31"/>
       <use xlink:href="#DejaVuSans-2e" x="63.623047"/>
       <use xlink:href="#DejaVuSans-30" x="95.410156"/>
      </g>
     </g>
    </g>
    <g id="ytick_11">
     <g id="line2d_53">
      <path d="M 552.109091 176.405316 
L 907.2 176.405316 
" clip-path="url(#p8c1b77dc80)" style="fill: none; stroke: #b0b0b0; stroke-width: 0.8; stroke-linecap: square"/>
     </g>
     <g id="line2d_54">
      <g>
       <use xlink:href="#m90abe35223" x="552.109091" y="176.405316" style="stroke: #000000; stroke-width: 0.8"/>
      </g>
     </g>
     <g id="text_30">
      <!-- 1.5 -->
      <g transform="translate(519.664091 182.484066)scale(0.16 -0.16)">
       <use xlink:href="#DejaVuSans-31"/>
       <use xlink:href="#DejaVuSans-2e" x="63.623047"/>
       <use xlink:href="#DejaVuSans-35" x="95.410156"/>
      </g>
     </g>
    </g>
    <g id="ytick_12">
     <g id="line2d_55">
      <path d="M 552.109091 134.32527 
L 907.2 134.32527 
" clip-path="url(#p8c1b77dc80)" style="fill: none; stroke: #b0b0b0; stroke-width: 0.8; stroke-linecap: square"/>
     </g>
     <g id="line2d_56">
      <g>
       <use xlink:href="#m90abe35223" x="552.109091" y="134.32527" style="stroke: #000000; stroke-width: 0.8"/>
      </g>
     </g>
     <g id="text_31">
      <!-- 2.0 -->
      <g transform="translate(519.664091 140.40402)scale(0.16 -0.16)">
       <use xlink:href="#DejaVuSans-32"/>
       <use xlink:href="#DejaVuSans-2e" x="63.623047"/>
       <use xlink:href="#DejaVuSans-30" x="95.410156"/>
      </g>
     </g>
    </g>
    <g id="ytick_13">
     <g id="line2d_57">
      <path d="M 552.109091 92.245223 
L 907.2 92.245223 
" clip-path="url(#p8c1b77dc80)" style="fill: none; stroke: #b0b0b0; stroke-width: 0.8; stroke-linecap: square"/>
     </g>
     <g id="line2d_58">
      <g>
       <use xlink:href="#m90abe35223" x="552.109091" y="92.245223" style="stroke: #000000; stroke-width: 0.8"/>
      </g>
     </g>
     <g id="text_32">
      <!-- 2.5 -->
      <g transform="translate(519.664091 98.323973)scale(0.16 -0.16)">
       <use xlink:href="#DejaVuSans-32"/>
       <use xlink:href="#DejaVuSans-2e" x="63.623047"/>
       <use xlink:href="#DejaVuSans-35" x="95.410156"/>
      </g>
     </g>
    </g>
    <g id="ytick_14">
     <g id="line2d_59">
      <path d="M 552.109091 50.165177 
L 907.2 50.165177 
" clip-path="url(#p8c1b77dc80)" style="fill: none; stroke: #b0b0b0; stroke-width: 0.8; stroke-linecap: square"/>
     </g>
     <g id="line2d_60">
      <g>
       <use xlink:href="#m90abe35223" x="552.109091" y="50.165177" style="stroke: #000000; stroke-width: 0.8"/>
      </g>
     </g>
     <g id="text_33">
      <!-- 3.0 -->
      <g transform="translate(519.664091 56.243927)scale(0.16 -0.16)">
       <use xlink:href="#DejaVuSans-33"/>
       <use xlink:href="#DejaVuSans-2e" x="63.623047"/>
       <use xlink:href="#DejaVuSans-30" x="95.410156"/>
      </g>
     </g>
    </g>
    <g id="text_34">
     <!-- Indice de refracción, $N = n + i\kappa$ -->
     <g transform="translate(512.336591 301.18)rotate(-90)scale(0.16 -0.16)">
      <defs>
       <path id="DejaVuSans-49" d="M 628 4666 
L 1259 4666 
L 1259 0 
L 628 0 
L 628 4666 
z
" transform="scale(0.015625)"/>
       <path id="DejaVuSans-66" d="M 2375 4863 
L 2375 4384 
L 1825 4384 
Q 1516 4384 1395 4259 
Q 1275 4134 1275 3809 
L 1275 3500 
L 2222 3500 
L 2222 3053 
L 1275 3053 
L 1275 0 
L 697 0 
L 697 3053 
L 147 3053 
L 147 3500 
L 697 3500 
L 697 3744 
Q 697 4328 969 4595 
Q 1241 4863 1831 4863 
L 2375 4863 
z
" transform="scale(0.015625)"/>
       <path id="DejaVuSans-f3" d="M 1959 3097 
Q 1497 3097 1228 2736 
Q 959 2375 959 1747 
Q 959 1119 1226 758 
Q 1494 397 1959 397 
Q 2419 397 2687 759 
Q 2956 1122 2956 1747 
Q 2956 2369 2687 2733 
Q 2419 3097 1959 3097 
z
M 1959 3584 
Q 2709 3584 3137 3096 
Q 3566 2609 3566 1747 
Q 3566 888 3137 398 
Q 2709 -91 1959 -91 
Q 1206 -91 779 398 
Q 353 888 353 1747 
Q 353 2609 779 3096 
Q 1206 3584 1959 3584 
z
M 2394 5119 
L 3016 5119 
L 1997 3944 
L 1519 3944 
L 2394 5119 
z
" transform="scale(0.015625)"/>
       <path id="DejaVuSans-Oblique-4e" d="M 1081 4666 
L 1931 4666 
L 3219 666 
L 4000 4666 
L 4616 4666 
L 3706 0 
L 2853 0 
L 1569 4025 
L 788 0 
L 172 0 
L 1081 4666 
z
" transform="scale(0.015625)"/>
       <path id="DejaVuSans-Oblique-6e" d="M 3566 2113 
L 3156 0 
L 2578 0 
L 2988 2091 
Q 3016 2238 3031 2350 
Q 3047 2463 3047 2528 
Q 3047 2791 2881 2937 
Q 2716 3084 2419 3084 
Q 1956 3084 1622 2776 
Q 1288 2469 1184 1941 
L 800 0 
L 225 0 
L 903 3500 
L 1478 3500 
L 1363 2950 
Q 1603 3253 1940 3418 
Q 2278 3584 2650 3584 
Q 3113 3584 3367 3334 
Q 3622 3084 3622 2631 
Q 3622 2519 3608 2391 
Q 3594 2263 3566 2113 
z
" transform="scale(0.015625)"/>
       <path id="DejaVuSans-Oblique-69" d="M 1172 4863 
L 1747 4863 
L 1606 4134 
L 1031 4134 
L 1172 4863 
z
M 909 3500 
L 1484 3500 
L 800 0 
L 225 0 
L 909 3500 
z
" transform="scale(0.015625)"/>
       <path id="DejaVuSans-Oblique-3ba" d="M 938 3500 
L 1531 3500 
L 1247 2047 
L 3041 3500 
L 3741 3500 
L 2106 2181 
L 3275 0 
L 2572 0 
L 1628 1806 
L 1122 1403 
L 850 0 
L 256 0 
L 938 3500 
z
" transform="scale(0.015625)"/>
      </defs>
      <use xlink:href="#DejaVuSans-49" transform="translate(0 0.015625)"/>
      <use xlink:href="#DejaVuSans-6e" transform="translate(29.492188 0.015625)"/>
      <use xlink:href="#DejaVuSans-64" transform="translate(92.871094 0.015625)"/>
      <use xlink:href="#DejaVuSans-69" transform="translate(156.347656 0.015625)"/>
      <use xlink:href="#DejaVuSans-63" transform="translate(184.130859 0.015625)"/>
      <use xlink:href="#DejaVuSans-65" transform="translate(239.111328 0.015625)"/>
      <use xlink:href="#DejaVuSans-20" transform="translate(300.634766 0.015625)"/>
      <use xlink:href="#DejaVuSans-64" transform="translate(332.421875 0.015625)"/>
      <use xlink:href="#DejaVuSans-65" transform="translate(395.898438 0.015625)"/>
      <use xlink:href="#DejaVuSans-20" transform="translate(457.421875 0.015625)"/>
      <use xlink:href="#DejaVuSans-72" transform="translate(489.208984 0.015625)"/>
      <use xlink:href="#DejaVuSans-65" transform="translate(530.322266 0.015625)"/>
      <use xlink:href="#DejaVuSans-66" transform="translate(591.845703 0.015625)"/>
      <use xlink:href="#DejaVuSans-72" transform="translate(627.050781 0.015625)"/>
      <use xlink:href="#DejaVuSans-61" transform="translate(668.164062 0.015625)"/>
      <use xlink:href="#DejaVuSans-63" transform="translate(729.443359 0.015625)"/>
      <use xlink:href="#DejaVuSans-63" transform="translate(784.423828 0.015625)"/>
      <use xlink:href="#DejaVuSans-69" transform="translate(839.404297 0.015625)"/>
      <use xlink:href="#DejaVuSans-f3" transform="translate(867.1875 0.015625)"/>
      <use xlink:href="#DejaVuSans-6e" transform="translate(928.369141 0.015625)"/>
      <use xlink:href="#DejaVuSans-2c" transform="translate(991.748047 0.015625)"/>
      <use xlink:href="#DejaVuSans-20" transform="translate(1023.535156 0.015625)"/>
      <use xlink:href="#DejaVuSans-Oblique-4e" transform="translate(1055.322266 0.015625)"/>
      <use xlink:href="#DejaVuSans-3d" transform="translate(1149.609375 0.015625)"/>
      <use xlink:href="#DejaVuSans-Oblique-6e" transform="translate(1252.880859 0.015625)"/>
      <use xlink:href="#DejaVuSans-2b" transform="translate(1335.742188 0.015625)"/>
      <use xlink:href="#DejaVuSans-Oblique-69" transform="translate(1439.013672 0.015625)"/>
      <use xlink:href="#DejaVuSans-Oblique-3ba" transform="translate(1466.796875 0.015625)"/>
     </g>
    </g>
   </g>
   <g id="line2d_61">
    <path d="M 554.476364 172.027212 
L 554.899674 175.033048 
L 555.146606 175.721923 
L 569.750825 179.286187 
L 582.062111 179.539482 
L 590.916359 183.788932 
L 596.595778 185.007591 
L 600.335022 185.970044 
L 602.733783 186.709841 
L 611.729135 189.70261 
L 612.258273 189.806419 
L 616.244449 191.924577 
L 620.44228 194.09135 
L 622.276627 195.595071 
L 624.181525 197.370423 
L 626.439182 198.667106 
L 629.049598 201.296002 
L 632.224428 205.33869 
L 633.917671 208.527565 
L 635.117051 210.752445 
L 635.963672 212.420261 
L 637.233604 215.43577 
L 639.24433 221.089515 
L 640.161503 224.04559 
L 642.560264 233.672744 
L 643.618541 240.852463 
L 644.359334 247.414272 
L 645.911474 261.474664 
L 646.581716 266.258173 
L 647.005026 268.32008 
L 647.675268 269.541764 
L 647.710544 269.50662 
L 648.451338 268.660998 
L 649.439063 265.672323 
L 650.179857 264.395402 
L 651.061754 263.604036 
L 651.802548 262.816037 
L 652.578617 262.78609 
L 654.342412 264.51601 
L 655.365413 267.337324 
L 656.952828 272.628805 
L 657.834725 271.464996 
L 658.893002 251.030731 
L 660.586244 177.019234 
L 661.291762 149.099542 
L 662.455867 110.35808 
L 664.995731 70.132297 
L 667.641423 63.738149 
L 667.676699 63.82343 
L 670.710425 77.082817 
L 674.379118 101.356712 
L 677.271741 117.791695 
L 680.940434 134.319927 
L 683.97416 146.004079 
L 688.842233 157.837658 
L 690.5002 161.698601 
L 691.981788 164.479262 
L 693.322271 166.419579 
L 694.839135 166.694706 
L 697.731758 160.739565 
L 698.825311 158.391513 
L 700.483277 154.593657 
L 702.3529 151.778213 
L 704.081418 150.236762 
L 705.986316 150.386934 
L 708.455629 153.390776 
L 714.346703 158.72618 
L 716.921843 160.885603 
L 722.036847 164.806601 
L 729.48006 169.174949 
L 735.970824 172.77902 
L 743.872624 177.484002 
L 751.950803 182.085834 
L 757.277462 185.438224 
L 763.979882 190.514928 
L 774.350994 202.041828 
L 776.926134 205.132068 
L 784.651554 229.278505 
L 789.166868 247.196791 
L 793.858561 253.983071 
L 798.93829 238.915389 
L 801.583982 216.708749 
L 804.758812 169.821016 
L 809.767988 107.69876 
L 821.409033 55.565659 
L 834.249457 57.683598 
L 849.171159 72.928338 
L 868.467071 89.395442 
L 891.114194 101.858123 
L 907.2 107.283531 
L 907.2 107.283531 
" clip-path="url(#p8c1b77dc80)" style="fill: none; stroke: #0000ff; stroke-width: 1.5; stroke-linecap: square"/>
   </g>
   <g id="line2d_62">
    <path d="M 554.476364 302.644739 
L 609.718409 302.505487 
L 615.186172 302.168322 
L 621.853316 302.144343 
L 635.434534 301.828341 
L 638.82102 301.511972 
L 640.055676 301.273056 
L 643.512713 299.163223 
L 644.006576 298.455086 
L 644.747369 295.504541 
L 645.629267 288.98854 
L 646.405336 281.006127 
L 648.839373 252.195087 
L 649.615442 246.131682 
L 653.636894 217.636403 
L 654.942102 205.647278 
L 655.400688 200.066816 
L 656.24731 187.430222 
L 657.129207 167.94991 
L 658.399139 126.998948 
L 659.210485 102.159048 
L 659.916003 87.108931 
L 660.7979 81.377622 
L 660.833176 81.813792 
L 663.690523 140.109187 
L 666.371491 194.752269 
L 667.92363 225.281433 
L 670.780977 261.667705 
L 673.744152 283.774829 
L 676.954258 294.315015 
L 680.234916 298.763986 
L 683.868333 298.259489 
L 687.184266 295.640228 
L 690.041614 292.5526 
L 691.840684 288.842978 
L 693.569203 284.219267 
L 695.685756 277.763302 
L 696.673481 275.327755 
L 698.543103 273.931268 
L 700.236346 273.875205 
L 702.458727 276.940269 
L 704.575281 280.764224 
L 706.339075 284.134902 
L 708.173422 286.619288 
L 710.466355 287.882924 
L 715.82829 289.43232 
L 722.036847 289.325699 
L 731.737717 287.781243 
L 736.323583 286.868562 
L 742.53214 285.325152 
L 758.053532 279.750321 
L 765.320365 276.781541 
L 772.693027 273.254272 
L 777.102513 270.663853 
L 780.030412 267.441545 
L 784.404623 258.317928 
L 789.23742 231.638898 
L 794.352424 189.990891 
L 799.396876 140.088292 
L 801.654533 114.862386 
L 804.159122 101.544272 
L 804.194398 101.598451 
L 809.626885 110.027389 
L 821.51486 194.789806 
L 834.390561 241.043834 
L 848.430365 269.39035 
L 868.22014 285.956379 
L 891.396401 291.807736 
L 907.2 293.755319 
L 907.2 293.755319 
" clip-path="url(#p8c1b77dc80)" style="fill: none; stroke: #ff0000; stroke-width: 1.5; stroke-linecap: square"/>
   </g>
   <g id="patch_8">
    <path d="M 552.109091 315 
L 552.109091 43.2 
" style="fill: none; stroke: #000000; stroke-width: 0.8; stroke-linejoin: miter; stroke-linecap: square"/>
   </g>
   <g id="patch_9">
    <path d="M 907.2 315 
L 907.2 43.2 
" style="fill: none; stroke: #000000; stroke-width: 0.8; stroke-linejoin: miter; stroke-linecap: square"/>
   </g>
   <g id="patch_10">
    <path d="M 552.109091 315 
L 907.2 315 
" style="fill: none; stroke: #000000; stroke-width: 0.8; stroke-linejoin: miter; stroke-linecap: square"/>
   </g>
   <g id="patch_11">
    <path d="M 552.109091 43.2 
L 907.2 43.2 
" style="fill: none; stroke: #000000; stroke-width: 0.8; stroke-linejoin: miter; stroke-linecap: square"/>
   </g>
   <g id="legend_2">
    <g id="line2d_63">
     <path d="M 566.509091 64.1575 
L 582.509091 64.1575 
L 598.509091 64.1575 
" style="fill: none; stroke: #0000ff; stroke-width: 1.5; stroke-linecap: square"/>
    </g>
    <g id="text_35">
     <!-- $n$ -->
     <g transform="translate(611.309091 69.7575)scale(0.16 -0.16)">
      <use xlink:href="#DejaVuSans-Oblique-6e"/>
     </g>
    </g>
    <g id="line2d_64">
     <path d="M 566.509091 87.6425 
L 582.509091 87.6425 
L 598.509091 87.6425 
" style="fill: none; stroke: #ff0000; stroke-width: 1.5; stroke-linecap: square"/>
    </g>
    <g id="text_36">
     <!-- $\kappa$ -->
     <g transform="translate(611.309091 93.2425)scale(0.16 -0.16)">
      <use xlink:href="#DejaVuSans-Oblique-3ba" transform="translate(0 0.3125)"/>
     </g>
    </g>
   </g>
  </g>
 </g>
 <defs>
  <clipPath id="pebb52f584c">
   <rect x="126" y="43.2" width="355.090909" height="271.8"/>
  </clipPath>
  <clipPath id="p8c1b77dc80">
   <rect x="552.109091" y="43.2" width="355.090909" height="271.8"/>
  </clipPath>
 </defs>
</svg>
